<svg width="174" height="54" viewBox="0 0 174 54" fill="none" xmlns="http://www.w3.org/2000/svg">
<path d="M48.8242 48.8717C46.7617 48.8014 45.2031 48.3209 44.1484 47.4303C43.0938 46.5162 42.332 45.4967 41.8633 44.3717C41.3945 43.2233 41.1602 42.0631 41.1602 40.8912C41.1602 39.6725 41.3828 38.5006 41.8281 37.3756C42.2969 36.2272 43.0586 35.2076 44.1133 34.317C45.1914 33.4029 46.5508 32.9342 48.1914 32.9108H61.5508C62.207 32.9108 62.7578 33.1334 63.2031 33.5787C63.6719 34.0006 63.9062 34.5162 63.9062 35.1256C63.9062 35.7584 63.6719 36.2975 63.2031 36.7428C62.7578 37.1647 62.207 37.3756 61.5508 37.3756H48.4023C47.8867 37.3756 47.4297 37.5514 47.0312 37.9029C46.6562 38.2545 46.375 38.7115 46.1875 39.274C46.0234 39.8365 45.9414 40.3873 45.9414 40.9264C45.9414 41.5123 46.0234 42.0865 46.1875 42.649C46.375 43.2115 46.6562 43.6686 47.0312 44.0201C47.4297 44.3483 47.8867 44.524 48.4023 44.5475H61.5508C62.207 44.5475 62.7578 44.7584 63.2031 45.1803C63.6719 45.6022 63.9062 46.1061 63.9062 46.692C63.9062 47.3014 63.6719 47.817 63.2031 48.2389C62.7578 48.6608 62.207 48.8717 61.5508 48.8717H48.8242ZM63.4844 40.8209C63.4844 41.2662 63.2852 41.6529 62.8867 41.9811C62.5352 42.2858 62.0898 42.4381 61.5508 42.4381H50.0547C49.5156 42.4381 49.0586 42.2858 48.6836 41.9811C48.3086 41.6529 48.1211 41.2662 48.1211 40.8209C48.1211 40.399 48.3086 40.024 48.6836 39.6959C49.0586 39.3912 49.5156 39.2389 50.0547 39.2389H61.5508C62.0898 39.2389 62.5469 39.4029 62.9219 39.7311C63.2969 40.0358 63.4844 40.399 63.4844 40.8209ZM75.5781 27.567C76.2344 27.567 76.7969 27.7897 77.2656 28.235C77.7344 28.6569 77.9805 29.1959 78.0039 29.8522V32.9108H89.957C90.6133 32.9108 91.1758 33.1334 91.6445 33.5787C92.0898 34.0475 92.3125 34.61 92.3125 35.2662C92.3125 35.9225 92.0781 36.485 91.6094 36.9537C91.1641 37.399 90.6133 37.6217 89.957 37.6217H78.0039V38.3248C77.9805 39.2858 78.0391 40.1764 78.1797 40.9967C78.3438 41.7936 78.7188 42.5084 79.3047 43.1412C79.8906 43.774 80.6289 44.1139 81.5195 44.1608H90.0977C90.7539 44.1842 91.293 44.4303 91.7148 44.899C92.1602 45.3678 92.3828 45.9303 92.3828 46.5865C92.3594 47.2194 92.125 47.7584 91.6797 48.2037C91.2578 48.6256 90.7305 48.8483 90.0977 48.8717H80.3242C78.6836 48.7779 77.3242 48.2272 76.2461 47.2194C75.1914 46.1881 74.4297 44.9342 73.9609 43.4576C73.5156 41.9811 73.2812 40.4108 73.2578 38.7467V37.6217H69.2148C68.5586 37.6217 68.0078 37.3873 67.5625 36.9186C67.0938 36.4733 66.8594 35.9225 66.8594 35.2662C66.8594 34.61 67.082 34.0592 67.5273 33.6139C67.9961 33.1451 68.5586 32.9108 69.2148 32.9108H73.2578V29.8522C73.2812 29.2194 73.5156 28.692 73.9609 28.2701C74.4062 27.8248 74.9453 27.5904 75.5781 27.567ZM98.1836 27.567C98.8164 27.5904 99.3555 27.8248 99.8008 28.2701C100.246 28.692 100.48 29.2194 100.504 29.8522V32.9108H111.402C113.043 32.9342 114.391 33.4029 115.445 34.317C116.523 35.2076 117.285 36.2154 117.73 37.3404C118.199 38.4889 118.434 39.6725 118.434 40.8912H118.469V47.0084C118.469 47.6647 118.223 48.2154 117.73 48.6608C117.262 49.0826 116.699 49.2936 116.043 49.2936C114.637 49.1764 113.863 48.4147 113.723 47.0084V40.8561C113.723 40.4108 113.629 39.942 113.441 39.4498C113.277 38.9576 113.031 38.5358 112.703 38.1842C112.375 37.8092 111.988 37.6217 111.543 37.6217H100.504V47.0787C100.363 48.485 99.5898 49.2467 98.1836 49.3639C97.5273 49.3639 96.9531 49.1529 96.4609 48.7311C95.9922 48.2858 95.7578 47.735 95.7578 47.0787V29.8522C95.7812 29.1959 96.0273 28.6569 96.4961 28.235C96.9648 27.7897 97.5273 27.567 98.1836 27.567ZM130.105 48.8717C128.043 48.8014 126.484 48.3209 125.43 47.4303C124.375 46.5162 123.613 45.4967 123.145 44.3717C122.676 43.2233 122.441 42.0631 122.441 40.8912C122.441 39.6725 122.664 38.5006 123.109 37.3756C123.578 36.2272 124.34 35.2076 125.395 34.317C126.473 33.4029 127.832 32.9342 129.473 32.9108H142.832C143.488 32.9108 144.039 33.1334 144.484 33.5787C144.953 34.0006 145.188 34.5162 145.188 35.1256C145.188 35.7584 144.953 36.2975 144.484 36.7428C144.039 37.1647 143.488 37.3756 142.832 37.3756H129.684C129.168 37.3756 128.711 37.5514 128.312 37.9029C127.938 38.2545 127.656 38.7115 127.469 39.274C127.305 39.8365 127.223 40.3873 127.223 40.9264C127.223 41.5123 127.305 42.0865 127.469 42.649C127.656 43.2115 127.938 43.6686 128.312 44.0201C128.711 44.3483 129.168 44.524 129.684 44.5475H142.832C143.488 44.5475 144.039 44.7584 144.484 45.1803C144.953 45.6022 145.188 46.1061 145.188 46.692C145.188 47.3014 144.953 47.817 144.484 48.2389C144.039 48.6608 143.488 48.8717 142.832 48.8717H130.105ZM144.766 40.8209C144.766 41.2662 144.566 41.6529 144.168 41.9811C143.816 42.2858 143.371 42.4381 142.832 42.4381H131.336C130.797 42.4381 130.34 42.2858 129.965 41.9811C129.59 41.6529 129.402 41.2662 129.402 40.8209C129.402 40.399 129.59 40.024 129.965 39.6959C130.34 39.3912 130.797 39.2389 131.336 39.2389H142.832C143.371 39.2389 143.828 39.4029 144.203 39.7311C144.578 40.0358 144.766 40.399 144.766 40.8209ZM149.969 37.3404C150.414 36.2154 151.164 35.2076 152.219 34.317C153.297 33.4029 154.656 32.9342 156.297 32.9108H169.516C170.172 32.9108 170.723 33.1451 171.168 33.6139C171.637 34.0592 171.871 34.61 171.871 35.2662C171.871 35.9225 171.637 36.485 171.168 36.9537C170.723 37.399 170.172 37.6217 169.516 37.6217H156.156C155.711 37.6217 155.324 37.8092 154.996 38.1842C154.668 38.5358 154.41 38.9576 154.223 39.4498C154.059 39.942 153.977 40.4108 153.977 40.8561V47.0084C153.836 48.4147 153.062 49.1764 151.656 49.2936C151 49.2936 150.426 49.0826 149.934 48.6608C149.465 48.2154 149.23 47.6647 149.23 47.0084V40.8912H149.266C149.266 39.6725 149.5 38.4889 149.969 37.3404Z" fill="white"/>
<path d="M5.49198 2.60184L45.3222 2.50001C48.2283 2.49258 49.4461 6.20827 47.0994 7.92251L25.7211 23.5391L25.6981 31.442L24.0951 31.442C21.1929 31.442 19.9819 27.7314 22.3255 26.0195L25.7211 23.5391L25.7555 11.6921C25.7622 9.40685 23.3134 7.95358 21.3106 9.05423L7.21879 16.7988C5.25645 17.8772 2.84706 16.5036 2.77543 14.2656L2.50119 5.6978C2.44707 4.00722 3.80054 2.60616 5.49198 2.60184Z" fill="white"/>
<path d="M25.6981 31.442L24.0951 31.442C21.1929 31.442 19.9819 27.7314 22.3255 26.0195L47.0994 7.92251C49.4461 6.20827 48.2283 2.49258 45.3222 2.50001L5.49198 2.60184C3.80054 2.60616 2.44707 4.00722 2.50119 5.6978L2.77543 14.2656C2.84706 16.5036 5.25645 17.8772 7.21879 16.7988L21.3106 9.05423C23.3134 7.95358 25.7622 9.40685 25.7555 11.6921L25.6479 48.6799" stroke="white" stroke-width="5" stroke-linecap="round"/>
</svg>
