<svg width="51" height="52" viewBox="0 0 51 52" fill="none" xmlns="http://www.w3.org/2000/svg">
<path d="M5.49198 2.60184L45.3222 2.50002C48.2283 2.49259 49.4461 6.20828 47.0994 7.92251L25.7211 23.5391L25.6981 31.442L24.0951 31.442C21.1929 31.442 19.9819 27.7315 22.3255 26.0195L25.7211 23.5391L25.7555 11.6921C25.7622 9.40686 23.3134 7.95359 21.3106 9.05423L7.21879 16.7988C5.25645 17.8772 2.84706 16.5037 2.77543 14.2656L2.50119 5.69781C2.44707 4.00722 3.80054 2.60617 5.49198 2.60184Z" fill="#3D4EE8"/>
<path d="M25.6981 31.442L24.0951 31.442C21.1929 31.442 19.9819 27.7315 22.3255 26.0195L47.0994 7.92251C49.4461 6.20828 48.2283 2.49259 45.3222 2.50002L5.49198 2.60184C3.80054 2.60617 2.44707 4.00722 2.50119 5.69781L2.77543 14.2656C2.84706 16.5037 5.25645 17.8772 7.21879 16.7988L21.3106 9.05423C23.3134 7.95359 25.7622 9.40686 25.7555 11.6921L25.6479 48.6799" stroke="#2E39AD" stroke-width="5" stroke-linecap="round"/>
</svg>
