<svg width="283" height="39" viewBox="0 0 283 39" fill="none" xmlns="http://www.w3.org/2000/svg">
<path d="M0 5.1875C0 4.02083 0.395833 3.04167 1.1875 2.25C2.02083 1.41667 3.02083 1 4.1875 1H40.5625C41.7292 1 42.7292 1.39583 43.5625 2.1875C44.3542 3.02083 44.75 4.02083 44.75 5.1875C44.75 6.35417 44.3333 7.35417 43.5 8.1875C42.7083 8.97917 41.7292 9.375 40.5625 9.375H26.625V34.6875C26.375 37.1875 25 38.5417 22.5 38.75C21.3333 38.75 20.3125 38.375 19.4375 37.625C18.6042 36.8333 18.1875 35.8542 18.1875 34.6875V9.375H4.1875C3.02083 9.375 2.04167 8.95833 1.25 8.125C0.416667 7.33333 0 6.35417 0 5.1875ZM64.125 37.875C60.4583 37.75 57.6875 36.8958 55.8125 35.3125C53.9375 33.6875 52.5833 31.875 51.75 29.875C50.9167 27.8333 50.5 25.7708 50.5 23.6875C50.5 21.5208 50.8958 19.4375 51.6875 17.4375C52.5208 15.3958 53.875 13.5833 55.75 12C57.6667 10.375 60.0833 9.54167 63 9.5H86.75C87.9167 9.5 88.8958 9.89583 89.6875 10.6875C90.5208 11.4375 90.9375 12.3542 90.9375 13.4375C90.9375 14.5625 90.5208 15.5208 89.6875 16.3125C88.8958 17.0625 87.9167 17.4375 86.75 17.4375H63.375C62.4583 17.4375 61.6458 17.75 60.9375 18.375C60.2708 19 59.7708 19.8125 59.4375 20.8125C59.1458 21.8125 59 22.7917 59 23.75C59 24.7917 59.1458 25.8125 59.4375 26.8125C59.7708 27.8125 60.2708 28.625 60.9375 29.25C61.6458 29.8333 62.4583 30.1458 63.375 30.1875H86.75C87.9167 30.1875 88.8958 30.5625 89.6875 31.3125C90.5208 32.0625 90.9375 32.9583 90.9375 34C90.9375 35.0833 90.5208 36 89.6875 36.75C88.8958 37.5 87.9167 37.875 86.75 37.875H64.125ZM90.1875 23.5625C90.1875 24.3542 89.8333 25.0417 89.125 25.625C88.5 26.1667 87.7083 26.4375 86.75 26.4375H66.3125C65.3542 26.4375 64.5417 26.1667 63.875 25.625C63.2083 25.0417 62.875 24.3542 62.875 23.5625C62.875 22.8125 63.2083 22.1458 63.875 21.5625C64.5417 21.0208 65.3542 20.75 66.3125 20.75H86.75C87.7083 20.75 88.5208 21.0417 89.1875 21.625C89.8542 22.1667 90.1875 22.8125 90.1875 23.5625ZM111.688 0C112.854 0 113.854 0.395833 114.688 1.1875C115.521 1.9375 115.958 2.89583 116 4.0625V9.5H137.25C138.417 9.5 139.417 9.89583 140.25 10.6875C141.042 11.5208 141.438 12.5208 141.438 13.6875C141.438 14.8542 141.021 15.8542 140.188 16.6875C139.396 17.4792 138.417 17.875 137.25 17.875H116V19.125C115.958 20.8333 116.062 22.4167 116.312 23.875C116.604 25.2917 117.271 26.5625 118.312 27.6875C119.354 28.8125 120.667 29.4167 122.25 29.5H137.5C138.667 29.5417 139.625 29.9792 140.375 30.8125C141.167 31.6458 141.562 32.6458 141.562 33.8125C141.521 34.9375 141.104 35.8958 140.312 36.6875C139.562 37.4375 138.625 37.8333 137.5 37.875H120.125C117.208 37.7083 114.792 36.7292 112.875 34.9375C111 33.1042 109.646 30.875 108.812 28.25C108.021 25.625 107.604 22.8333 107.562 19.875V17.875H100.375C99.2083 17.875 98.2292 17.4583 97.4375 16.625C96.6042 15.8333 96.1875 14.8542 96.1875 13.6875C96.1875 12.5208 96.5833 11.5417 97.375 10.75C98.2083 9.91667 99.2083 9.5 100.375 9.5H107.562V4.0625C107.604 2.9375 108.021 2 108.812 1.25C109.604 0.458333 110.562 0.0416667 111.688 0ZM151.875 0C153 0.0416667 153.958 0.458333 154.75 1.25C155.542 2 155.958 2.9375 156 4.0625V9.5H175.375C178.292 9.54167 180.688 10.375 182.562 12C184.479 13.5833 185.833 15.375 186.625 17.375C187.458 19.4167 187.875 21.5208 187.875 23.6875H187.938V34.5625C187.938 35.7292 187.5 36.7083 186.625 37.5C185.792 38.25 184.792 38.625 183.625 38.625C181.125 38.4167 179.75 37.0625 179.5 34.5625V23.625C179.5 22.8333 179.333 22 179 21.125C178.708 20.25 178.271 19.5 177.688 18.875C177.104 18.2083 176.417 17.875 175.625 17.875H156V34.6875C155.75 37.1875 154.375 38.5417 151.875 38.75C150.708 38.75 149.688 38.375 148.812 37.625C147.979 36.8333 147.562 35.8542 147.562 34.6875V4.0625C147.604 2.89583 148.042 1.9375 148.875 1.1875C149.708 0.395833 150.708 0 151.875 0ZM208.625 37.875C204.958 37.75 202.188 36.8958 200.312 35.3125C198.438 33.6875 197.083 31.875 196.25 29.875C195.417 27.8333 195 25.7708 195 23.6875C195 21.5208 195.396 19.4375 196.188 17.4375C197.021 15.3958 198.375 13.5833 200.25 12C202.167 10.375 204.583 9.54167 207.5 9.5H231.25C232.417 9.5 233.396 9.89583 234.188 10.6875C235.021 11.4375 235.438 12.3542 235.438 13.4375C235.438 14.5625 235.021 15.5208 234.188 16.3125C233.396 17.0625 232.417 17.4375 231.25 17.4375H207.875C206.958 17.4375 206.146 17.75 205.438 18.375C204.771 19 204.271 19.8125 203.938 20.8125C203.646 21.8125 203.5 22.7917 203.5 23.75C203.5 24.7917 203.646 25.8125 203.938 26.8125C204.271 27.8125 204.771 28.625 205.438 29.25C206.146 29.8333 206.958 30.1458 207.875 30.1875H231.25C232.417 30.1875 233.396 30.5625 234.188 31.3125C235.021 32.0625 235.438 32.9583 235.438 34C235.438 35.0833 235.021 36 234.188 36.75C233.396 37.5 232.417 37.875 231.25 37.875H208.625ZM234.688 23.5625C234.688 24.3542 234.333 25.0417 233.625 25.625C233 26.1667 232.208 26.4375 231.25 26.4375H210.812C209.854 26.4375 209.042 26.1667 208.375 25.625C207.708 25.0417 207.375 24.3542 207.375 23.5625C207.375 22.8125 207.708 22.1458 208.375 21.5625C209.042 21.0208 209.854 20.75 210.812 20.75H231.25C232.208 20.75 233.021 21.0417 233.688 21.625C234.354 22.1667 234.688 22.8125 234.688 23.5625ZM243.938 17.375C244.729 15.375 246.062 13.5833 247.938 12C249.854 10.375 252.271 9.54167 255.188 9.5H278.688C279.854 9.5 280.833 9.91667 281.625 10.75C282.458 11.5417 282.875 12.5208 282.875 13.6875C282.875 14.8542 282.458 15.8542 281.625 16.6875C280.833 17.4792 279.854 17.875 278.688 17.875H254.938C254.146 17.875 253.458 18.2083 252.875 18.875C252.292 19.5 251.833 20.25 251.5 21.125C251.208 22 251.062 22.8333 251.062 23.625V34.5625C250.812 37.0625 249.438 38.4167 246.938 38.625C245.771 38.625 244.75 38.25 243.875 37.5C243.042 36.7083 242.625 35.7292 242.625 34.5625V23.6875H242.688C242.688 21.5208 243.104 19.4167 243.938 17.375Z" fill="#3D4EE8"/>
</svg>
