<svg width="490" height="331" viewBox="0 0 490 331" fill="none" xmlns="http://www.w3.org/2000/svg">
<path d="M214.887 138.916L197.349 157.014L214.943 174.698L187.023 203.644L186.411 167.756L171.205 182.544L165.379 176.468L185.009 156.71L166.483 137.122L171.363 132.79L186.647 146.258L186.915 109.342L214.887 138.916Z" fill="#4353E9"/>
<path d="M186.549 108.411C186.928 108.262 187.361 108.358 187.641 108.654L215.613 138.228C215.981 138.617 215.977 139.227 215.605 139.611L198.75 157.005L215.651 173.992C216.035 174.378 216.04 175 215.663 175.391L187.742 204.338C187.461 204.629 187.032 204.722 186.656 204.574C186.28 204.426 186.03 204.065 186.023 203.661L185.45 170.084L171.902 183.261C171.711 183.446 171.454 183.548 171.187 183.544C170.921 183.539 170.668 183.428 170.483 183.236L164.657 177.16C164.281 176.768 164.287 176.148 164.67 175.762L183.616 156.692L165.757 137.808C165.571 137.612 165.471 137.348 165.483 137.078C165.495 136.807 165.617 136.553 165.819 136.374L170.699 132.042L170.772 131.983C171.147 131.708 171.669 131.726 172.024 132.039L185.662 144.057L185.915 109.335L185.927 109.183C185.983 108.838 186.216 108.542 186.549 108.411ZM187.646 146.264C187.643 146.656 187.413 147.011 187.055 147.171C186.698 147.331 186.279 147.267 185.985 147.008L171.365 134.124L167.918 137.183L185.735 156.022C186.106 156.415 186.099 157.032 185.718 157.415L166.775 176.479L171.229 181.124L185.714 167.039L185.827 166.944C186.105 166.744 186.469 166.698 186.792 166.831C187.16 166.983 187.404 167.339 187.411 167.738L187.98 201.209L213.543 174.708L196.639 157.719C196.255 157.332 196.252 156.71 196.631 156.318L213.502 138.907L187.896 111.835L187.646 146.264Z" fill="#4353E9"/>
<path d="M195.041 130.296L203.779 138.198L195.877 146.936L195.041 130.296Z" fill="white"/>
<path d="M194.613 129.392C194.978 129.219 195.412 129.283 195.712 129.554L204.45 137.456C204.647 137.634 204.764 137.883 204.778 138.147C204.791 138.412 204.699 138.671 204.521 138.868L196.619 147.606C196.348 147.906 195.922 148.014 195.541 147.878C195.16 147.742 194.899 147.39 194.878 146.986L194.042 130.345C194.022 129.942 194.247 129.566 194.613 129.392ZM196.754 144.474L202.366 138.268L196.161 132.656L196.754 144.474Z" fill="white"/>
<path d="M194.707 167.896L203.445 175.798L195.543 184.536L194.707 167.896Z" fill="white"/>
<path d="M194.279 166.992C194.644 166.819 195.078 166.883 195.378 167.154L204.116 175.056C204.526 175.426 204.557 176.059 204.187 176.469L196.285 185.206C196.014 185.506 195.588 185.613 195.207 185.478C194.826 185.342 194.565 184.99 194.544 184.586L193.708 167.945C193.688 167.542 193.913 167.166 194.279 166.992ZM196.42 182.074L202.032 175.868L195.827 170.256L196.42 182.074Z" fill="white"/>
<path d="M245.771 44.0876C246.01 44.0876 246.228 44.1799 246.392 44.3298C246.653 44.4925 246.828 44.7805 246.828 45.1111V271.078C246.828 271.587 246.415 272 245.906 272L137.896 272.002C137.652 272.002 137.417 271.904 137.244 271.731C137.072 271.558 136.975 271.324 136.975 271.08V45.0095C136.975 44.5003 137.387 44.0876 137.896 44.0876H245.771ZM138.818 270.157L244.984 270.156V45.9314H138.818V270.157Z" fill="#4353E9"/>
<path d="M219.77 56.4116C219.802 56.4116 219.834 56.4142 219.865 56.4175C220.362 56.4313 220.761 56.837 220.761 57.3374V66.7632C220.761 67.2724 220.348 67.686 219.839 67.686H162.535C162.026 67.686 161.613 67.2724 161.613 66.7632V57.3335C161.613 56.8243 162.026 56.4116 162.535 56.4116H219.77ZM163.457 65.8413H218.917V58.2554H163.457V65.8413Z" fill="#4353E9"/>
<path d="M240.075 56.0398C240.311 56.0398 240.526 56.1291 240.689 56.2751C240.947 56.4385 241.119 56.7255 241.119 57.0535V259.126C241.119 259.635 240.706 260.048 240.197 260.048H143.609C143.1 260.048 142.688 259.635 142.688 259.126V56.9617C142.688 56.4525 143.1 56.0398 143.609 56.0398H240.075ZM144.531 258.204H239.275V57.8835H144.531V258.204Z" fill="#4353E9"/>
<path d="M186.455 108.175C186.932 107.987 187.475 108.108 187.826 108.48L215.798 138.053C216.259 138.541 216.254 139.306 215.787 139.788L199.107 157.001L215.832 173.813C216.313 174.297 216.32 175.077 215.846 175.568L187.926 204.514C187.574 204.88 187.036 204.996 186.564 204.81C186.092 204.624 185.778 204.172 185.77 203.665L185.206 170.676L172.079 183.442C171.84 183.675 171.517 183.803 171.183 183.798C170.849 183.792 170.531 183.653 170.3 183.412L164.474 177.336C164.003 176.844 164.01 176.067 164.489 175.584L183.262 156.687L165.572 137.983C165.339 137.737 165.216 137.406 165.231 137.067C165.245 136.728 165.397 136.409 165.651 136.183L170.53 131.851C171.004 131.431 171.717 131.43 172.193 131.848L185.412 143.499L185.661 109.333L185.677 109.143C185.746 108.71 186.039 108.339 186.455 108.175ZM187.901 146.266C187.897 146.757 187.608 147.201 187.159 147.402C186.711 147.603 186.186 147.523 185.818 147.198L171.365 134.463L168.283 137.2L185.92 155.847C186.386 156.34 186.376 157.113 185.899 157.594L167.131 176.482L171.236 180.763L185.537 166.856L185.679 166.737C186.027 166.487 186.484 166.43 186.889 166.596C187.351 166.787 187.657 167.234 187.665 167.734L188.225 200.591L213.187 174.711L196.46 157.898C195.978 157.414 195.973 156.632 196.448 156.141L213.151 138.904L188.146 112.468L187.901 146.266Z" fill="#4353E9"/>
<path d="M194.504 129.163C194.962 128.946 195.505 129.026 195.881 129.366L204.62 137.267C204.866 137.49 205.014 137.802 205.031 138.135C205.048 138.467 204.932 138.792 204.709 139.039L196.806 147.777C196.466 148.153 195.933 148.287 195.456 148.117C194.978 147.947 194.65 147.505 194.625 146.999L193.789 130.358C193.763 129.852 194.045 129.38 194.504 129.163ZM196.977 143.848L202.006 138.286L196.444 133.256L196.977 143.848Z" fill="#4353E9"/>
<path d="M194.17 166.763C194.628 166.545 195.171 166.626 195.547 166.966L204.286 174.867C204.799 175.332 204.839 176.125 204.375 176.639L196.472 185.377C196.132 185.753 195.599 185.887 195.122 185.717C194.644 185.546 194.316 185.105 194.291 184.599L193.455 167.958C193.429 167.452 193.711 166.98 194.17 166.763ZM196.643 181.448L201.672 175.886L196.11 170.855L196.643 181.448Z" fill="#4353E9"/>
<path d="M308.2 81.773C308.784 81.4003 309.559 81.5713 309.932 82.1548C310.594 83.1916 311.201 84.1617 311.752 85.065C312.302 85.9681 312.842 86.8779 313.371 87.7944L314.156 89.1704C314.416 89.6309 314.672 90.0927 314.927 90.5562C315.435 91.4826 315.933 92.4148 316.421 93.3521L316.422 93.354C316.909 94.2913 317.384 95.2348 317.85 96.1841H317.851C318.318 97.133 318.773 98.0878 319.217 99.0474C319.439 99.5267 319.658 100.007 319.875 100.489L320.518 101.937L320.519 101.939C320.941 102.909 321.352 103.882 321.753 104.86L321.754 104.862C321.954 105.351 322.151 105.84 322.346 106.332L322.922 107.808V107.809C323.293 108.776 323.518 109.372 323.587 109.565C323.818 110.218 323.476 110.935 322.823 111.166C322.17 111.397 321.454 111.055 321.223 110.402C321.168 110.248 320.958 109.693 320.58 108.708L320.014 107.255C319.822 106.772 319.628 106.291 319.432 105.81V105.809C319.038 104.849 318.634 103.893 318.22 102.941V102.942C317.803 101.99 317.378 101.043 316.941 100.1C316.506 99.1585 316.058 98.2225 315.6 97.2915L315.599 97.2896C315.142 96.3576 314.675 95.4313 314.197 94.5112L313.47 93.1333C313.225 92.6753 312.977 92.2186 312.727 91.7632C312.228 90.8527 311.718 89.9479 311.199 89.0493V89.0484C310.68 88.1491 310.15 87.2566 309.61 86.3706C309.07 85.4847 308.473 84.5288 307.818 83.5044C307.446 82.9209 307.617 82.1458 308.2 81.773Z" fill="#4353E9"/>
<path d="M316.398 217.153C316.698 216.528 317.446 216.266 318.071 216.566C318.695 216.866 318.958 217.614 318.658 218.239C318.034 219.537 317.482 220.66 317.002 221.606H317.001C316.523 222.547 316.033 223.483 315.532 224.415C315.033 225.347 314.523 226.273 314.001 227.194C313.481 228.112 312.956 229.015 312.427 229.902C312.072 230.496 311.302 230.691 310.707 230.336C310.113 229.981 309.918 229.212 310.273 228.617C310.792 227.747 311.307 226.86 311.819 225.957L311.82 225.956C312.332 225.053 312.833 224.144 313.323 223.231L314.052 221.853C314.293 221.393 314.531 220.931 314.766 220.469C315.235 219.545 315.779 218.44 316.398 217.153Z" fill="#4353E9"/>
<path d="M297.696 246.361C298.141 245.83 298.931 245.76 299.462 246.204C299.993 246.648 300.064 247.439 299.62 247.97C298.913 248.815 298.212 249.636 297.517 250.432L297.516 250.433C296.82 251.228 296.115 252.016 295.4 252.796V252.797C294.687 253.576 293.964 254.346 293.234 255.11L293.232 255.112C292.501 255.874 291.761 256.629 291.014 257.376C290.266 258.122 289.509 258.86 288.743 259.59V259.591C287.978 260.32 287.205 261.041 286.425 261.752L286.424 261.751C285.642 262.465 284.853 263.169 284.055 263.864C283.259 264.558 282.453 265.241 281.64 265.917C280.827 266.593 280.007 267.26 279.18 267.917C278.352 268.574 277.518 269.224 276.676 269.863H276.675C276.253 270.182 275.83 270.5 275.405 270.814L274.127 271.75C273.27 272.37 272.406 272.98 271.535 273.58C270.665 274.18 269.787 274.77 268.903 275.35C268.02 275.93 267.13 276.5 266.232 277.059C265.337 277.619 264.434 278.169 263.524 278.709L263.524 278.71C263.069 278.98 262.613 279.247 262.155 279.511L260.779 280.296C259.858 280.816 258.93 281.324 257.998 281.822C257.066 282.319 256.129 282.807 255.187 283.285L255.185 283.286C254.241 283.762 253.292 284.227 252.339 284.683H252.338C251.384 285.138 250.424 285.581 249.46 286.014C248.495 286.449 247.527 286.873 246.555 287.285H246.554C245.58 287.696 244.601 288.097 243.617 288.486L243.616 288.485C242.635 288.875 241.648 289.254 240.657 289.622C239.666 289.989 238.67 290.344 237.671 290.688L237.672 290.689C236.673 291.035 235.67 291.367 234.662 291.689C233.655 292.012 232.645 292.324 231.63 292.623C230.616 292.921 229.6 293.209 228.581 293.486H228.579C227.56 293.762 226.537 294.025 225.511 294.278C224.484 294.532 223.455 294.775 222.423 295.005H222.421C221.39 295.234 220.356 295.453 219.319 295.66C218.282 295.867 217.243 296.062 216.201 296.245C215.16 296.428 214.117 296.598 213.072 296.756L213.073 296.757C212.028 296.917 210.981 297.065 209.933 297.201C208.883 297.337 207.833 297.461 206.782 297.573C205.732 297.684 204.679 297.785 203.625 297.874C202.572 297.962 201.518 298.038 200.463 298.103C199.408 298.168 198.352 298.22 197.296 298.26C196.239 298.301 195.182 298.328 194.126 298.344L194.127 298.345C193.069 298.363 192.01 298.368 190.952 298.36V298.359C189.895 298.352 188.839 298.334 187.783 298.303C186.726 298.272 185.669 298.229 184.614 298.173C183.559 298.118 182.504 298.052 181.449 297.974H181.447C180.395 297.895 179.342 297.804 178.291 297.702C177.237 297.599 176.185 297.485 175.136 297.359C174.086 297.232 173.038 297.094 171.991 296.943V296.942C170.945 296.793 169.901 296.632 168.858 296.459C167.816 296.285 166.774 296.1 165.735 295.902V295.901C164.697 295.704 163.661 295.496 162.628 295.276C161.594 295.055 160.562 294.823 159.533 294.58H159.531C158.504 294.335 157.48 294.079 156.458 293.813H156.457C155.434 293.545 154.414 293.267 153.399 292.978L153.398 292.977C152.381 292.687 151.368 292.384 150.357 292.071V292.072C149.348 291.76 148.342 291.435 147.34 291.098C146.337 290.763 145.338 290.416 144.342 290.057V290.056C143.348 289.698 142.358 289.33 141.372 288.95C140.386 288.569 139.405 288.177 138.427 287.775H138.425C137.449 287.371 136.476 286.957 135.508 286.532H135.507C135.023 286.319 134.541 286.104 134.06 285.886L132.62 285.224C131.661 284.777 130.707 284.32 129.76 283.852V283.851C129.286 283.617 128.814 283.381 128.343 283.142L126.934 282.417C125.996 281.928 125.064 281.427 124.138 280.916V280.915C123.212 280.405 122.293 279.884 121.38 279.353C120.465 278.822 119.557 278.281 118.655 277.729L118.654 277.728C117.754 277.175 116.859 276.614 115.97 276.042C115.08 275.471 114.197 274.888 113.321 274.296C112.446 273.705 111.577 273.103 110.715 272.491C109.852 271.88 108.997 271.259 108.149 270.627H108.149C107.3 269.995 106.459 269.354 105.626 268.705V268.704C104.792 268.054 103.965 267.395 103.147 266.727V266.726C102.738 266.392 102.33 266.055 101.925 265.716L100.713 264.693C99.9097 264.007 99.1144 263.311 98.3272 262.606V262.605C97.5372 261.899 96.6445 261.08 95.6505 260.149C95.145 259.675 95.1194 258.882 95.5928 258.376C96.0663 257.871 96.8598 257.845 97.3653 258.318C97.8573 258.779 98.3228 259.211 98.7618 259.614L100 260.737L100.001 260.738C100.774 261.43 101.554 262.112 102.343 262.786V262.787C103.133 263.462 103.929 264.127 104.732 264.784C105.135 265.112 105.539 265.438 105.945 265.762L107.169 266.726V266.727C107.987 267.365 108.813 267.995 109.647 268.616L110.9 269.538L112.165 270.444L112.166 270.445C113.013 271.046 113.866 271.637 114.726 272.218C115.586 272.8 116.453 273.372 117.326 273.933C118.2 274.495 119.08 275.047 119.966 275.59H119.965C120.85 276.132 121.742 276.663 122.64 277.185L122.641 277.186C123.089 277.447 123.539 277.705 123.99 277.96L125.349 278.719L125.351 278.72C126.259 279.222 127.174 279.713 128.095 280.194H128.094C128.554 280.434 129.015 280.671 129.478 280.906L130.871 281.603C131.801 282.063 132.737 282.512 133.679 282.951H133.68C134.62 283.389 135.565 283.818 136.515 284.235H136.516C137.467 284.652 138.422 285.059 139.381 285.456L140.825 286.041C141.308 286.233 141.791 286.423 142.275 286.61C143.244 286.984 144.216 287.346 145.192 287.698H145.193C145.682 287.874 146.172 288.048 146.662 288.218L148.136 288.72L148.137 288.721C148.629 288.886 149.122 289.048 149.615 289.208L151.099 289.675L151.1 289.676C152.092 289.984 153.087 290.281 154.086 290.566H154.085C155.083 290.85 156.085 291.123 157.091 291.386H157.09C158.095 291.648 159.102 291.899 160.112 292.139H160.111C161.122 292.378 162.136 292.606 163.151 292.823C163.659 292.931 164.167 293.037 164.676 293.139L166.203 293.437L166.204 293.438C167.224 293.632 168.246 293.814 169.27 293.985C170.293 294.155 171.319 294.314 172.347 294.46H172.349C173.376 294.608 174.405 294.744 175.436 294.869C176.466 294.993 177.499 295.105 178.533 295.206C179.567 295.306 180.601 295.395 181.636 295.473H181.635C182.671 295.55 183.708 295.615 184.745 295.669C185.781 295.724 186.818 295.766 187.857 295.796C188.893 295.827 189.931 295.844 190.97 295.851H190.972C192.01 295.859 193.047 295.855 194.085 295.837H194.087C195.124 295.822 196.162 295.794 197.2 295.754C198.237 295.715 199.274 295.664 200.31 295.6C201.345 295.537 202.38 295.461 203.414 295.374H203.415C204.451 295.286 205.486 295.188 206.518 295.079C207.549 294.969 208.58 294.848 209.61 294.714C210.64 294.581 211.668 294.435 212.694 294.278H212.695C213.72 294.122 214.744 293.955 215.767 293.775C216.789 293.595 217.81 293.403 218.828 293.2C219.847 292.996 220.863 292.782 221.877 292.557C222.89 292.331 223.901 292.094 224.908 291.844H224.91C225.918 291.596 226.922 291.336 227.923 291.065C228.925 290.793 229.925 290.51 230.922 290.216C231.917 289.923 232.909 289.618 233.897 289.301H233.899C234.887 288.986 235.872 288.658 236.852 288.319L236.854 288.318C237.835 287.98 238.813 287.631 239.786 287.27C240.76 286.909 241.729 286.537 242.693 286.154H242.694C243.177 285.963 243.659 285.769 244.14 285.573L245.578 284.974C246.533 284.57 247.484 284.155 248.431 283.728H248.432C249.379 283.303 250.321 282.866 251.258 282.419C252.195 281.971 253.128 281.513 254.056 281.045C254.982 280.577 255.902 280.098 256.817 279.61C257.733 279.121 258.643 278.621 259.548 278.111H259.549C260.452 277.602 261.35 277.083 262.243 276.553L263.578 275.75C264.022 275.479 264.464 275.206 264.904 274.931C265.785 274.382 266.66 273.823 267.528 273.253C268.396 272.684 269.258 272.104 270.112 271.515C270.967 270.926 271.815 270.326 272.656 269.717H272.657C273.498 269.11 274.332 268.491 275.16 267.864C275.987 267.236 276.807 266.6 277.619 265.954H277.62C278.432 265.309 279.238 264.654 280.035 263.99L280.037 263.989C280.836 263.326 281.627 262.654 282.408 261.972L282.409 261.971C283.192 261.29 283.967 260.599 284.734 259.899C285.501 259.2 286.26 258.492 287.012 257.776C287.764 257.058 288.508 256.333 289.242 255.6C289.61 255.233 289.975 254.864 290.339 254.494L291.423 253.376C292.14 252.625 292.85 251.867 293.552 251.102C294.253 250.336 294.945 249.562 295.628 248.782C296.311 248 297.001 247.193 297.696 246.361Z" fill="#4353E9"/>
<path d="M88.4493 63.2419C88.9165 62.7308 89.7096 62.6949 90.2208 63.1619C90.7319 63.629 90.7678 64.4221 90.3008 64.9334C89.935 65.3336 89.5749 65.7319 89.2208 66.1277L88.1768 67.3074C87.4938 68.0882 86.8193 68.8769 86.1534 69.6736C85.4875 70.4702 84.831 71.2745 84.1837 72.0857C83.5365 72.8966 82.8973 73.7143 82.2686 74.5398C81.6393 75.3675 81.02 76.2023 80.4092 77.0418L80.4083 77.0408C79.7982 77.8807 79.1988 78.7277 78.6085 79.5808L78.6075 79.5828C78.016 80.4357 77.4347 81.2948 76.8643 82.1609L76.8633 82.1628C76.2914 83.0293 75.729 83.9022 75.1768 84.782V84.783C74.6249 85.6611 74.0836 86.5459 73.5528 87.4373L73.5518 87.4382C73.2857 87.884 73.0217 88.3313 72.7608 88.78L71.9864 90.1316C71.7308 90.5827 71.4773 91.0356 71.2266 91.49L70.4815 92.8591C70.2358 93.3163 69.9925 93.775 69.752 94.2351L69.0391 95.6199C68.5689 96.5444 68.1093 97.4754 67.6602 98.4119L67.6592 98.4128C67.2101 99.3481 66.7718 100.289 66.3438 101.235L66.3428 101.234C65.916 102.18 65.4998 103.131 65.0928 104.087C64.6861 105.042 64.2906 106.001 63.9063 106.966C63.5217 107.93 63.1468 108.9 62.7833 109.873C62.42 110.845 62.0684 111.821 61.7276 112.802C61.5572 113.292 61.3895 113.784 61.2247 114.276L60.7384 115.757C60.5792 116.25 60.4231 116.744 60.2696 117.24L59.8175 118.731C59.5215 119.726 59.2365 120.725 58.963 121.726C58.8262 122.227 58.6917 122.728 58.5606 123.23L58.1759 124.739C57.925 125.747 57.6846 126.756 57.4561 127.767C57.2289 128.781 57.0119 129.797 56.8057 130.814C56.6009 131.833 56.408 132.854 56.2257 133.876C56.0434 134.898 55.8725 135.922 55.7139 136.947C55.5553 137.974 55.4087 139.002 55.2725 140.032C55.1365 141.061 55.0118 142.092 54.8995 143.124C54.7872 144.157 54.6872 145.19 54.5987 146.222C54.5101 147.257 54.4324 148.294 54.3663 149.332C54.3002 150.367 54.2464 151.404 54.2042 152.441C54.1619 153.478 54.1318 154.516 54.1134 155.554C54.0949 156.592 54.0869 157.629 54.0909 158.668L54.1075 160.225C54.1157 160.745 54.1268 161.264 54.1407 161.783L54.1925 163.339C54.2126 163.858 54.236 164.376 54.2618 164.895C54.2875 165.414 54.316 165.932 54.3477 166.45L54.4522 168.003V168.005C54.4892 168.522 54.5291 169.039 54.5723 169.556L54.711 171.108V171.109C54.8087 172.142 54.9193 173.173 55.0421 174.203V174.205C55.1636 175.236 55.2965 176.266 55.4405 177.294C55.5858 178.321 55.7431 179.347 55.9122 180.371V180.373C55.9961 180.885 56.0831 181.398 56.1729 181.909L56.4512 183.44L56.4522 183.442C56.5473 183.952 56.6448 184.461 56.7462 184.969L57.0596 186.494L57.0606 186.495C57.2747 187.511 57.4998 188.525 57.7364 189.536H57.7354C57.9732 190.546 58.2232 191.554 58.4835 192.559C58.7438 193.565 59.0152 194.567 59.2979 195.566C59.5807 196.565 59.8745 197.561 60.1798 198.553C60.4848 199.545 60.7999 200.534 61.126 201.519C61.4537 202.504 61.7935 203.485 62.1436 204.463C62.4939 205.441 62.8552 206.415 63.2266 207.385C63.5978 208.355 63.9796 209.32 64.3731 210.28C64.7669 211.241 65.172 212.197 65.587 213.148C65.7943 213.624 66.0039 214.098 66.2169 214.571L66.8643 215.988L66.8653 215.989C67.3012 216.931 67.7478 217.868 68.2061 218.801L68.2071 218.802C68.664 219.732 69.1305 220.659 69.6085 221.579H69.6094C70.0892 222.501 70.5787 223.418 71.0782 224.329C71.5777 225.239 72.0872 226.144 72.6065 227.043C73.1256 227.941 73.6552 228.833 74.1954 229.719C74.7358 230.606 75.2865 231.486 75.8467 232.361L75.8477 232.362C76.4063 233.236 76.976 234.105 77.5557 234.966C78.1359 235.827 78.7247 236.683 79.3233 237.531C79.6225 237.955 79.9244 238.377 80.2286 238.798L81.1485 240.052L81.1495 240.054C81.7699 240.894 82.2548 241.537 82.6065 241.989C83.032 242.535 82.9339 243.323 82.3878 243.749C81.8414 244.174 81.0535 244.076 80.628 243.53C80.2573 243.054 79.7582 242.391 79.1339 241.547C78.504 240.697 77.8842 239.84 77.2745 238.976C76.6653 238.113 76.0651 237.243 75.4747 236.366C74.8838 235.488 74.3038 234.604 73.7344 233.713V233.712C73.1645 232.822 72.6045 231.926 72.0548 231.024C71.5044 230.121 70.9644 229.213 70.4356 228.298C69.907 227.383 69.3884 226.462 68.88 225.535C68.3715 224.608 67.8731 223.675 67.3848 222.736H67.3839C66.8968 221.798 66.4207 220.855 65.9551 219.906V219.905C65.4885 218.956 65.0327 218.002 64.5889 217.043V217.042C64.1438 216.083 63.7095 215.119 63.2872 214.151C62.8648 213.183 62.4537 212.209 62.0528 211.231C61.6518 210.253 61.262 209.27 60.8839 208.282C60.5059 207.295 60.1387 206.304 59.7823 205.308C59.4258 204.313 59.0808 203.314 58.7471 202.311L58.7462 202.31C58.4141 201.307 58.0929 200.301 57.7823 199.291C57.4715 198.28 57.1727 197.266 56.8848 196.249C56.597 195.232 56.3197 194.212 56.0548 193.188C55.7898 192.165 55.5361 191.138 55.294 190.109V190.107C55.0533 189.078 54.8234 188.047 54.6055 187.012V187.011C54.3864 185.977 54.1801 184.941 53.9864 183.903C53.7914 182.865 53.6084 181.824 53.4376 180.78L53.1885 179.215C53.1085 178.692 53.0311 178.169 52.9571 177.645V177.643C52.8106 176.597 52.6755 175.55 52.5518 174.5L52.3741 172.924C52.318 172.399 52.2647 171.873 52.2149 171.347L52.0733 169.765C52.0293 169.239 51.9879 168.712 51.9503 168.184L51.8448 166.603C51.8125 166.076 51.7831 165.548 51.7569 165.02C51.7045 163.965 51.6634 162.909 51.6339 161.853V161.851C51.6056 160.794 51.5885 159.737 51.5831 158.68V158.678C51.579 157.621 51.5867 156.565 51.6055 155.51C51.6244 154.452 51.6553 153.395 51.6983 152.339C51.7414 151.282 51.7961 150.227 51.8634 149.172C51.9306 148.116 52.0096 147.062 52.0997 146.009C52.1898 144.956 52.292 143.904 52.4063 142.852L52.587 141.277C52.6502 140.752 52.7169 140.227 52.7862 139.703C52.9247 138.655 53.0741 137.609 53.2354 136.564L53.4874 134.999C53.5742 134.477 53.6641 133.956 53.7569 133.435L54.044 131.877C54.1425 131.358 54.2435 130.838 54.3477 130.32V130.319C54.5574 129.284 54.7786 128.251 55.0098 127.219V127.218C55.2425 126.187 55.4867 125.159 55.7423 124.133L56.1339 122.596C56.2673 122.085 56.4038 121.575 56.543 121.065C56.8215 120.045 57.1118 119.029 57.4132 118.016L57.8741 116.498C58.0305 115.993 58.1895 115.489 58.3516 114.987L58.8467 113.48C59.0146 112.979 59.1849 112.478 59.3585 111.978L59.8878 110.483C60.0671 109.986 60.2496 109.49 60.4346 108.995C60.8045 108.005 61.1849 107.019 61.5762 106.037C61.9678 105.055 62.3708 104.077 62.7852 103.104C63.1993 102.132 63.6234 101.165 64.0577 100.202L64.0587 100.201C64.4946 99.2377 64.9411 98.2794 65.3985 97.3269C65.856 96.3729 66.3248 95.425 66.8038 94.4832C67.2827 93.5401 67.7721 92.6026 68.2725 91.6716C68.7729 90.7395 69.2832 89.814 69.8038 88.8953C70.3244 87.9751 70.8563 87.0612 71.3985 86.1531C71.9394 85.2448 72.4913 84.3428 73.0538 83.448C73.6159 82.5523 74.1882 81.6633 74.7706 80.781C75.3519 79.8983 75.9442 79.0223 76.5469 78.1531C77.1481 77.2843 77.7596 76.4225 78.3809 75.5671V75.5662C79.0021 74.7123 79.6325 73.8639 80.2725 73.0222H80.2735C80.9139 72.1814 81.5635 71.3473 82.2227 70.5212C82.882 69.6952 83.5505 68.8764 84.2286 68.0652C84.9066 67.254 85.5936 66.4511 86.2891 65.656C86.9859 64.8597 87.7062 64.0549 88.4493 63.2419Z" fill="#4353E9"/>
<path d="M192.855 17.7278L192.854 17.7288C193.911 17.7355 194.968 17.7535 196.024 17.7844C197.082 17.8154 198.138 17.8582 199.193 17.9133C199.721 17.9409 200.249 17.9709 200.776 18.0042L202.358 18.1126L202.359 18.1135C203.412 18.1929 204.465 18.2828 205.516 18.385C206.57 18.4873 207.622 18.6023 208.672 18.7288C209.72 18.8551 210.767 18.9933 211.813 19.1438H211.814C212.861 19.2932 213.906 19.4546 214.949 19.6282C215.992 19.8018 217.033 19.988 218.072 20.1858H218.071C219.11 20.3823 220.146 20.5901 221.179 20.8108H221.178C222.213 21.0313 223.244 21.2643 224.273 21.509H224.274C224.788 21.6308 225.301 21.7556 225.814 21.8831L227.351 22.2737L227.353 22.2747C228.375 22.5423 229.394 22.8211 230.41 23.1116H230.409C231.426 23.4009 232.44 23.7023 233.451 24.0159L234.962 24.4944C235.464 24.6564 235.966 24.8212 236.466 24.9885H236.467C237.471 25.3248 238.47 25.6718 239.464 26.0296L239.466 26.0305C240.458 26.3893 241.447 26.7587 242.432 27.1389H242.433C243.419 27.5183 244.402 27.9102 245.38 28.3137H245.381C245.869 28.5149 246.357 28.7191 246.843 28.926L248.299 29.5549V29.5559C249.266 29.9808 250.229 30.4161 251.188 30.8626L251.189 30.8635C252.147 31.31 253.099 31.7667 254.046 32.2346C254.994 32.703 255.938 33.1823 256.875 33.6721H256.874C257.343 33.917 257.81 34.1644 258.276 34.4143L259.669 35.1712L259.67 35.1721C260.132 35.4276 260.594 35.6851 261.053 35.9456L262.429 36.7356C263.343 37.267 264.251 37.8081 265.152 38.3596C266.053 38.9112 266.948 39.4735 267.838 40.0452H267.839C268.727 40.618 269.61 41.2006 270.485 41.7923C271.361 42.3841 272.23 42.9859 273.092 43.5979L274.381 44.5227C274.808 44.833 275.233 45.1459 275.657 45.4612L276.925 46.4153C277.346 46.7355 277.764 47.0582 278.18 47.3831H278.181C279.015 48.0338 279.841 48.6934 280.66 49.3616L280.661 49.3626C281.07 49.6967 281.477 50.0328 281.883 50.3714L283.093 51.3938L283.094 51.3948C283.897 52.082 284.692 52.778 285.479 53.4827C285.873 53.8353 286.266 54.1902 286.656 54.5471L287.82 55.6243L287.822 55.6253C288.592 56.3485 289.354 57.0796 290.108 57.8176C290.865 58.5581 291.613 59.3068 292.35 60.0647H292.349C293.088 60.8206 293.818 61.5852 294.539 62.3587C295.26 63.1322 295.972 63.9138 296.675 64.7034L296.676 64.7044C297.027 65.099 297.376 65.4955 297.723 65.8938L298.758 67.094L298.758 67.095C299.443 67.8993 300.119 68.712 300.786 69.5325L300.787 69.5335C301.446 70.3462 301.908 70.9212 302.164 71.2503C302.588 71.7971 302.49 72.5851 301.943 73.01C301.396 73.435 300.608 73.336 300.183 72.7893C299.946 72.4837 299.5 71.9275 298.84 71.1135V71.1126C298.185 70.3071 297.52 69.5096 296.848 68.72V68.719C296.175 67.929 295.492 67.1469 294.802 66.3714V66.3704C294.112 65.5951 293.412 64.828 292.704 64.0686C291.996 63.3092 291.28 62.558 290.554 61.8157L290.552 61.8147C289.829 61.0713 289.096 60.3359 288.354 59.6096C287.613 58.884 286.864 58.1655 286.106 57.4544V57.4553C285.348 56.7459 284.581 56.0451 283.807 55.3528L283.806 55.3518C283.034 54.66 282.254 53.9767 281.466 53.302L280.274 52.2962C279.876 51.9635 279.476 51.6333 279.074 51.3049V51.304C278.269 50.6473 277.457 49.9992 276.637 49.3596C276.229 49.0409 275.818 48.7245 275.406 48.4104L274.161 47.4739C273.329 46.8545 272.489 46.2444 271.642 45.6448L271.641 45.6438C270.795 45.0428 269.941 44.4516 269.081 43.8704C268.221 43.2891 267.354 42.7164 266.481 42.1536V42.1546C265.608 41.5929 264.728 41.0411 263.842 40.4993C262.957 39.9575 262.066 39.4255 261.169 38.9036V38.9026C260.27 38.3807 259.366 37.8695 258.457 37.3674V37.3665C258.003 37.1163 257.547 36.8695 257.09 36.6243L255.713 35.8948C254.793 35.414 253.867 34.9433 252.936 34.4837H252.935C252.47 34.2539 252.004 34.0265 251.537 33.802L250.13 33.136C249.187 32.6973 248.241 32.2694 247.291 31.8518V31.8508C246.34 31.4335 245.384 31.028 244.425 30.6331H244.424C243.465 30.2369 242.501 29.8521 241.533 29.4798H241.532C240.564 29.1059 239.591 28.7417 238.615 28.3889V28.3899C237.638 28.0384 236.656 27.6969 235.671 27.3665V27.3655C234.686 27.0365 233.698 26.7192 232.708 26.4114C231.716 26.1037 230.721 25.8076 229.722 25.5237H229.72C228.723 25.2385 227.723 24.9633 226.719 24.7005C225.714 24.4388 224.706 24.1887 223.696 23.9495H223.695C222.685 23.7091 221.672 23.4805 220.656 23.2639H220.655C219.641 23.0473 218.624 22.8425 217.604 22.6497H217.603C216.584 22.4555 215.561 22.2732 214.538 22.1028C213.514 21.9324 212.488 21.7738 211.461 21.6272H211.459C210.431 21.4793 209.401 21.3432 208.371 21.219C207.856 21.1569 207.34 21.0974 206.824 21.0413L205.274 20.8821C204.24 20.7816 203.206 20.6925 202.171 20.6145V20.6135C201.135 20.537 200.099 20.4724 199.062 20.4182C198.027 20.3641 196.989 20.3217 195.951 20.2913C194.914 20.2609 193.876 20.2422 192.838 20.2356H192.836C191.798 20.2277 190.76 20.2321 189.722 20.2493H189.72C188.684 20.2651 187.646 20.2917 186.608 20.3313L186.609 20.3323C185.571 20.3733 184.534 20.4261 183.498 20.4895H183.496C182.459 20.5516 181.424 20.626 180.39 20.7131C179.355 20.8004 178.322 20.8994 177.29 21.009C176.258 21.1187 175.226 21.2389 174.196 21.3723C173.167 21.5057 172.139 21.6517 171.113 21.8089L171.112 21.8098C170.086 21.9656 169.062 22.1338 168.04 22.3147H168.039C167.016 22.4944 165.995 22.6858 164.977 22.888L164.976 22.887C163.958 23.0903 162.943 23.3057 161.93 23.5315H161.928C160.916 23.7559 159.906 23.993 158.899 24.2424L158.897 24.2434C157.889 24.4918 156.884 24.7499 155.882 25.0208L155.883 25.0217C154.881 25.2939 153.881 25.5761 152.886 25.8694C152.388 26.0168 151.891 26.1679 151.394 26.3206L149.907 26.7864C148.919 27.102 147.934 27.4294 146.953 27.7688H146.952C146.461 27.9379 145.971 28.1097 145.482 28.2844L144.019 28.8176C143.047 29.1783 142.078 29.5498 141.112 29.9329L141.111 29.9339C140.147 30.3157 139.186 30.7083 138.229 31.1126C137.273 31.5167 136.322 31.9321 135.375 32.3587L135.374 32.3596C134.428 32.7849 133.487 33.2214 132.55 33.6692L132.549 33.6702C131.611 34.1167 130.679 34.5737 129.753 35.0413L129.752 35.0403C128.826 35.5092 127.905 35.989 126.988 36.4778C126.073 36.9665 125.163 37.466 124.259 37.9758H124.258C123.353 38.4859 122.454 39.0065 121.561 39.5364L121.56 39.5354C120.669 40.0651 119.782 40.605 118.901 41.1546C118.021 41.7043 117.147 42.2647 116.279 42.8342L116.278 42.8333C115.41 43.4039 114.55 43.9853 113.695 44.5745C112.84 45.1639 111.991 45.7624 111.149 46.3704C110.306 46.9791 109.542 47.5423 108.858 48.0608C108.306 48.4789 107.52 48.3705 107.102 47.8186C106.684 47.2666 106.792 46.48 107.344 46.0618C108.047 45.5297 108.826 44.9549 109.681 44.3372C110.538 43.7185 111.401 43.1089 112.271 42.509C113.141 41.9092 114.018 41.3186 114.902 40.7376H114.903C115.787 40.1578 116.677 39.5872 117.573 39.0276H117.574C118.471 38.4682 119.373 37.9184 120.281 37.3792H120.282C121.191 36.8399 122.106 36.3104 123.027 35.7913L124.412 35.0208C124.875 34.7663 125.34 34.514 125.806 34.2649H125.807C126.74 33.7675 127.678 33.2803 128.621 32.803L128.622 32.802C129.565 32.3256 130.515 31.8604 131.47 31.4055C131.947 31.1778 132.424 30.9528 132.903 30.7307L134.345 30.0715C135.31 29.6371 136.279 29.2145 137.253 28.803C138.227 28.3913 139.205 27.9906 140.187 27.6018L141.665 27.0257C142.158 26.8363 142.652 26.6497 143.147 26.4661H143.148C144.14 26.0988 145.135 25.7421 146.134 25.3977C147.134 25.052 148.137 24.7183 149.143 24.3967H149.144C150.151 24.0754 151.162 23.7649 152.175 23.4651H152.176C153.189 23.1665 154.206 22.8789 155.227 22.6018L155.228 22.6008C155.738 22.4629 156.249 22.3278 156.76 22.1956L158.298 21.8079C159.324 21.5537 160.353 21.3119 161.384 21.0833L162.934 20.7473C163.451 20.638 163.969 20.5316 164.488 20.428H164.489C165.524 20.2223 166.562 20.0278 167.602 19.845L169.168 19.5774L170.735 19.3294C171.78 19.1694 172.826 19.0218 173.874 18.886H173.875C174.924 18.7501 175.974 18.6266 177.025 18.5149C178.075 18.4033 179.127 18.3029 180.18 18.2141C181.234 18.1253 182.288 18.0498 183.344 17.9866C184.399 17.922 185.454 17.8681 186.509 17.8264H186.511C187.568 17.7861 188.625 17.7586 189.68 17.7424C190.738 17.7249 191.797 17.7197 192.855 17.7278Z" fill="#4353E9"/>
<path d="M328.189 65.9246C328.764 65.5381 329.544 65.6908 329.93 66.2654C330.3 66.8146 330.82 67.6151 331.489 68.6609L332.492 70.2449C332.823 70.7745 333.15 71.3063 333.474 71.8396C333.799 72.3727 334.121 72.9076 334.439 73.4441L335.386 75.0583L335.387 75.0603C336.012 76.1416 336.625 77.2302 337.225 78.325C337.826 79.4195 338.414 80.5207 338.99 81.6287V81.6296C339.565 82.7366 340.129 83.8507 340.679 84.9724H340.678C341.229 86.0929 341.767 87.2197 342.293 88.3523H342.294C342.821 89.4901 343.498 91.0117 344.327 92.9128C344.603 93.5477 344.313 94.2866 343.678 94.5632C343.044 94.8398 342.305 94.5495 342.028 93.9148C341.203 92.0214 340.533 90.5198 340.017 89.407V89.406C339.5 88.2911 338.971 87.1819 338.428 86.0789L338.427 86.0779C338.156 85.5256 337.882 84.9751 337.605 84.4265L336.764 82.7859C336.197 81.6943 335.617 80.6093 335.026 79.531C334.435 78.4525 333.831 77.3804 333.215 76.3152V76.3142C332.599 75.2506 331.971 74.1937 331.332 73.1433C330.693 72.0931 330.042 71.0501 329.378 70.0144L329.377 70.0134C328.71 68.9718 328.201 68.191 327.848 67.6658C327.462 67.0911 327.614 66.3111 328.189 65.9246Z" fill="#4353E9"/>
<path d="M322.004 256.648C322.423 256.097 323.21 255.99 323.761 256.409C324.312 256.829 324.419 257.616 323.999 258.167C323.088 259.364 322.242 260.452 321.462 261.43H321.461C321.071 261.918 320.679 262.404 320.284 262.887L319.092 264.329C318.291 265.289 317.478 266.237 316.656 267.176L316.657 267.177C315.835 268.117 315.002 269.046 314.158 269.966L314.159 269.967C313.317 270.889 312.462 271.8 311.599 272.701L311.6 272.702C310.736 273.605 309.861 274.497 308.977 275.378C308.092 276.261 307.198 277.134 306.294 277.995C305.39 278.858 304.477 279.709 303.554 280.55C303.092 280.971 302.628 281.389 302.162 281.804L300.757 283.041C300.286 283.452 299.813 283.859 299.338 284.264L297.905 285.469C296.945 286.268 295.975 287.057 294.997 287.833C294.019 288.61 293.033 289.376 292.039 290.129L292.038 290.128C291.043 290.883 290.04 291.628 289.028 292.36H289.027C288.522 292.725 288.014 293.088 287.504 293.449L285.967 294.52C284.939 295.228 283.903 295.925 282.859 296.61C281.816 297.295 280.764 297.969 279.704 298.631H279.703C278.645 299.292 277.579 299.941 276.506 300.579L276.505 300.58C275.43 301.217 274.349 301.842 273.263 302.454L273.262 302.453C272.173 303.067 271.078 303.669 269.977 304.256L269.976 304.255C268.875 304.843 267.767 305.418 266.653 305.981L266.654 305.982C265.54 306.546 264.419 307.097 263.291 307.635C262.164 308.172 261.031 308.698 259.893 309.211H259.891C258.752 309.723 257.608 310.222 256.458 310.708C255.308 311.195 254.152 311.667 252.991 312.126C252.411 312.357 251.829 312.584 251.246 312.808L249.493 313.469C248.323 313.903 247.147 314.324 245.966 314.731C244.785 315.138 243.6 315.532 242.411 315.912L242.41 315.911C241.816 316.102 241.221 316.29 240.625 316.474L238.83 317.014C237.633 317.367 236.432 317.707 235.228 318.033C234.022 318.36 232.813 318.673 231.6 318.973H231.599C230.387 319.271 229.172 319.555 227.952 319.826C226.733 320.099 225.511 320.359 224.285 320.602L224.284 320.601C223.061 320.845 221.834 321.076 220.604 321.292C219.375 321.509 218.143 321.712 216.908 321.9C215.674 322.088 214.438 322.262 213.199 322.423H213.198C211.961 322.583 210.721 322.73 209.479 322.863H209.478C208.237 322.994 206.994 323.112 205.75 323.217H205.749C204.505 323.32 203.26 323.411 202.014 323.488C200.767 323.564 199.519 323.626 198.271 323.674L198.271 323.675C197.023 323.722 195.775 323.756 194.527 323.776C193.279 323.796 192.029 323.801 190.779 323.791V323.79C189.532 323.782 188.284 323.761 187.035 323.725C185.787 323.689 184.538 323.637 183.291 323.572V323.571C182.045 323.506 180.799 323.429 179.554 323.336H179.553C178.308 323.242 177.064 323.135 175.821 323.014C174.579 322.893 173.338 322.758 172.098 322.609C170.858 322.46 169.619 322.296 168.383 322.118C167.147 321.941 165.913 321.751 164.682 321.547L164.681 321.546C163.449 321.341 162.22 321.122 160.994 320.89L160.992 320.889C159.766 320.655 158.542 320.408 157.321 320.148C156.099 319.887 154.88 319.613 153.666 319.325H153.665C152.451 319.037 151.24 318.735 150.031 318.421H150.03C148.823 318.105 147.618 317.776 146.417 317.434C145.216 317.091 144.019 316.733 142.826 316.363V316.364C141.635 315.994 140.446 315.611 139.262 315.215L139.261 315.214C138.077 314.818 136.898 314.409 135.723 313.986H135.722C134.547 313.562 133.378 313.125 132.213 312.675V312.674C131.047 312.224 129.887 311.763 128.733 311.287C127.58 310.812 126.431 310.323 125.288 309.821L123.575 309.058L121.873 308.276C120.741 307.748 119.615 307.209 118.496 306.657L118.495 306.656C117.376 306.102 116.264 305.537 115.157 304.959L115.156 304.958C114.049 304.379 112.949 303.789 111.855 303.186C110.762 302.583 109.676 301.966 108.598 301.339V301.34C107.517 300.713 106.444 300.073 105.379 299.421C104.313 298.769 103.256 298.106 102.206 297.43V297.429C101.156 296.753 100.113 296.066 99.0781 295.366V295.365C98.0439 294.667 97.0172 293.956 95.999 293.234C94.9809 292.511 93.9707 291.777 92.9687 291.032C91.9667 290.286 90.9729 289.53 89.9883 288.763L89.9873 288.762C89.0027 287.994 88.0266 287.215 87.0596 286.425C86.0922 285.635 85.1342 284.834 84.1855 284.023V284.022C83.236 283.211 82.2959 282.389 81.3652 281.556C80.4327 280.722 79.2586 279.642 77.8457 278.319C77.3404 277.845 77.3147 277.052 77.7881 276.546C78.2615 276.041 79.0551 276.015 79.5605 276.489C80.9661 277.805 82.1244 278.87 83.0371 279.687C83.954 280.507 84.88 281.317 85.8154 282.116H85.8164C86.7504 282.916 87.6939 283.704 88.6465 284.482C89.5992 285.26 90.5604 286.028 91.5303 286.784H91.5293C92.4993 287.54 93.4786 288.285 94.4658 289.02C95.4529 289.754 96.4483 290.477 97.4512 291.189C97.9525 291.545 98.4557 291.897 98.9609 292.247L100.483 293.288V293.289C101.502 293.979 102.529 294.655 103.563 295.321L103.564 295.322C104.597 295.987 105.639 296.64 106.687 297.282C107.212 297.602 107.738 297.921 108.267 298.236L109.857 299.171C110.92 299.789 111.989 300.395 113.066 300.99C114.143 301.583 115.227 302.166 116.316 302.736C117.406 303.304 118.503 303.861 119.605 304.407C120.708 304.95 121.817 305.483 122.933 306.003H122.934C124.047 306.523 125.167 307.029 126.294 307.523L126.296 307.524C127.421 308.018 128.552 308.5 129.688 308.968C130.825 309.436 131.968 309.892 133.116 310.335L133.117 310.336C134.264 310.779 135.415 311.209 136.571 311.625C137.729 312.042 138.892 312.446 140.058 312.836C141.225 313.227 142.395 313.604 143.568 313.968H143.569C144.744 314.333 145.923 314.684 147.105 315.022C148.288 315.359 149.473 315.683 150.662 315.993C151.854 316.303 153.048 316.6 154.245 316.885H154.244C155.44 317.168 156.641 317.438 157.845 317.695V317.696C159.047 317.952 160.252 318.195 161.46 318.425C162.668 318.654 163.88 318.87 165.094 319.073H165.093C166.306 319.274 167.522 319.461 168.739 319.636C169.956 319.811 171.175 319.972 172.396 320.118C173.618 320.265 174.841 320.399 176.064 320.518C177.289 320.637 178.514 320.743 179.741 320.835H179.74C180.967 320.927 182.194 321.004 183.422 321.068H183.423C184.65 321.132 185.879 321.182 187.107 321.218C188.338 321.254 189.568 321.276 190.797 321.283H190.799C192.029 321.293 193.259 321.288 194.487 321.268C195.716 321.248 196.946 321.215 198.175 321.168L200.018 321.086C200.632 321.055 201.246 321.021 201.86 320.984C203.088 320.908 204.315 320.82 205.54 320.718L207.377 320.553C207.989 320.495 208.601 320.433 209.212 320.368L211.046 320.162C211.656 320.09 212.266 320.014 212.875 319.936C214.095 319.777 215.314 319.605 216.53 319.42C217.746 319.235 218.959 319.036 220.17 318.823L221.985 318.492C222.59 318.379 223.193 318.262 223.796 318.142H223.797C225.003 317.903 226.206 317.649 227.405 317.38L227.407 317.379C228.608 317.112 229.806 316.831 230.999 316.537C232.194 316.242 233.385 315.935 234.571 315.614C235.758 315.292 236.941 314.957 238.12 314.609C239.3 314.261 240.476 313.899 241.646 313.524L241.647 313.523C242.818 313.148 243.985 312.761 245.148 312.36C246.311 311.959 247.469 311.545 248.621 311.117H248.622C249.775 310.69 250.924 310.25 252.066 309.796L252.067 309.795C253.21 309.343 254.348 308.878 255.48 308.399C256.613 307.92 257.74 307.428 258.862 306.924L260.541 306.157C261.099 305.898 261.657 305.636 262.212 305.371C263.321 304.842 264.424 304.3 265.521 303.744H265.522C266.62 303.19 267.711 302.623 268.796 302.043H268.798C269.882 301.465 270.96 300.874 272.031 300.27V300.269C272.567 299.967 273.1 299.662 273.633 299.355L275.226 298.423C276.283 297.795 277.332 297.155 278.375 296.504L279.935 295.517C280.453 295.185 280.969 294.85 281.483 294.513C281.997 294.176 282.509 293.835 283.02 293.492L284.544 292.454C285.557 291.756 286.562 291.047 287.558 290.327C288.554 289.606 289.543 288.874 290.523 288.13C291.503 287.388 292.474 286.634 293.438 285.869C294.401 285.105 295.355 284.328 296.301 283.541C297.245 282.755 298.182 281.959 299.109 281.151L299.11 281.15C300.038 280.343 300.955 279.525 301.864 278.697C302.773 277.868 303.673 277.029 304.563 276.18L304.564 276.179C305.455 275.331 306.335 274.473 307.205 273.604H307.206C308.076 272.736 308.937 271.858 309.787 270.969L309.788 270.968C310.639 270.081 311.478 269.183 312.308 268.276L312.309 268.274C313.139 267.368 313.96 266.452 314.77 265.526L315.976 264.131C316.375 263.664 316.773 263.194 317.167 262.722V262.721C317.956 261.777 318.733 260.825 319.501 259.865C320.267 258.904 321.102 257.832 322.004 256.648Z" fill="#4353E9"/>
<path d="M73.0386 42.5144C73.5176 42.0142 74.3118 41.9973 74.8121 42.4763C75.3119 42.9553 75.329 43.7487 74.8502 44.2488C73.4412 45.7203 72.3239 46.9075 71.4957 47.8123L71.4947 47.8132C70.6641 48.7192 69.8442 49.6354 69.0347 50.5613H69.0337C68.2243 51.4858 67.4256 52.4206 66.6373 53.365L66.6363 53.366C65.8481 54.3089 65.071 55.261 64.3052 56.2224L64.3043 56.2244C63.5372 57.1845 62.7813 58.1539 62.0367 59.1326L62.0357 59.1345C61.2898 60.1119 60.5557 61.098 59.8335 62.0925C59.1111 63.0875 58.3997 64.0904 57.6998 65.1013L57.6988 65.1023C56.9979 66.1127 56.3091 67.1308 55.6334 68.157V68.158C55.2946 68.6714 54.9584 69.1868 54.6255 69.7039L53.6363 71.2605C52.9814 72.303 52.3392 73.3523 51.7095 74.408C51.0798 75.4637 50.462 76.527 49.856 77.5974C49.2502 78.6675 48.6548 79.7436 48.0728 80.8269L48.0738 80.8279C47.4925 81.9122 46.9226 83.0031 46.3638 84.0994C45.8071 85.1957 45.2626 86.2978 44.731 87.406C44.1991 88.5148 43.6802 89.63 43.1734 90.7507C42.6666 91.8715 42.1717 92.9973 41.69 94.1287C41.2085 95.2597 40.7401 96.3969 40.2837 97.5398C39.8285 98.6818 39.3857 99.8295 38.9556 100.982C38.5256 102.135 38.1082 103.291 37.7046 104.453C37.3009 105.615 36.9104 106.782 36.5318 107.952L36.5308 107.951C36.1538 109.122 35.7905 110.297 35.44 111.475C35.2647 112.065 35.0931 112.655 34.9244 113.247L34.4283 115.024C34.1043 116.209 33.7922 117.398 33.4947 118.591L33.4957 118.592C33.1993 119.785 32.916 120.982 32.646 122.182L32.6451 122.184C32.374 123.384 32.1175 124.586 31.8755 125.791V125.792C31.6321 126.997 31.4027 128.205 31.1871 129.416C30.9714 130.626 30.7695 131.84 30.5816 133.055V133.056C30.3925 134.27 30.2182 135.487 30.0582 136.707C29.898 137.927 29.7504 139.149 29.6168 140.372C29.4832 141.594 29.3648 142.817 29.2603 144.042L29.2593 144.044C29.1535 145.269 29.062 146.495 28.9839 147.721C28.9059 148.949 28.8418 150.178 28.7916 151.407C28.7426 152.636 28.7066 153.865 28.6841 155.094C28.6616 156.323 28.6535 157.553 28.6587 158.783L28.6783 160.628C28.6882 161.243 28.7018 161.858 28.7183 162.473L28.7779 164.317C28.8014 164.931 28.8285 165.546 28.8589 166.16C28.8893 166.773 28.9238 167.387 28.9615 168L29.0855 169.84V169.842C29.1741 171.069 29.2767 172.296 29.3931 173.519C29.5095 174.743 29.6396 175.965 29.7837 177.186C29.928 178.409 30.0864 179.629 30.2584 180.846C30.4303 182.064 30.6156 183.279 30.814 184.494L31.1236 186.312C31.2301 186.918 31.3395 187.523 31.4527 188.127C31.6789 189.336 31.9194 190.542 32.1734 191.745L32.565 193.548L32.9771 195.346V195.347C33.2576 196.545 33.5517 197.739 33.8599 198.929C34.1682 200.12 34.49 201.307 34.8248 202.49C35.1595 203.673 35.5075 204.853 35.8687 206.029C36.2298 207.204 36.6048 208.374 36.9937 209.541L36.9947 209.543C37.3823 210.709 37.7828 211.872 38.1968 213.031C38.6109 214.189 39.0385 215.342 39.4791 216.49C39.9197 217.639 40.3736 218.783 40.8394 219.921C41.305 221.058 41.7838 222.191 42.2759 223.318C42.7682 224.446 43.2726 225.567 43.7886 226.682L44.5738 228.352C44.8387 228.907 45.1063 229.461 45.3775 230.012C45.92 231.116 46.4743 232.214 47.0406 233.305L47.9019 234.938C48.1916 235.481 48.4842 236.021 48.7798 236.56C49.3712 237.638 49.9743 238.71 50.5894 239.773C51.206 240.838 51.8341 241.896 52.4732 242.947L53.4419 244.517C53.7678 245.039 54.0968 245.558 54.4283 246.075V246.076C54.7597 246.594 55.0948 247.11 55.4322 247.624L56.4527 249.159V249.16C57.1393 250.181 57.8374 251.194 58.5464 252.198C59.2557 253.202 59.9768 254.199 60.7085 255.187C61.4401 256.175 62.1821 257.156 62.9361 258.129H62.9371C63.6934 259.103 64.3407 259.921 64.8794 260.583C65.3161 261.12 65.2349 261.91 64.6978 262.346C64.1606 262.783 63.3702 262.702 62.9332 262.165C62.3787 261.483 61.719 260.65 60.9556 259.667V259.666C60.1899 258.678 59.4358 257.683 58.6929 256.679C57.95 255.676 57.2177 254.665 56.4976 253.645C55.7774 252.625 55.069 251.597 54.3716 250.559V250.558C53.6745 249.523 52.9889 248.479 52.316 247.427V247.427C51.6433 246.376 50.9815 245.319 50.3316 244.253L50.3306 244.252C49.6819 243.185 49.0453 242.111 48.4195 241.03L48.4185 241.029C47.7938 239.949 47.1811 238.861 46.5806 237.766C45.9803 236.672 45.3921 235.571 44.816 234.463L44.815 234.461C44.2403 233.353 43.6781 232.239 43.1275 231.119C42.5766 229.998 42.0376 228.871 41.5123 227.737V227.736C40.9885 226.604 40.4767 225.465 39.9771 224.321C39.4773 223.176 38.991 222.026 38.5181 220.871C38.0453 219.716 37.5846 218.554 37.1373 217.388C36.9135 216.805 36.6931 216.221 36.4761 215.635L35.8355 213.876C35.4151 212.699 35.0083 211.518 34.6148 210.334L34.0328 208.553C33.8423 207.959 33.6557 207.363 33.4722 206.766L33.4712 206.765C33.1046 205.571 32.7515 204.374 32.4117 203.174C32.0718 201.973 31.7452 200.767 31.4322 199.558C31.1192 198.349 30.8205 197.136 30.5357 195.921C30.2495 194.705 29.9773 193.485 29.7193 192.262C29.4613 191.041 29.2176 189.817 28.9878 188.589C28.7582 187.362 28.5422 186.133 28.3394 184.901L28.3384 184.9C28.137 183.667 27.9496 182.433 27.775 181.197C27.6003 179.961 27.44 178.722 27.2935 177.48C27.1471 176.24 27.0143 174.999 26.896 173.757C26.7779 172.514 26.6735 171.27 26.5835 170.023L26.4576 168.154C26.4193 167.531 26.385 166.907 26.3541 166.284C26.2923 165.037 26.2441 163.79 26.2105 162.542C26.1769 161.293 26.1567 160.044 26.15 158.797V158.795C26.1446 157.545 26.1535 156.297 26.1763 155.049C26.1992 153.801 26.236 152.553 26.2857 151.305V151.304C26.3367 150.056 26.4017 148.809 26.481 147.562C26.5603 146.317 26.6538 145.072 26.7613 143.828C26.8674 142.584 26.9879 141.341 27.1236 140.099C27.2592 138.858 27.4084 137.619 27.5709 136.381C27.7335 135.141 27.9109 133.905 28.1031 132.671C28.2938 131.436 28.4994 130.204 28.7183 128.975C28.9372 127.746 29.1695 126.52 29.4166 125.297C29.6625 124.072 29.9233 122.851 30.1988 121.632C30.4728 120.413 30.7603 119.198 31.0611 117.987L31.0621 117.986C31.3643 116.774 31.6792 115.567 32.0084 114.363L32.5123 112.558C32.6835 111.958 32.8587 111.359 33.0367 110.76C33.3927 109.564 33.7622 108.37 34.1451 107.181V107.179C34.5292 105.992 34.9259 104.809 35.3355 103.63C35.7453 102.45 36.1694 101.275 36.606 100.105C37.0426 98.9353 37.4916 97.7703 37.9537 96.6111V96.6101C38.4171 95.4495 38.8934 94.2948 39.3824 93.1462C39.8713 91.9977 40.3738 90.8543 40.8882 89.7165C41.4027 88.5788 41.9293 87.4467 42.4693 86.321C43.0094 85.1952 43.5629 84.0754 44.1285 82.9617L44.1294 82.9597C44.6959 81.8483 45.2736 80.7427 45.8628 79.6433L45.8638 79.6423C46.4549 78.5422 47.0582 77.4488 47.6734 76.3621C48.2887 75.2752 48.9157 74.195 49.5552 73.1228C50.1948 72.0506 50.8472 70.9852 51.5123 69.9265C52.1759 68.8693 52.8518 67.8195 53.5396 66.7771C54.2263 65.7343 54.926 64.6993 55.6382 63.6726C56.3486 62.6467 57.0701 61.6287 57.8033 60.6189C58.5371 59.6082 59.2835 58.6063 60.0416 57.613C60.7978 56.619 61.5652 55.6342 62.3443 54.6589C63.122 53.6825 63.911 52.7152 64.7115 51.7576C65.5122 50.7983 66.3238 49.8491 67.146 48.9099C67.9685 47.9692 68.802 47.0385 69.646 46.1179C70.4923 45.1935 71.6241 43.9917 73.0386 42.5144Z" fill="#4353E9"/>
<path d="M128.571 4.8601C129.209 4.59037 129.945 4.88929 130.215 5.52709C130.484 6.1648 130.186 6.90078 129.549 7.17065C127.595 7.99703 126.061 8.66124 124.943 9.16479H124.942C123.821 9.66899 122.706 10.1862 121.596 10.7156C120.486 11.2447 119.382 11.787 118.284 12.3425H118.283C117.186 12.8969 116.095 13.4642 115.011 14.0437C113.926 14.6233 112.847 15.2147 111.775 15.8181C111.239 16.1198 110.705 16.4245 110.173 16.7322L108.582 17.6638C107.523 18.2923 106.472 18.9308 105.43 19.5818L105.431 19.5828C104.388 20.2352 103.352 20.8991 102.324 21.574C101.296 22.2489 100.274 22.9351 99.2606 23.6326C98.2485 24.3311 97.2441 25.0398 96.2479 25.7595C95.2488 26.4817 94.366 27.1343 93.5985 27.7175C93.0471 28.1365 92.2607 28.0294 91.8416 27.4783C91.4227 26.9269 91.5297 26.1405 92.0809 25.7214C92.8679 25.1234 93.7678 24.4583 94.7791 23.7273L96.3026 22.6394C96.8122 22.2795 97.324 21.9217 97.8377 21.5671L97.8387 21.5662C98.8674 20.8584 99.9036 20.1622 100.947 19.4773C101.991 18.7924 103.042 18.1189 104.1 17.4568L104.101 17.4558C105.16 16.7949 106.227 16.1456 107.302 15.5076V15.5066C108.375 14.8697 109.457 14.2452 110.545 13.6326C111.633 13.0201 112.727 12.4191 113.829 11.8308C114.93 11.2425 116.038 10.667 117.151 10.1042C118.267 9.5398 119.389 8.98948 120.516 8.4519C121.643 7.91463 122.775 7.38942 123.913 6.87768L124.847 6.46264C125.859 6.01718 127.1 5.48223 128.571 4.8601Z" fill="#4353E9"/>
<path d="M251.765 4.79396C252.029 4.15371 252.761 3.84855 253.402 4.11232C255.099 4.81203 256.485 5.39143 257.556 5.84962L258.522 6.26661L258.523 6.26759C259.665 6.76982 260.802 7.28478 261.933 7.81251L263.627 8.61329C264.19 8.88346 264.752 9.15673 265.312 9.43361L266.986 10.2725C267.543 10.5553 268.098 10.841 268.651 11.1299L270.306 12.0059C270.856 12.3011 271.404 12.5997 271.951 12.9014C272.498 13.203 273.044 13.5078 273.587 13.8154L275.212 14.7471L275.213 14.7481C276.291 15.3765 277.363 16.0167 278.428 16.668C278.961 16.9938 279.492 17.3225 280.021 17.6543L281.603 18.6592L283.171 19.6817C283.692 20.0257 284.211 20.3726 284.729 20.7227H284.728C285.762 21.4212 286.789 22.1318 287.809 22.8545H287.81C288.828 23.5774 289.838 24.3119 290.839 25.0576H290.838C291.84 25.8031 292.834 26.5592 293.818 27.3262L293.819 27.3272C294.804 28.0952 295.779 28.8736 296.746 29.6631C297.714 30.452 298.673 31.2534 299.623 32.0664L301.039 33.292C301.509 33.703 301.977 34.1168 302.443 34.5332H302.442C303.371 35.365 304.293 36.208 305.205 37.0625L306.565 38.3496C307.015 38.7814 307.463 39.2161 307.909 39.6533L309.24 40.9717C309.681 41.4135 310.119 41.8585 310.555 42.3057H310.556C311.428 43.1991 312.289 44.1031 313.141 45.0166C313.993 45.9302 314.834 46.8528 315.664 47.7852L316.903 49.1904C317.313 49.6612 317.72 50.1349 318.124 50.6104C318.934 51.5616 319.733 52.5216 320.521 53.4902C321.3 54.4491 321.815 55.0884 322.054 55.3955C322.479 55.9421 322.381 56.73 321.834 57.1553C321.288 57.5805 320.5 57.4821 320.074 56.9356C319.855 56.6533 319.359 56.0359 318.575 55.0723C317.8 54.1184 317.013 53.173 316.215 52.2363V52.2354C315.419 51.2989 314.611 50.372 313.792 49.4541L313.791 49.4531C312.974 48.5351 312.146 47.6262 311.307 46.7266C310.468 45.827 309.619 44.9374 308.761 44.0576L308.76 44.0567C308.331 43.6162 307.899 43.1783 307.465 42.7432L306.154 41.4453C305.276 40.584 304.387 39.7327 303.49 38.8926C302.592 38.0512 301.685 37.2212 300.77 36.4024C299.853 35.5819 298.927 34.772 297.992 33.9727C297.057 33.1724 296.114 32.3838 295.161 31.6074L295.16 31.6065C294.208 30.8287 293.247 30.0613 292.277 29.3047L290.816 28.1797C290.326 27.8072 289.835 27.4365 289.342 27.0693H289.341C288.848 26.7022 288.353 26.3381 287.856 25.9766L286.359 24.9004C285.354 24.1886 284.343 23.4887 283.324 22.8008L283.323 22.7998C282.305 22.1105 281.279 21.4331 280.245 20.7676C279.211 20.1022 278.168 19.4493 277.119 18.8076C276.07 18.1656 275.013 17.5346 273.95 16.9151V16.9141C272.887 16.2965 271.817 15.6914 270.74 15.0977C269.663 14.5037 268.58 13.9224 267.489 13.3535V13.3526C266.945 13.0682 266.399 12.7872 265.851 12.5088L264.2 11.6817C263.099 11.1368 261.99 10.6053 260.875 10.0869L260.873 10.086C259.76 9.56617 258.64 9.05816 257.515 8.56349V8.56447C256.393 8.0729 254.706 7.36181 252.446 6.43068C251.806 6.1668 251.501 5.43423 251.765 4.79396Z" fill="#4353E9"/>
<path d="M344.567 52.8755C345.142 52.4889 345.921 52.6409 346.308 53.2153C346.432 53.3996 346.62 53.6866 346.872 54.0747L347.815 55.5415L348.945 57.3286L350.057 59.1294C350.789 60.3331 351.508 61.546 352.214 62.7671H352.215C352.922 63.9888 353.615 65.2181 354.293 66.4546C354.973 67.6949 355.895 69.4351 357.057 71.6714C357.376 72.286 357.136 73.0436 356.521 73.3628C355.907 73.6818 355.15 73.442 354.831 72.8277C353.673 70.5973 352.76 68.8764 352.094 67.6607C351.425 66.4412 350.742 65.2288 350.044 64.0239V64.023C349.347 62.8179 348.637 61.621 347.914 60.4331C347.19 59.2441 346.452 58.0645 345.703 56.8941C344.946 55.7117 344.457 54.9566 344.227 54.6157C343.841 54.0412 343.993 53.2622 344.567 52.8755Z" fill="#4353E9"/>
<path d="M339.059 265.777C339.466 265.217 340.251 265.092 340.811 265.499C341.372 265.906 341.496 266.689 341.09 267.25C340.609 267.912 339.941 268.802 339.09 269.92C338.236 271.042 337.369 272.156 336.488 273.259L336.487 273.258C335.608 274.361 334.717 275.454 333.812 276.536C332.908 277.617 331.991 278.688 331.062 279.75C330.135 280.812 329.194 281.863 328.241 282.903C327.289 283.943 326.326 284.974 325.35 285.993H325.349C324.374 287.01 323.387 288.017 322.389 289.014V289.015C321.39 290.011 320.4 290.977 319.418 291.913C318.917 292.391 318.123 292.372 317.645 291.871C317.167 291.37 317.186 290.575 317.687 290.097C318.655 289.175 319.631 288.223 320.616 287.24C321.602 286.256 322.576 285.262 323.539 284.258C324.502 283.253 325.453 282.237 326.391 281.211H326.392C327.332 280.185 328.26 279.148 329.175 278.1V278.099C330.091 277.052 330.996 275.994 331.889 274.927C332.781 273.86 333.661 272.782 334.528 271.694L334.529 271.692C335.398 270.605 336.253 269.509 337.095 268.402L337.096 268.401C337.942 267.29 338.596 266.416 339.059 265.777Z" fill="#4353E9"/>
<path d="M287.709 313.328C288.296 312.961 289.07 313.139 289.437 313.726C289.804 314.314 289.625 315.088 289.038 315.455C288.033 316.083 286.925 316.757 285.714 317.475L285.713 317.476C284.5 318.196 283.28 318.901 282.052 319.594L282.051 319.594C280.822 320.287 279.586 320.965 278.343 321.63H278.342C277.096 322.295 275.735 323.001 274.257 323.747C273.639 324.059 272.885 323.811 272.572 323.193C272.26 322.575 272.508 321.821 273.126 321.509C274.589 320.77 275.934 320.072 277.16 319.418L278.995 318.424C279.605 318.089 280.213 317.751 280.819 317.409C282.031 316.725 283.236 316.029 284.434 315.319L286.151 314.289C286.696 313.957 287.216 313.636 287.709 313.328Z" fill="#4353E9"/>
<path d="M62.2988 291.517C62.7717 291.011 63.5653 290.985 64.0713 291.458C64.9784 292.305 65.9505 293.194 66.9883 294.123C67.5068 294.586 68.0279 295.047 68.5517 295.505L70.1318 296.871C71.1881 297.775 72.2555 298.667 73.333 299.547C74.411 300.427 75.4997 301.294 76.5976 302.15L76.5986 302.151C77.6948 303.006 78.8009 303.85 79.917 304.681C81.0334 305.512 82.1599 306.329 83.2949 307.134C83.8624 307.537 84.4318 307.937 85.0039 308.333L86.7265 309.51L86.7275 309.511C87.3033 309.901 87.8815 310.288 88.4619 310.67L90.2109 311.808L90.2119 311.809C91.3824 312.563 92.5607 313.302 93.747 314.028H93.748C94.9307 314.753 96.5179 315.694 98.5127 316.853C99.1115 317.201 99.3147 317.969 98.9668 318.568C98.6188 319.166 97.8516 319.37 97.2529 319.022C95.2507 317.859 93.645 316.906 92.4385 316.167C91.2359 315.431 90.0409 314.682 88.8545 313.918V313.917C87.6682 313.155 86.4908 312.38 85.3232 311.589L83.5762 310.395C82.9961 309.994 82.4181 309.588 81.8428 309.18C80.6927 308.364 79.5522 307.535 78.4209 306.694L78.4199 306.693C77.8542 306.271 77.2911 305.847 76.7304 305.419L75.0556 304.128C73.9431 303.262 72.8404 302.383 71.748 301.492L71.7471 301.491C70.6546 300.598 69.5729 299.694 68.5019 298.777L66.9013 297.393C66.3707 296.929 65.8427 296.462 65.3174 295.993L65.3164 295.992C64.2665 295.052 63.2803 294.151 62.3584 293.29C61.8526 292.817 61.8261 292.023 62.2988 291.517Z" fill="#4353E9"/>
<path d="M26.4811 244.748C27.0882 244.415 27.851 244.637 28.1842 245.244C28.8839 246.519 29.5815 247.759 30.2779 248.964L31.3326 250.764C31.6873 251.362 32.0455 251.958 32.4068 252.553C32.7691 253.147 33.1347 253.739 33.5035 254.329L34.6207 256.093V256.094C35.37 257.265 36.1336 258.428 36.9107 259.583L36.9117 259.584C37.6876 260.738 38.4765 261.884 39.2789 263.02C40.0813 264.156 40.8967 265.283 41.7242 266.402L42.9762 268.072C43.3969 268.627 43.821 269.178 44.2477 269.728C45.1003 270.827 45.9647 271.918 46.8424 272.998C47.7225 274.08 48.4922 275.007 49.15 275.781C49.5986 276.309 49.5341 277.1 49.0065 277.549C48.4788 277.997 47.6874 277.934 47.2389 277.406C46.5661 276.615 45.7858 275.672 44.8981 274.581L44.8971 274.58C44.0073 273.485 43.1305 272.38 42.2662 271.266C41.402 270.153 40.5497 269.029 39.7096 267.896L39.7086 267.895C38.8698 266.761 38.0434 265.618 37.2301 264.467C36.4166 263.315 35.6163 262.154 34.8297 260.983V260.982C34.0419 259.812 33.2681 258.633 32.5084 257.445C31.7476 256.258 31.0002 255.062 30.2662 253.858L30.2652 253.857C29.5325 252.652 28.8129 251.439 28.107 250.219V250.219C27.4009 248.997 26.6932 247.741 25.985 246.451C25.6517 245.844 25.8739 245.081 26.4811 244.748Z" fill="#4353E9"/>
<path d="M6.81961 187.705C7.50027 187.577 8.15566 188.025 8.28348 188.706C8.76958 191.295 9.1553 193.265 9.44168 194.622C9.72908 195.984 10.032 197.342 10.3499 198.697C10.5088 199.375 10.6716 200.051 10.8382 200.727L11.3489 202.75L11.6458 203.876C11.9795 205.121 12.4243 206.722 12.9798 208.684C13.1685 209.35 12.7809 210.044 12.1145 210.232C11.4483 210.421 10.7554 210.033 10.5667 209.367C9.82481 206.748 9.27558 204.75 8.92118 203.378L8.40262 201.327C8.2338 200.642 8.06958 199.956 7.90848 199.27C7.58639 197.897 7.27979 196.52 6.98856 195.141C6.69629 193.756 6.30581 191.764 5.81864 189.169C5.69084 188.488 6.13897 187.833 6.81961 187.705Z" fill="#4353E9"/>
<path d="M21.2056 75.8684C21.5053 75.2443 22.2543 74.9811 22.8785 75.2805C23.5028 75.5803 23.7661 76.33 23.4663 76.9543C22.9875 77.9517 22.4614 79.0847 21.8872 80.3538C21.3139 81.6223 20.7531 82.8959 20.2076 84.175C19.6633 85.4556 19.1338 86.7429 18.6187 88.0354V88.0364C18.1024 89.3285 17.6007 90.6268 17.1148 91.9309V91.9319C16.6288 93.2348 16.1576 94.5438 15.7007 95.8586V95.8596C15.2438 97.1733 14.8013 98.4923 14.3736 99.8166C13.9472 101.141 13.5355 102.47 13.1382 103.804C12.7424 105.132 12.1899 107.094 11.48 109.694C11.2976 110.362 10.608 110.756 9.93998 110.573C9.272 110.391 8.87792 109.701 9.06009 109.033C9.77144 106.428 10.3297 104.444 10.7339 103.087C11.1365 101.736 11.5547 100.389 11.9869 99.0471V99.0461C12.4204 97.7039 12.8685 96.3669 13.3316 95.0354L14.0376 93.0413C14.2766 92.3778 14.5188 91.7154 14.7652 91.0549C15.2579 89.7326 15.766 88.4159 16.2896 87.1057C16.8116 85.796 17.3484 84.4922 17.8999 83.1946L17.9009 83.1936C18.4537 81.8974 19.0201 80.606 19.6011 79.3205L20.438 77.4954C20.7053 76.9201 20.9611 76.3776 21.2056 75.8684Z" fill="#4353E9"/>
<path d="M57.2786 24.6257C57.7689 24.1366 58.5629 24.1375 59.0521 24.6277C59.5412 25.118 59.5403 25.912 59.0501 26.4011C58.5068 26.9432 57.7525 27.7168 56.7855 28.7263C55.8228 29.7314 54.8712 30.7469 53.931 31.7732C53.4615 32.2864 52.9955 32.8029 52.5316 33.3211L51.1478 34.8836C50.2315 35.9309 49.3273 36.9889 48.4349 38.0574C47.9892 38.5912 47.5459 39.127 47.1058 39.6658L45.7943 41.2898C44.9269 42.3771 44.0715 43.4746 43.2279 44.5818L43.2269 44.5808C42.3847 45.6879 41.5551 46.8048 40.7367 47.9304C39.9186 49.0556 39.1002 50.2104 38.2816 51.3933C37.8874 51.9627 37.1059 52.1048 36.5365 51.7107C35.9671 51.3166 35.825 50.535 36.2191 49.9656C37.0484 48.7672 37.8784 47.5972 38.7083 46.4558C39.5376 45.3152 40.3793 44.1841 41.2327 43.0623V43.0613C42.0877 41.9392 42.9552 40.8273 43.8343 39.7253V39.7244C44.7146 38.6227 45.607 37.5315 46.5101 36.45C47.4148 35.3668 48.3313 34.2939 49.2601 33.2322L49.2611 33.2312C50.1897 32.1711 51.13 31.1208 52.0814 30.0808L53.5199 28.5281C54.002 28.0134 54.4871 27.5013 54.9749 26.992C55.9465 25.9776 56.7153 25.1877 57.2786 24.6257Z" fill="#4353E9"/>
<path d="M82.9796 3.00026C83.5493 2.60649 84.3309 2.74888 84.7247 3.31861C85.1183 3.88833 84.975 4.66904 84.4054 5.06276C83.89 5.41895 83.0678 6.00511 81.9327 6.82447C80.8084 7.63833 79.4355 8.66008 77.8126 9.89088C77.2609 10.3092 76.4743 10.2012 76.0558 9.64967C75.6373 9.09785 75.7452 8.31035 76.297 7.89186C77.9293 6.65392 79.3192 5.61988 80.464 4.79127L80.4649 4.79029C81.6014 3.96997 82.4416 3.37206 82.9796 3.00026Z" fill="#4353E9"/>
<path d="M296.022 3.59986C296.423 3.03516 297.206 2.90234 297.77 3.30298C299.39 4.45155 300.767 5.4484 301.901 6.29322L303.592 7.56568C304.153 7.99277 304.711 8.42324 305.267 8.85669C306.38 9.72387 307.483 10.603 308.574 11.4944L310.206 12.842L311.821 14.2083L311.822 14.2092C312.893 15.1257 313.954 16.0538 315.005 16.9944L316.573 18.4143C317.093 18.8905 317.611 19.3693 318.126 19.8518L319.662 21.3059L321.182 22.7776L321.184 22.7786C322.19 23.7661 323.185 24.7647 324.17 25.7737C325.155 26.7831 326.129 27.8039 327.09 28.8362L328.524 30.3909C329 30.9122 329.472 31.4362 329.941 31.9631L331.34 33.5501C331.803 34.0815 332.263 34.6158 332.72 35.1526L332.721 35.1536C333.634 36.2284 334.535 37.3128 335.424 38.4065L336.836 40.1672C337.332 40.7935 337.853 41.459 338.399 42.1633C338.824 42.7105 338.725 43.4976 338.178 43.9221C337.63 44.3465 336.842 44.2475 336.418 43.7004C335.334 42.3035 334.355 41.066 333.478 39.9885H333.477C332.601 38.9091 331.711 37.8385 330.809 36.7776C329.908 35.7185 328.995 34.67 328.069 33.6321L328.068 33.6311C327.143 32.5919 326.205 31.5639 325.256 30.5471L325.255 30.5461C324.307 29.5282 323.348 28.5211 322.376 27.5256C321.404 26.5298 320.421 25.5443 319.428 24.5696C318.433 23.5961 317.428 22.6338 316.412 21.6829L316.411 21.6819C315.396 20.7301 314.369 19.7911 313.333 18.8645L313.332 18.8635C312.295 17.9352 311.248 17.019 310.191 16.1145V16.1135C309.133 15.2092 308.065 14.3173 306.987 13.4368C305.911 12.5576 304.824 11.6896 303.726 10.8342C302.629 9.97866 301.521 9.1363 300.404 8.30591L300.403 8.30494C299.29 7.4753 297.929 6.48957 296.319 5.34791C295.755 4.94717 295.622 4.16467 296.022 3.59986Z" fill="#4353E9"/>
<path d="M350.865 170.857C350.866 170.857 350.868 170.857 350.869 170.857C350.867 170.857 350.864 170.857 350.861 170.856C350.863 170.856 350.864 170.857 350.865 170.857ZM351.34 168.395C351.346 168.396 351.353 168.398 351.36 168.399C351.374 168.402 351.396 168.406 351.424 168.413C351.394 168.406 351.362 168.399 351.331 168.394C351.334 168.395 351.337 168.395 351.34 168.395ZM371.676 153.044C371.676 152.924 371.675 152.805 371.674 152.687L371.663 152.332C371.658 152.212 371.652 152.093 371.645 151.973L371.644 151.961C371.638 151.846 371.63 151.731 371.62 151.616C371.61 151.497 371.599 151.377 371.587 151.258L371.585 151.245C371.574 151.13 371.562 151.014 371.548 150.899C371.533 150.78 371.516 150.66 371.499 150.541C371.481 150.418 371.463 150.294 371.443 150.173C371.424 150.058 371.403 149.943 371.382 149.829L371.381 149.827C371.359 149.708 371.335 149.589 371.311 149.471C371.286 149.354 371.26 149.236 371.232 149.118C371.205 149.001 371.177 148.883 371.146 148.764C371.117 148.647 371.086 148.531 371.054 148.414C371.022 148.298 370.988 148.182 370.953 148.067C370.918 147.951 370.882 147.835 370.845 147.719C370.809 147.607 370.772 147.496 370.733 147.386C370.691 147.269 370.649 147.152 370.605 147.036C370.563 146.922 370.519 146.809 370.474 146.695C370.429 146.584 370.383 146.474 370.337 146.366L370.335 146.361C370.288 146.25 370.24 146.139 370.19 146.029C370.143 145.923 370.092 145.817 370.041 145.712L370.036 145.702C369.984 145.593 369.931 145.485 369.877 145.378L369.874 145.372C369.82 145.265 369.766 145.159 369.71 145.054C369.653 144.949 369.595 144.843 369.536 144.738C369.477 144.633 369.416 144.528 369.354 144.425C369.293 144.321 369.229 144.218 369.165 144.115C369.101 144.012 369.036 143.911 368.971 143.811L368.769 143.51L368.557 143.211C368.486 143.113 368.415 143.016 368.342 142.92C368.271 142.825 368.198 142.732 368.124 142.64L368.119 142.635C368.045 142.541 367.97 142.449 367.896 142.358L367.653 142.074C367.576 141.984 367.497 141.895 367.417 141.808L367.411 141.802C367.333 141.715 367.252 141.629 367.17 141.543L367.164 141.536C367.083 141.45 367 141.365 366.917 141.282C366.831 141.196 366.744 141.112 366.656 141.027L366.65 141.021C366.566 140.939 366.48 140.858 366.393 140.778C366.305 140.698 366.217 140.619 366.128 140.542L366.121 140.536C366.031 140.457 365.939 140.378 365.846 140.3C365.753 140.222 365.659 140.145 365.564 140.069C365.471 139.995 365.378 139.922 365.285 139.851C365.186 139.776 365.086 139.703 364.985 139.629C364.888 139.558 364.789 139.488 364.69 139.419C364.592 139.351 364.494 139.284 364.396 139.219L364.092 139.022L363.782 138.833C363.678 138.771 363.573 138.71 363.469 138.651C363.364 138.592 363.259 138.532 363.152 138.474C363.046 138.418 362.939 138.363 362.832 138.308L362.821 138.303C362.717 138.25 362.613 138.197 362.508 138.147C362.399 138.095 362.29 138.044 362.18 137.993C362.07 137.944 361.959 137.895 361.848 137.848L361.837 137.844C361.729 137.798 361.622 137.753 361.515 137.71L361.171 137.575C361.058 137.533 360.946 137.493 360.832 137.454C360.717 137.414 360.602 137.376 360.487 137.339C360.372 137.302 360.257 137.266 360.142 137.231C360.024 137.196 359.906 137.162 359.789 137.13C359.673 137.098 359.556 137.067 359.438 137.037C359.325 137.009 359.211 136.982 359.098 136.956C358.975 136.929 358.852 136.903 358.73 136.878C358.61 136.854 358.489 136.831 358.369 136.808C358.255 136.788 358.139 136.769 358.022 136.751C357.901 136.732 357.779 136.714 357.659 136.698C357.544 136.683 357.428 136.669 357.312 136.657L357.3 136.656C357.181 136.643 357.063 136.63 356.946 136.621L356.934 136.62C356.818 136.609 356.701 136.601 356.583 136.594C356.463 136.586 356.34 136.579 356.219 136.574H356.205C356.093 136.568 355.98 136.564 355.867 136.563H355.854C355.733 136.561 355.61 136.559 355.488 136.559C355.372 136.559 355.254 136.562 355.136 136.565C355.013 136.569 354.891 136.572 354.771 136.577L354.771 136.578C354.65 136.584 354.529 136.592 354.408 136.6C354.286 136.609 354.164 136.618 354.044 136.63C353.927 136.64 353.81 136.653 353.693 136.668L353.682 136.67C353.565 136.683 353.448 136.698 353.331 136.715L353.318 136.717C353.202 136.732 353.087 136.749 352.972 136.768H352.97C352.85 136.788 352.73 136.81 352.611 136.832L352.599 136.835C352.488 136.854 352.378 136.876 352.269 136.9C352.264 136.901 352.259 136.902 352.254 136.903C352.135 136.928 352.016 136.954 351.898 136.981C351.784 137.008 351.669 137.035 351.555 137.064L351.203 137.158C351.087 137.191 350.972 137.227 350.857 137.262C350.852 137.264 350.847 137.266 350.842 137.267C350.731 137.3 350.621 137.335 350.513 137.372L350.509 137.373C350.39 137.412 350.272 137.453 350.154 137.494C350.045 137.533 349.935 137.574 349.826 137.616L349.821 137.618C349.709 137.661 349.598 137.704 349.488 137.749L349.484 137.751C349.373 137.796 349.263 137.843 349.155 137.89L349.15 137.892C349.041 137.94 348.932 137.988 348.825 138.038L348.82 138.041C348.71 138.091 348.601 138.143 348.492 138.196C348.385 138.248 348.279 138.302 348.175 138.356L348.17 138.359C348.062 138.415 347.956 138.472 347.85 138.53C347.743 138.588 347.637 138.646 347.533 138.705C347.43 138.764 347.329 138.826 347.229 138.887L347.223 138.891C347.121 138.953 347.019 139.015 346.92 139.078C346.814 139.147 346.708 139.217 346.602 139.287C346.504 139.353 346.406 139.421 346.309 139.489C346.214 139.556 346.119 139.625 346.024 139.696L346.016 139.702C345.92 139.772 345.825 139.842 345.731 139.914L345.732 139.915C345.637 139.989 345.542 140.065 345.448 140.141L345.44 140.147C345.351 140.219 345.263 140.293 345.176 140.368C345.171 140.372 345.167 140.376 345.162 140.38C345.071 140.456 344.982 140.534 344.894 140.612C344.803 140.693 344.714 140.775 344.626 140.856L344.625 140.855C344.536 140.938 344.448 141.023 344.361 141.107L344.104 141.364C344.019 141.451 343.934 141.538 343.852 141.626C343.771 141.712 343.691 141.799 343.612 141.887C343.53 141.98 343.448 142.074 343.366 142.168C343.29 142.257 343.215 142.348 343.14 142.44L343.135 142.446C343.06 142.537 342.986 142.629 342.913 142.722C342.839 142.817 342.764 142.913 342.691 143.01L342.692 143.011C342.62 143.109 342.549 143.208 342.478 143.307L342.477 143.306C342.407 143.404 342.34 143.504 342.271 143.604C342.204 143.704 342.137 143.805 342.071 143.906C342.007 144.005 341.944 144.106 341.882 144.208L341.878 144.214C341.815 144.316 341.754 144.42 341.693 144.523C341.631 144.632 341.569 144.74 341.508 144.848C341.452 144.951 341.397 145.054 341.343 145.157C341.288 145.263 341.233 145.368 341.18 145.473C341.126 145.584 341.072 145.695 341.02 145.806L341.021 145.807C340.97 145.916 340.92 146.025 340.872 146.135L340.87 146.14C340.822 146.25 340.774 146.36 340.729 146.469C340.684 146.581 340.638 146.692 340.594 146.804L340.595 146.805C340.551 146.918 340.508 147.031 340.468 147.144C340.427 147.259 340.387 147.375 340.349 147.49L340.346 147.498C340.307 147.61 340.27 147.723 340.235 147.835C340.201 147.946 340.166 148.057 340.134 148.169L340.135 148.17C340.102 148.29 340.068 148.411 340.036 148.533V148.536C340.005 148.652 339.975 148.769 339.946 148.886C339.919 149.004 339.893 149.122 339.867 149.241C339.842 149.359 339.818 149.479 339.794 149.598C339.772 149.713 339.753 149.829 339.733 149.945L339.732 149.948C339.713 150.067 339.694 150.186 339.677 150.306C339.659 150.427 339.643 150.549 339.628 150.67C339.614 150.786 339.6 150.902 339.588 151.018C339.576 151.143 339.566 151.269 339.556 151.394C339.547 151.512 339.54 151.629 339.534 151.746L339.533 151.758L339.518 152.112C339.514 152.233 339.511 152.354 339.51 152.476C339.51 152.598 339.51 152.72 339.512 152.841L339.521 153.194L339.521 153.207C339.525 153.323 339.53 153.44 339.537 153.558L339.562 153.923L339.596 154.285C339.608 154.401 339.621 154.518 339.637 154.635L339.639 154.647C339.654 154.768 339.669 154.888 339.687 155.009L339.743 155.359L339.745 155.369C339.764 155.484 339.785 155.599 339.808 155.714L339.884 156.086L339.963 156.427L339.966 156.438C339.992 156.552 340.02 156.665 340.05 156.777C340.081 156.895 340.114 157.012 340.147 157.13L340.251 157.476L340.255 157.488C340.288 157.599 340.323 157.709 340.36 157.819C340.399 157.934 340.439 158.049 340.48 158.164C340.521 158.278 340.562 158.391 340.604 158.502L340.737 158.837L340.742 158.847L340.881 159.179C340.928 159.289 340.976 159.398 341.025 159.507C341.075 159.615 341.125 159.723 341.177 159.83L341.18 159.836C341.231 159.942 341.283 160.048 341.336 160.152C341.392 160.261 341.449 160.37 341.506 160.478C341.56 160.581 341.616 160.684 341.673 160.786L341.854 161.098L341.859 161.107L342.037 161.405L342.04 161.411L342.226 161.704L342.231 161.714C342.294 161.812 342.358 161.91 342.423 162.007C342.49 162.107 342.558 162.206 342.627 162.305C342.693 162.4 342.76 162.494 342.828 162.588L343.038 162.871C343.11 162.965 343.181 163.059 343.252 163.15C343.324 163.242 343.396 163.331 343.468 163.419L343.691 163.688L343.913 163.945L344.146 164.203L344.371 164.446L344.378 164.453L344.605 164.69L344.612 164.697C344.688 164.775 344.765 164.852 344.842 164.927C344.882 164.966 344.92 165.004 344.96 165.043C344.999 165.081 345.039 165.119 345.078 165.157C345.154 165.23 345.232 165.301 345.31 165.372L345.317 165.379C345.394 165.449 345.47 165.519 345.547 165.588C345.626 165.657 345.707 165.726 345.786 165.795C345.865 165.861 345.944 165.928 346.023 165.994C346.106 166.061 346.189 166.128 346.271 166.193C346.347 166.253 346.423 166.312 346.498 166.368C346.504 166.372 346.51 166.377 346.516 166.382C346.591 166.44 346.666 166.497 346.742 166.552L346.972 166.718L346.982 166.725C347.055 166.777 347.128 166.828 347.201 166.878C347.28 166.93 347.358 166.983 347.437 167.034C347.511 167.082 347.587 167.13 347.661 167.177L347.884 167.309L347.896 167.316C347.969 167.359 348.04 167.401 348.11 167.44C348.185 167.482 348.259 167.522 348.332 167.561C348.402 167.599 348.473 167.635 348.543 167.67C348.616 167.706 348.687 167.741 348.758 167.774C348.828 167.806 348.898 167.838 348.967 167.869L349.148 167.944L349.165 167.951C349.228 167.977 349.29 168.001 349.35 168.023L349.525 168.084L349.545 168.09C349.607 168.111 349.67 168.131 349.731 168.149L349.896 168.194L349.916 168.2L350.073 168.238L350.078 168.239C350.136 168.252 350.193 168.264 350.25 168.274L350.4 168.299L350.427 168.302C350.474 168.309 350.52 168.315 350.566 168.321L350.746 168.338C350.806 168.343 350.861 168.347 350.911 168.35C350.965 168.354 351.01 168.358 351.047 168.36C351.09 168.363 351.142 168.369 351.198 168.376L351.199 168.375C351.21 168.376 351.257 168.381 351.321 168.392C351.324 168.393 351.328 168.394 351.331 168.394C351.36 168.399 351.39 168.406 351.423 168.414L351.424 168.413C352.053 168.558 352.476 169.164 352.381 169.814C352.281 170.499 351.644 170.974 350.959 170.874H350.954L350.907 170.866C350.904 170.865 350.9 170.864 350.896 170.863H350.885C350.84 170.86 350.788 170.856 350.73 170.852H350.729C350.669 170.848 350.606 170.842 350.538 170.837C350.468 170.831 350.395 170.824 350.321 170.817C350.314 170.816 350.307 170.816 350.3 170.815C350.223 170.806 350.147 170.795 350.071 170.784C350.063 170.783 350.054 170.782 350.045 170.781C349.961 170.77 349.878 170.755 349.794 170.74C349.709 170.724 349.623 170.706 349.538 170.687C349.451 170.668 349.364 170.647 349.276 170.624C349.189 170.602 349.102 170.579 349.016 170.553C349.011 170.552 349.006 170.551 349.002 170.55C348.92 170.525 348.839 170.498 348.758 170.47C348.666 170.441 348.574 170.41 348.482 170.376C348.39 170.342 348.298 170.306 348.206 170.268L347.94 170.158C347.86 170.122 347.78 170.085 347.698 170.048C347.693 170.045 347.688 170.043 347.683 170.041C347.596 170 347.508 169.956 347.421 169.913C347.331 169.868 347.241 169.822 347.151 169.774C347.064 169.728 346.977 169.679 346.89 169.631C346.802 169.582 346.713 169.53 346.624 169.477C346.533 169.424 346.441 169.37 346.351 169.314C346.346 169.312 346.342 169.31 346.338 169.307C346.251 169.253 346.165 169.197 346.078 169.141L346.074 169.138C345.986 169.081 345.898 169.023 345.811 168.965L345.799 168.957C345.711 168.897 345.624 168.836 345.536 168.773L345.258 168.574C345.169 168.509 345.081 168.442 344.993 168.374C344.898 168.302 344.803 168.229 344.708 168.154C344.62 168.084 344.532 168.012 344.443 167.94L344.434 167.933C344.345 167.86 344.257 167.786 344.169 167.712L344.16 167.705C344.072 167.629 343.985 167.552 343.896 167.475L343.888 167.468C343.797 167.387 343.707 167.306 343.618 167.224C343.528 167.142 343.438 167.058 343.349 166.973L343.342 166.967L343.09 166.722L343.082 166.716C342.991 166.626 342.901 166.534 342.812 166.442C342.723 166.352 342.636 166.261 342.55 166.17C342.463 166.078 342.377 165.985 342.291 165.891C342.205 165.797 342.119 165.703 342.034 165.606L342.033 165.605C341.947 165.508 341.862 165.408 341.776 165.306L341.775 165.305C341.693 165.208 341.611 165.109 341.528 165.009L341.526 165.007C341.444 164.905 341.362 164.802 341.279 164.697L341.277 164.695C341.198 164.593 341.118 164.491 341.039 164.386L341.038 164.385C340.959 164.279 340.879 164.172 340.8 164.063L340.798 164.06C340.721 163.954 340.645 163.847 340.569 163.739L340.564 163.733C340.489 163.624 340.415 163.514 340.341 163.404C340.267 163.293 340.194 163.182 340.122 163.07C340.047 162.955 339.974 162.839 339.902 162.721C339.83 162.603 339.758 162.484 339.688 162.363C339.621 162.249 339.555 162.135 339.49 162.021L339.487 162.015C339.42 161.895 339.355 161.774 339.29 161.652C339.227 161.534 339.165 161.414 339.104 161.295C339.04 161.17 338.977 161.043 338.916 160.916C338.857 160.793 338.799 160.669 338.742 160.545C338.685 160.419 338.629 160.291 338.574 160.164C338.519 160.037 338.465 159.908 338.413 159.779C338.362 159.654 338.312 159.527 338.264 159.401L338.261 159.394C338.213 159.268 338.165 159.14 338.119 159.01C338.072 158.88 338.027 158.75 337.983 158.62C337.939 158.488 337.898 158.355 337.857 158.221L337.856 158.222C337.815 158.09 337.775 157.956 337.736 157.822C337.698 157.689 337.661 157.555 337.626 157.422C337.589 157.283 337.555 157.144 337.522 157.005L337.523 157.004C337.492 156.873 337.461 156.743 337.432 156.612C337.431 156.607 337.429 156.602 337.428 156.597C337.4 156.466 337.375 156.336 337.349 156.206L337.348 156.203C337.32 156.063 337.294 155.922 337.271 155.782L337.271 155.781C337.248 155.644 337.225 155.506 337.205 155.37C337.185 155.232 337.166 155.093 337.149 154.956L337.15 154.955C337.132 154.817 337.115 154.68 337.101 154.542C337.086 154.404 337.074 154.266 337.062 154.129L337.061 154.115L337.062 154.114C337.052 153.98 337.042 153.846 337.034 153.713C337.026 153.574 337.02 153.434 337.016 153.296C337.01 153.153 337.005 153.009 337.004 152.866C337.003 152.732 337.002 152.598 337.002 152.464V152.451C337.003 152.312 337.006 152.173 337.011 152.035L337.03 151.616C337.037 151.479 337.045 151.341 337.055 151.202L337.056 151.188C337.067 151.055 337.078 150.921 337.091 150.788L337.093 150.775C337.107 150.637 337.123 150.499 337.14 150.361C337.157 150.223 337.174 150.086 337.194 149.948C337.214 149.81 337.236 149.672 337.259 149.535C337.281 149.398 337.306 149.261 337.331 149.125L337.334 149.112C337.36 148.979 337.387 148.846 337.415 148.715L337.417 148.706C337.446 148.573 337.475 148.44 337.506 148.308L337.509 148.297C337.542 148.161 337.577 148.026 337.612 147.891C337.647 147.761 337.681 147.63 337.717 147.501L337.721 147.489C337.759 147.355 337.799 147.221 337.841 147.088C337.883 146.952 337.927 146.817 337.974 146.681C338.017 146.554 338.062 146.425 338.107 146.298C338.155 146.166 338.204 146.035 338.254 145.905L338.258 145.894C338.307 145.769 338.357 145.644 338.408 145.519L338.41 145.514C338.464 145.383 338.52 145.252 338.578 145.122C338.633 144.996 338.689 144.872 338.747 144.748L338.75 144.742C338.808 144.618 338.867 144.495 338.927 144.373C338.929 144.368 338.932 144.362 338.935 144.357C338.995 144.238 339.056 144.118 339.118 143.999L339.121 143.994C339.185 143.873 339.249 143.751 339.315 143.63C339.318 143.625 339.321 143.62 339.324 143.615C339.39 143.498 339.456 143.382 339.523 143.265L339.526 143.26L339.741 142.901C339.814 142.781 339.889 142.662 339.965 142.545C340.041 142.427 340.118 142.311 340.196 142.195C340.274 142.08 340.353 141.967 340.433 141.854L340.435 141.851C340.515 141.738 340.597 141.626 340.68 141.515L340.681 141.513C340.764 141.401 340.849 141.29 340.935 141.18C341.022 141.068 341.111 140.958 341.201 140.848C341.288 140.743 341.375 140.638 341.463 140.535L341.739 140.219C341.834 140.113 341.93 140.008 342.027 139.905L342.318 139.603C342.415 139.503 342.514 139.405 342.614 139.308C342.714 139.211 342.815 139.115 342.918 139.019L343.226 138.739C343.332 138.644 343.44 138.551 343.549 138.46L343.871 138.191C343.977 138.105 344.084 138.02 344.191 137.936L344.199 137.93C344.309 137.847 344.419 137.763 344.531 137.68C344.642 137.598 344.753 137.517 344.864 137.438L344.871 137.434C344.982 137.356 345.094 137.279 345.207 137.202C345.212 137.199 345.217 137.195 345.222 137.192C345.334 137.118 345.447 137.045 345.56 136.972L345.568 136.967C345.683 136.894 345.798 136.822 345.915 136.751C346.036 136.677 346.158 136.604 346.281 136.533L346.286 136.531C346.405 136.463 346.525 136.395 346.646 136.329C346.77 136.262 346.893 136.196 347.018 136.132C347.141 136.067 347.266 136.005 347.392 135.943C347.516 135.882 347.641 135.822 347.767 135.764L348.148 135.593C348.277 135.536 348.408 135.481 348.539 135.427C348.668 135.374 348.798 135.323 348.93 135.273C349.058 135.224 349.188 135.176 349.318 135.129L349.33 135.125C349.458 135.08 349.586 135.037 349.715 134.994C349.846 134.95 349.978 134.909 350.11 134.869C350.243 134.827 350.377 134.786 350.512 134.748L350.523 134.745C350.654 134.709 350.785 134.673 350.917 134.638L350.929 134.635C351.064 134.601 351.198 134.569 351.333 134.538C351.464 134.508 351.596 134.48 351.728 134.452C351.867 134.421 352.008 134.393 352.148 134.368C352.285 134.342 352.423 134.317 352.562 134.294C352.702 134.27 352.843 134.249 352.985 134.23C353.119 134.211 353.252 134.195 353.386 134.179C353.528 134.162 353.67 134.146 353.812 134.133C353.95 134.12 354.089 134.109 354.228 134.099C354.365 134.089 354.504 134.08 354.644 134.073L354.656 134.072C354.79 134.066 354.925 134.062 355.06 134.058C355.203 134.054 355.346 134.052 355.488 134.052C355.627 134.052 355.766 134.053 355.905 134.055L355.904 134.056C356.044 134.058 356.182 134.062 356.32 134.069C356.46 134.075 356.599 134.081 356.737 134.09L356.736 134.091C356.88 134.099 357.023 134.11 357.166 134.123L357.165 134.124C357.303 134.135 357.442 134.147 357.58 134.163L357.579 134.164C357.717 134.178 357.856 134.194 357.994 134.213H357.996C358.132 134.231 358.269 134.251 358.405 134.272L358.818 134.341L358.831 134.343L359.228 134.42L359.242 134.423C359.372 134.45 359.502 134.478 359.634 134.507C359.639 134.508 359.644 134.508 359.648 134.51L360.041 134.602L360.053 134.605C360.188 134.639 360.324 134.675 360.458 134.713C360.591 134.75 360.725 134.788 360.857 134.828L360.861 134.829C360.993 134.868 361.125 134.909 361.257 134.952C361.389 134.994 361.52 135.039 361.651 135.084L361.656 135.085L362.049 135.226L362.056 135.229L362.438 135.378L362.441 135.379C362.569 135.43 362.696 135.483 362.822 135.538L363.208 135.706L363.219 135.711C363.342 135.768 363.465 135.825 363.588 135.884C363.714 135.944 363.839 136.006 363.963 136.07C364.087 136.133 364.212 136.198 364.335 136.263L364.346 136.269C364.465 136.335 364.584 136.401 364.702 136.468C364.824 136.536 364.945 136.606 365.065 136.677L365.424 136.897L365.43 136.9C365.545 136.973 365.66 137.048 365.775 137.124L365.781 137.128L366.123 137.36L366.129 137.364L366.462 137.6L366.47 137.606L366.799 137.851L366.805 137.856L367.129 138.108L367.135 138.113C367.243 138.2 367.351 138.29 367.458 138.38C367.563 138.467 367.666 138.556 367.769 138.645L368.087 138.929C368.19 139.023 368.291 139.119 368.391 139.216C368.492 139.312 368.592 139.41 368.69 139.509C368.789 139.607 368.886 139.707 368.981 139.808L369.266 140.114C369.362 140.219 369.458 140.326 369.551 140.433L369.816 140.745L369.822 140.753C369.909 140.857 369.994 140.963 370.079 141.07C370.168 141.181 370.256 141.293 370.342 141.407C370.426 141.519 370.509 141.631 370.591 141.744L370.831 142.085L370.833 142.087L371.065 142.431L371.067 142.434C371.143 142.549 371.216 142.666 371.29 142.784C371.364 142.903 371.438 143.022 371.51 143.142C371.581 143.262 371.651 143.383 371.72 143.505C371.788 143.626 371.856 143.749 371.922 143.872C371.988 143.995 372.051 144.12 372.114 144.246C372.175 144.367 372.236 144.489 372.295 144.611L372.478 145.002C372.534 145.127 372.59 145.254 372.644 145.381L372.802 145.761L372.806 145.772C372.857 145.901 372.906 146.03 372.954 146.159C373.001 146.285 373.048 146.412 373.094 146.54L373.099 146.552C373.144 146.683 373.189 146.815 373.231 146.948C373.274 147.08 373.315 147.212 373.354 147.344C373.395 147.477 373.434 147.611 373.471 147.745L373.577 148.145L373.578 148.148C373.612 148.282 373.644 148.415 373.675 148.548L373.676 148.551C373.707 148.685 373.736 148.82 373.765 148.955C373.793 149.091 373.821 149.227 373.847 149.364L373.919 149.771L373.921 149.782C373.942 149.914 373.961 150.046 373.98 150.178C374 150.315 374.019 150.451 374.036 150.588C374.053 150.724 374.068 150.861 374.081 150.998L374.119 151.407C374.131 151.544 374.14 151.68 374.147 151.817L374.169 152.226L374.182 152.635V152.648C374.183 152.779 374.184 152.911 374.184 153.044C374.184 153.179 374.183 153.315 374.18 153.45C374.177 153.581 374.173 153.712 374.169 153.842V153.854C374.163 153.985 374.156 154.115 374.147 154.245L374.148 154.246C374.141 154.38 374.13 154.513 374.119 154.646L374.12 154.647C374.11 154.78 374.099 154.914 374.086 155.047C374.073 155.18 374.059 155.312 374.043 155.444C374.028 155.572 374.012 155.699 373.995 155.825L373.993 155.839C373.975 155.964 373.956 156.088 373.937 156.213L373.938 156.214C373.917 156.345 373.895 156.476 373.872 156.605L373.871 156.604C373.85 156.728 373.828 156.852 373.805 156.975L373.803 156.986C373.778 157.107 373.754 157.226 373.729 157.344L373.727 157.357C373.7 157.478 373.673 157.599 373.646 157.719C373.617 157.841 373.588 157.961 373.559 158.08L373.556 158.09C373.526 158.205 373.496 158.319 373.466 158.432L373.462 158.446C373.43 158.562 373.397 158.678 373.363 158.794C373.329 158.91 373.294 159.025 373.259 159.139C373.223 159.255 373.187 159.369 373.149 159.48L373.146 159.489C373.109 159.597 373.072 159.704 373.035 159.81C372.997 159.921 372.956 160.029 372.914 160.137C372.873 160.248 372.83 160.359 372.786 160.469C372.746 160.569 372.705 160.669 372.663 160.769C372.66 160.776 372.658 160.782 372.655 160.789C372.613 160.886 372.57 160.982 372.528 161.077C372.483 161.178 372.437 161.278 372.39 161.377C372.342 161.478 372.294 161.579 372.244 161.677L372.243 161.677C372.197 161.769 372.151 161.86 372.104 161.949L372.102 161.956C372.052 162.048 372.003 162.139 371.953 162.228L371.95 162.234C371.899 162.325 371.847 162.412 371.796 162.499C371.746 162.582 371.697 162.666 371.646 162.748C371.644 162.752 371.64 162.757 371.638 162.761C371.582 162.85 371.525 162.937 371.467 163.022L371.466 163.021C371.416 163.097 371.366 163.173 371.314 163.247L371.308 163.257C371.253 163.333 371.197 163.407 371.141 163.481L371.142 163.482C371.083 163.56 371.023 163.637 370.962 163.712L370.963 163.713C370.927 163.758 370.888 163.802 370.851 163.846C370.812 163.953 370.769 164.033 370.742 164.078C370.623 164.281 370.454 164.437 370.261 164.542C370.228 164.588 370.198 164.626 370.171 164.657L370.172 164.658C370.136 164.699 370.099 164.737 370.062 164.772C370.047 164.789 370.021 164.817 369.986 164.849C369.961 164.872 369.883 164.943 369.769 165.01C369.711 165.043 369.597 165.104 369.44 165.143C369.287 165.182 368.99 165.224 368.655 165.085C368.495 165.018 368.369 164.931 368.269 164.836C368.194 164.786 368.118 164.726 368.048 164.65C367.731 164.31 367.702 163.92 367.713 163.725C367.73 163.404 367.872 163.178 367.877 163.17C367.914 163.105 367.949 163.057 367.965 163.036C367.999 162.99 368.031 162.953 368.046 162.936C368.105 162.87 368.187 162.787 368.261 162.715C368.406 162.571 368.627 162.38 368.918 162.249C368.945 162.217 368.974 162.184 369.001 162.15L369.009 162.14C369.049 162.091 369.089 162.038 369.13 161.984L369.138 161.974C369.18 161.918 369.222 161.861 369.264 161.802C369.304 161.745 369.344 161.687 369.383 161.627L369.397 161.604C369.436 161.548 369.473 161.49 369.511 161.43C369.553 161.362 369.597 161.292 369.64 161.219C369.682 161.149 369.723 161.075 369.766 161.001C369.806 160.929 369.846 160.855 369.887 160.779C369.926 160.704 369.964 160.627 370.004 160.549L370.008 160.542C370.046 160.467 370.084 160.389 370.121 160.309L370.124 160.302C370.161 160.224 370.199 160.144 370.235 160.061C370.276 159.97 370.316 159.878 370.356 159.786C370.391 159.703 370.424 159.619 370.458 159.534L370.462 159.526C370.498 159.438 370.532 159.35 370.565 159.26L370.57 159.247C370.604 159.16 370.637 159.071 370.669 158.98C370.704 158.881 370.739 158.78 370.773 158.677C370.804 158.585 370.834 158.491 370.863 158.395L370.865 158.391C370.896 158.292 370.926 158.192 370.956 158.09C370.986 157.986 371.016 157.881 371.045 157.776C371.072 157.676 371.098 157.574 371.125 157.471C371.151 157.366 371.177 157.259 371.202 157.151C371.227 157.042 371.252 156.933 371.276 156.822C371.299 156.712 371.322 156.601 371.345 156.489C371.365 156.385 371.384 156.28 371.401 156.175L371.403 156.162C371.423 156.054 371.441 155.944 371.458 155.833L371.459 155.831C371.477 155.716 371.494 155.6 371.511 155.484C371.525 155.372 371.539 155.259 371.553 155.146C371.566 155.033 371.579 154.919 371.59 154.804C371.601 154.69 371.61 154.575 371.619 154.46L371.62 154.446C371.63 154.336 371.638 154.225 371.644 154.113L371.645 154.099C371.652 153.987 371.657 153.875 371.662 153.761C371.666 153.641 371.669 153.519 371.672 153.397C371.674 153.279 371.676 153.161 371.676 153.044ZM369.552 164.994C369.577 164.987 369.597 164.982 369.612 164.977L369.611 164.974C369.592 164.981 369.572 164.988 369.552 164.994Z" fill="#4353E9"/>
<path d="M360.299 99.4119C360.535 99.3553 360.784 99.3683 361.015 99.4509L385.168 108.121C385.431 108.215 385.655 108.396 385.805 108.633L397.779 127.6C397.984 127.926 398.029 128.327 397.9 128.689L377.551 185.993C377.319 186.646 376.602 186.987 375.949 186.756C375.297 186.524 374.956 185.807 375.187 185.154L395.333 128.424L383.914 110.336L360.573 101.958L340.299 108.637L315.769 176.193L327.134 194.87L349.887 203.324L353.215 201.823C353.846 201.538 354.589 201.819 354.874 202.45C355.159 203.081 354.878 203.823 354.247 204.108L350.448 205.823C350.147 205.959 349.805 205.97 349.496 205.855L325.852 197.069C325.587 196.971 325.364 196.786 325.218 196.546L313.313 176.983C313.116 176.658 313.076 176.261 313.206 175.904L338.15 107.21L338.207 107.078C338.355 106.78 338.617 106.552 338.936 106.447L360.198 99.4402L360.299 99.4119Z" fill="#4353E9"/>
<path d="M382.241 165.46C382.627 164.922 383.377 164.798 383.915 165.184C384.405 165.535 384.825 165.801 385.177 165.989L385.176 165.99C385.646 166.239 387.092 167.142 389.433 168.641L389.87 168.926C390.285 169.205 390.636 169.463 390.91 169.698C391.091 169.853 391.27 170.024 391.415 170.208C391.537 170.362 391.759 170.676 391.796 171.101C391.818 171.344 391.778 171.618 391.634 171.878C391.495 172.132 391.3 172.298 391.127 172.401C390.817 172.587 390.486 172.628 390.287 172.642C389.854 172.672 389.31 172.609 388.725 172.505V172.504C386.521 172.116 384.08 171.886 381.397 171.815C380.735 171.797 380.212 171.247 380.229 170.584C380.246 169.922 380.797 169.399 381.459 169.416C383.331 169.466 385.104 169.592 386.777 169.794C385.227 168.81 384.332 168.258 384.049 168.108L384.047 168.106C383.576 167.854 383.064 167.528 382.517 167.135C381.979 166.749 381.855 165.999 382.241 165.46Z" fill="#4353E9"/>
<path d="M385.728 155.394C386.097 154.843 386.842 154.696 387.393 155.065C390.745 157.312 392.935 158.619 394.045 159.082H394.046C394.694 159.353 395.251 159.623 395.694 159.894C396.109 160.146 396.548 160.472 396.825 160.898C397.039 161.229 397.463 161.788 398.129 162.602C398.826 163.452 399.959 164.983 401.514 167.165L401.515 167.166C402.297 168.265 402.893 169.145 403.292 169.795C403.49 170.117 403.655 170.407 403.772 170.652C403.829 170.774 403.888 170.911 403.931 171.053C403.963 171.157 404.037 171.42 403.99 171.73L403.991 171.731C403.991 171.742 403.981 171.884 403.964 172.246C403.948 172.598 403.929 173.096 403.906 173.742C403.862 175.034 403.805 176.906 403.736 179.359C403.607 183.994 403.18 187.699 402.421 190.42L402.265 190.951C401.411 193.7 400.013 195.728 397.824 196.398C396.609 196.769 395.426 196.507 394.368 195.786C393.481 195.181 392.669 194.25 391.912 193.075L391.591 192.557C390.164 190.167 388.07 187.81 385.273 185.495L384.704 185.033C381.535 182.504 379.391 180.859 378.245 180.07C377.699 179.695 377.56 178.948 377.936 178.401C378.311 177.855 379.059 177.717 379.605 178.093C380.832 178.937 383.04 180.634 386.201 183.157V183.158C389.448 185.751 391.947 188.47 393.652 191.326C394.417 192.608 395.117 193.391 395.72 193.803C396.28 194.185 396.716 194.226 397.122 194.102C398.176 193.779 399.208 192.703 399.973 190.239C400.732 187.789 401.201 184.161 401.337 179.292C401.406 176.838 401.463 174.96 401.508 173.66C401.53 173.011 401.55 172.503 401.567 172.138C401.574 171.964 401.583 171.798 401.592 171.66C401.528 171.529 401.418 171.33 401.247 171.052C400.891 170.471 400.331 169.643 399.559 168.558V168.557C398.002 166.372 396.912 164.903 396.273 164.122C395.603 163.304 395.104 162.655 394.812 162.204C394.835 162.241 394.776 162.144 394.445 161.942C394.219 161.805 393.918 161.649 393.533 161.476L393.12 161.297C391.758 160.728 389.376 159.283 386.057 157.059C385.506 156.69 385.359 155.944 385.728 155.394ZM401.609 171.466C401.608 171.473 401.608 171.48 401.608 171.487C401.612 171.443 401.614 171.405 401.618 171.373L401.609 171.466Z" fill="#4353E9"/>
<path d="M356.605 152.456C358.472 151.593 360.472 151.699 362.493 152.612C364.632 153.577 366.414 155.733 367.94 158.749H367.941C369.417 161.665 370.376 163.788 370.75 165.04H370.749C371.108 166.238 371.724 168.993 372.588 173.234C373.442 177.425 374.59 181.144 376.025 184.4H376.024C376.758 186.064 377.341 187.3 377.777 188.123C377.996 188.539 378.164 188.821 378.282 188.991C378.288 189.001 378.295 189.01 378.301 189.018C378.456 189.087 378.622 189.17 378.772 189.247C379.076 189.405 379.477 189.623 379.97 189.898C380.959 190.449 382.348 191.247 384.133 192.289C387.665 194.35 390.203 195.147 391.871 195.025C393.854 194.878 395.601 194.567 397.121 194.102C398.175 193.779 399.207 192.703 399.972 190.24C400.761 187.695 401.091 185.688 401.032 184.179C400.962 182.407 401.056 179.762 401.303 176.275C401.535 172.988 400.909 170.455 399.559 168.557C398.002 166.372 396.911 164.902 396.272 164.121C395.602 163.303 395.104 162.655 394.812 162.204C394.835 162.241 394.775 162.144 394.445 161.943C394.143 161.759 393.708 161.543 393.119 161.297V161.296C391.879 160.778 391.078 160.469 390.677 160.342V160.341C390.405 160.255 390.117 160.091 389.877 159.943C389.607 159.775 389.284 159.555 388.912 159.288C388.169 158.754 387.185 158.001 385.968 157.033C385.449 156.621 385.362 155.866 385.775 155.347C386.187 154.828 386.942 154.742 387.461 155.155C388.666 156.112 389.615 156.839 390.312 157.339C390.661 157.59 390.937 157.775 391.142 157.903C391.319 158.013 391.399 158.049 391.409 158.055L391.397 158.052L391.4 158.053C391.918 158.217 392.814 158.569 394.044 159.082H394.045C394.693 159.353 395.25 159.622 395.694 159.893C396.108 160.145 396.548 160.471 396.826 160.899C397.04 161.229 397.463 161.788 398.129 162.602C398.652 163.24 399.42 164.26 400.427 165.651L401.514 167.165V167.166C403.273 169.639 403.956 172.771 403.698 176.444V176.445C403.452 179.914 403.365 182.451 403.429 184.084C403.503 185.98 403.092 188.282 402.265 190.95L402.264 190.951C401.41 193.7 400.012 195.727 397.824 196.397C396.101 196.924 394.173 197.261 392.049 197.418H392.048C389.609 197.597 386.526 196.464 382.923 194.363V194.362C381.142 193.322 379.769 192.534 378.801 191.994C378.316 191.724 377.94 191.52 377.668 191.379C377.43 191.256 377.327 191.21 377.311 191.201L377.322 191.203C376.963 191.099 376.73 190.865 376.638 190.77C376.514 190.641 376.402 190.494 376.305 190.353C376.109 190.068 375.891 189.691 375.656 189.245C375.18 188.346 374.57 187.049 373.828 185.368V185.367C372.313 181.929 371.119 178.042 370.237 173.713C369.365 169.438 368.772 166.8 368.451 165.728V165.727C368.185 164.837 367.492 163.241 366.327 160.888L365.799 159.833C364.365 156.997 362.901 155.429 361.506 154.799C359.995 154.117 358.733 154.116 357.612 154.634C356.408 155.191 355.462 156.155 354.784 157.618C354.107 159.082 353.608 161.742 353.382 165.761C353.269 167.778 353.183 169.317 353.125 170.377C353.096 170.907 353.074 171.318 353.059 171.608C353.051 171.753 353.046 171.867 353.042 171.95C353.04 171.992 353.038 172.026 353.037 172.051C353.037 172.063 353.037 172.073 353.036 172.08C353.036 172.084 353.036 172.087 353.035 172.089C353.035 172.091 353.035 172.092 353.035 172.092C353.036 172.081 353.036 172.104 353.038 172.198C353.041 172.28 353.045 172.394 353.05 172.54C353.061 172.832 353.078 173.247 353.101 173.785C353.147 174.861 353.218 176.424 353.313 178.474C353.504 182.561 353.759 185.865 354.075 188.397L354.076 188.398C354.396 190.974 354.815 194.365 355.333 198.571C355.851 202.78 356.185 205.993 356.331 208.196C356.478 210.408 356.53 213.448 356.489 217.3C356.452 220.684 356.319 223.845 356.088 226.781L355.984 228.025C355.693 231.266 355.357 235.194 354.976 239.807C354.594 244.428 354.381 247.385 354.331 248.708C354.285 249.944 354.507 252.455 355.035 256.335V256.336C355.562 260.213 355.943 262.693 356.182 263.823V263.824C356.44 265.047 356.897 267.811 357.55 272.075C358.199 276.313 358.528 279.157 358.477 280.456C358.427 281.73 357.991 284.374 357.213 288.28C356.433 292.197 355.83 294.841 355.406 296.129C355.098 297.065 354.592 298.422 353.895 300.192L353.133 302.099C352.005 304.896 350.214 308.421 347.781 312.659C345.361 316.874 343.643 319.775 342.638 321.338C342.28 321.896 341.536 322.058 340.979 321.699C340.421 321.341 340.26 320.598 340.618 320.04C341.587 318.534 343.277 315.683 345.7 311.464C348.109 307.268 349.838 303.851 350.908 301.2L351.664 299.306C352.353 297.559 352.838 296.253 353.126 295.378C353.497 294.253 354.074 291.758 354.86 287.812V287.811C355.647 283.855 356.039 281.409 356.079 280.363C356.119 279.342 355.838 276.751 355.178 272.44C354.522 268.156 354.075 265.463 353.834 264.32C353.639 263.396 353.369 261.719 353.026 259.311L352.658 256.659C352.133 252.807 351.878 250.094 351.933 248.618C351.985 247.23 352.204 244.216 352.584 239.609C352.966 234.992 353.302 231.06 353.593 227.811V227.81C353.882 224.601 354.047 221.09 354.088 217.275C354.129 213.445 354.078 210.476 353.937 208.355C353.795 206.221 353.468 203.062 352.951 198.865C352.433 194.66 352.014 191.27 351.694 188.695L351.575 187.677C351.304 185.222 351.084 182.188 350.915 178.585C350.727 174.532 350.63 172.301 350.637 172.031C350.643 171.796 350.76 169.641 350.986 165.626C351.213 161.576 351.723 158.517 352.606 156.61C353.49 154.7 354.818 153.283 356.604 152.456H356.605ZM377.994 188.9C378.014 188.905 378.034 188.914 378.055 188.921L377.993 188.899L377.994 188.9Z" fill="#4353E9"/>
<path d="M389.981 144.368C390.219 143.749 390.912 143.44 391.531 143.677C395.1 145.046 398.778 146.989 402.563 149.493L405.071 151.16C407.308 152.657 408.728 153.642 409.293 154.096C410.029 154.688 411.796 156.268 414.551 158.793C415.934 160.061 416.975 161.019 417.672 161.665C418.019 161.987 418.284 162.235 418.464 162.406C418.552 162.49 418.626 162.561 418.679 162.614C418.705 162.639 418.735 162.67 418.762 162.699C418.775 162.712 418.8 162.739 418.827 162.772C418.84 162.788 418.866 162.822 418.896 162.866C418.898 162.868 418.963 162.958 419.019 163.099L419.07 163.258L419.13 163.607C419.155 163.769 419.192 164.007 419.241 164.318L419.672 167.094V167.095C420.051 169.563 420.624 173.763 421.389 179.685L422.618 189.185H422.619C422.67 189.561 423.068 191.749 423.831 195.827C424.495 199.371 424.948 201.953 425.182 203.554L425.269 204.18V204.181C425.473 205.752 425.526 208.329 425.449 211.85C425.371 215.398 425.034 218.151 424.372 220.007C423.819 221.557 422.698 223.851 421.049 226.854L420.309 228.185C418.287 231.784 416.473 235.769 414.87 240.142C413.248 244.566 411.738 248.712 410.34 252.578C408.94 256.447 407.633 260.017 406.419 263.287C405.208 266.548 404.115 269.546 403.141 272.281C402.174 275.001 401.206 277.974 400.236 281.201C399.259 284.45 398.663 286.516 398.433 287.429C398.264 288.106 397.92 289.795 397.399 292.522L396.819 295.598C395.967 300.148 395.352 303.428 394.974 305.437C394.59 307.482 393.925 310.399 392.983 314.177C392.044 317.946 391.513 320.073 391.391 320.546C391.227 321.188 390.573 321.574 389.931 321.41C389.29 321.245 388.903 320.592 389.067 319.95C389.186 319.487 389.714 317.372 390.655 313.597C391.593 309.832 392.245 306.968 392.616 304.994C392.993 302.985 393.608 299.706 394.46 295.157L395.04 292.087C395.564 289.344 395.92 287.589 396.105 286.847V286.845C396.351 285.868 396.966 283.746 397.938 280.51C398.918 277.252 399.898 274.24 400.881 271.477L401.636 269.368C402.414 267.21 403.259 264.904 404.169 262.452L406.056 257.332C406.709 255.55 407.384 253.693 408.083 251.761L410.265 245.748C411.021 243.674 411.805 241.53 412.617 239.316C414.259 234.837 416.124 230.733 418.217 227.01C420.273 223.348 421.554 220.761 422.111 219.2C422.638 217.723 422.973 215.29 423.05 211.798C423.127 208.28 423.067 205.864 422.889 204.491L422.805 203.892C422.58 202.353 422.137 199.818 421.471 196.268C420.718 192.242 420.302 189.962 420.24 189.507L420.239 189.502C420.184 189.083 419.774 185.912 419.01 179.994V179.993C418.244 174.071 417.674 169.897 417.3 167.461L416.87 164.687C416.834 164.455 416.803 164.265 416.78 164.118C416.611 163.958 416.364 163.727 416.039 163.425C415.347 162.783 414.311 161.83 412.928 160.562C410.151 158.016 408.451 156.499 407.79 155.968C407.146 155.45 404.992 153.975 401.24 151.495H401.239C397.571 149.068 394.049 147.213 390.672 145.918C390.053 145.68 389.744 144.987 389.981 144.368Z" fill="#4353E9"/>
<path d="M481.962 2.50293L482.122 2.51074L482.24 2.51953C484.231 2.71179 485.802 4.33456 485.908 6.35059L485.914 6.54688L487.503 321.354C487.508 322.436 487.082 323.472 486.325 324.236C485.568 325.002 484.536 325.437 483.456 325.442L8.17578 327.839C5.92786 327.85 4.10023 326.036 4.08887 323.792L2.5 8.98438C2.49454 7.90275 2.92107 6.86692 3.67773 6.10254L3.82227 5.96289C4.56389 5.28429 5.53407 4.90162 6.54688 4.89648L481.827 2.5L481.962 2.50293ZM10.6543 13.0088L12.2012 319.683L479.347 317.328L477.8 10.6543L10.6543 13.0088Z" fill="white" stroke="white" stroke-width="5" stroke-linecap="round" stroke-linejoin="round"/>
</svg>
