<svg width="463" height="321" viewBox="0 0 463 321" fill="none" xmlns="http://www.w3.org/2000/svg">
<path d="M359.368 244.407C359.368 244.407 357.969 244.078 355.17 243.419C352.37 242.761 349.52 242.106 346.618 241.454C343.717 240.803 341.233 240.282 339.166 239.892C337.098 239.502 335.183 239.102 333.421 238.692C331.658 238.281 329.478 237.74 326.883 237.068C324.286 236.396 320.612 235.14 315.86 233.301C311.108 231.461 307.123 229.823 303.907 228.387C300.689 226.951 297.483 226.023 294.29 225.603C291.096 225.183 288.062 224.859 285.188 224.63C282.314 224.399 278.984 224.252 275.201 224.189C271.417 224.128 268.301 224.127 265.852 224.185C263.405 224.245 261.571 224.316 260.35 224.397C259.13 224.48 257.753 224.52 256.22 224.518C254.687 224.515 253.208 224.561 251.785 224.657C250.361 224.753 248.377 224.888 245.833 225.06C243.29 225.232 240.534 225.259 237.565 225.142C234.595 225.024 232.439 224.851 231.096 224.623C229.754 224.397 227.903 224.204 225.544 224.046C223.184 223.887 220.675 223.791 218.017 223.759C215.358 223.726 213.266 223.761 211.741 223.865C210.214 223.968 208.607 224.394 206.918 225.143C205.228 225.893 204.083 227.188 203.484 229.029C202.885 230.869 202.95 232.718 203.679 234.575C204.408 236.433 205.521 237.893 207.018 238.957C208.515 240.021 210.664 240.883 213.464 241.541C216.264 242.2 219.006 242.756 221.69 243.209C224.374 243.664 226.59 243.992 228.339 244.192C230.089 244.392 232.15 244.676 234.522 245.046C236.895 245.415 239.014 245.802 240.879 246.206C242.743 246.61 244.043 246.998 244.782 247.372C245.521 247.745 246.016 248.294 246.265 249.019C246.515 249.743 246.663 250.475 246.709 251.214C246.755 251.951 246.442 252.66 245.769 253.341C245.098 254.023 244.076 254.833 242.704 255.771C241.333 256.711 239.749 257.507 237.951 258.157C236.153 258.808 234.348 259.353 232.537 259.793C230.726 260.233 228.919 260.726 227.114 261.271C225.31 261.817 223.76 262.345 222.463 262.857C221.167 263.368 219.607 263.738 217.783 263.967C215.958 264.195 213.977 264.382 211.841 264.526C209.705 264.671 207.626 264.918 205.604 265.266C203.584 265.614 201.763 265.895 200.141 266.11C198.52 266.326 197.297 266.355 196.47 266.199C195.643 266.043 194.392 265.651 192.717 265.021C191.044 264.393 188.96 263.74 186.465 263.061C183.971 262.383 181.999 261.88 180.548 261.553C179.098 261.228 177.685 260.688 176.31 259.934C174.934 259.179 172.928 258.149 170.293 256.845C167.656 255.54 164.793 254.674 161.702 254.247C158.611 253.821 156.254 253.715 154.632 253.929C153.011 254.144 151.788 254.174 150.961 254.019C150.134 253.862 148.577 254.285 146.29 255.288C144.004 256.289 142.153 257.737 140.74 259.633C139.327 261.528 138.961 263.035 139.644 264.155C140.327 265.274 141.092 266.069 141.94 266.541C142.786 267.013 143.369 267.345 143.688 267.536C144.005 267.726 144.191 268.244 144.245 269.088C144.298 269.93 144.517 270.974 144.901 272.219C145.286 273.465 146.281 274.669 147.886 275.831C149.491 276.994 151.761 278.165 154.696 279.343C157.629 280.522 160.198 281.567 162.401 282.477C164.602 283.388 166.442 284.217 167.92 284.964C169.396 285.712 171.239 286.594 173.449 287.61C175.659 288.626 177.658 289.55 179.447 290.382C181.236 291.215 183.486 292.07 186.197 292.946C188.908 293.822 191.981 294.779 195.416 295.818C198.853 296.858 201.815 297.664 204.304 298.237C206.791 298.811 209.069 299.292 211.137 299.682C213.204 300.072 215.37 300.403 217.635 300.674C219.899 300.944 223.591 301.359 228.71 301.919C233.829 302.478 236.92 302.905 237.983 303.199C239.048 303.494 241.343 304.052 244.867 304.873C248.392 305.695 251.731 305.999 254.885 305.786C258.038 305.574 260.674 305.237 262.79 304.776C264.906 304.316 267.127 303.901 269.454 303.531C271.78 303.163 274.412 302.774 277.35 302.363C280.286 301.954 283.025 301.663 285.568 301.491C288.112 301.319 290.554 301.155 292.893 300.998C295.233 300.84 297.108 300.608 298.519 300.301C299.929 299.993 301.391 299.683 302.904 299.37C304.417 299.055 305.923 298.636 307.422 298.112C308.921 297.586 310.421 297.062 311.92 296.538C313.42 296.012 314.818 295.494 316.114 294.984C317.41 294.473 318.559 294.078 319.564 293.798C320.568 293.518 321.84 293.432 323.378 293.539C324.917 293.647 326.724 293.95 328.799 294.446C330.873 294.94 332.852 295.548 334.735 296.269C336.619 296.989 340.033 297.967 344.977 299.201C349.92 300.436 353.872 301.546 356.831 302.531C359.792 303.517 362.109 304.324 363.782 304.954C365.457 305.582 366.921 306.118 368.175 306.563C369.428 307.007 371.206 307.681 373.511 308.585C375.816 309.489 377.493 310.171 378.542 310.63C379.593 311.088 380.058 310.368 379.939 308.469C379.821 306.571 379.626 303.459 379.354 299.135C379.083 294.813 378.812 290.489 378.54 286.165C378.269 281.841 377.998 277.518 377.726 273.194C377.455 268.87 377.183 264.545 376.912 260.221C376.639 255.897 376.434 252.628 376.295 250.414C376.156 248.199 375.005 246.953 372.843 246.675C370.68 246.397 367.894 245.949 364.484 245.331C361.074 244.715 359.368 244.407 359.368 244.407Z" fill="#4353E9"/>
<path d="M218.028 222.76C220.701 222.792 223.228 222.888 225.606 223.048C227.68 223.188 229.384 223.354 230.707 223.55L231.251 223.636L231.252 223.637C232.531 223.854 234.636 224.025 237.601 224.142C240.543 224.258 243.266 224.231 245.77 224.062C248.314 223.89 250.298 223.755 251.722 223.659C253.168 223.562 254.669 223.515 256.221 223.518C257.738 223.52 259.092 223.481 260.287 223.4H260.288C261.529 223.317 263.378 223.246 265.829 223.186H265.829C268.295 223.127 271.425 223.128 275.215 223.19C279.013 223.253 282.363 223.399 285.262 223.632C288.154 223.863 291.204 224.19 294.411 224.612C297.496 225.017 300.583 225.882 303.67 227.199L304.287 227.469L305.523 228.014C308.49 229.308 312.047 230.758 316.197 232.364L317.923 233.025C321.831 234.5 324.891 235.521 327.116 236.097C329.707 236.768 331.879 237.308 333.632 237.716C334.942 238.021 336.34 238.321 337.825 238.615L339.338 238.907C340.899 239.202 342.693 239.57 344.719 240.011L346.822 240.476C349.727 241.128 352.58 241.785 355.383 242.445H355.384C356.783 242.774 357.832 243.02 358.532 243.185C358.882 243.267 359.145 243.329 359.319 243.37C359.407 243.391 359.472 243.407 359.515 243.417C359.537 243.422 359.554 243.425 359.565 243.428H359.568C359.58 243.43 359.595 243.433 359.613 243.437C359.667 243.446 359.747 243.46 359.854 243.48C360.067 243.518 360.386 243.577 360.812 243.654C361.665 243.808 362.944 244.038 364.649 244.346H364.65C368.052 244.962 370.821 245.407 372.962 245.683C374.194 245.841 375.254 246.291 376.024 247.126C376.797 247.963 377.177 249.075 377.257 250.349C377.395 252.563 377.602 255.833 377.874 260.156C378.01 262.318 378.146 264.481 378.281 266.643C378.417 268.805 378.553 270.966 378.688 273.128L379.502 286.101C379.774 290.425 380.045 294.748 380.316 299.071C380.587 303.394 380.783 306.506 380.901 308.405L380.918 308.782C380.928 309.152 380.915 309.496 380.874 309.808C380.82 310.214 380.71 310.635 380.48 310.99C380.23 311.377 379.855 311.657 379.379 311.739C378.997 311.805 378.627 311.73 378.303 311.607L378.167 311.551C377.136 311.1 375.472 310.424 373.169 309.521C370.868 308.618 369.1 307.949 367.862 307.51V307.509C366.602 307.061 365.132 306.523 363.454 305.894H363.453C361.796 305.271 359.492 304.467 356.536 303.484C353.609 302.509 349.683 301.405 344.75 300.173C339.809 298.939 336.344 297.951 334.4 297.208L334.4 297.207C332.788 296.59 331.102 296.057 329.341 295.608L328.582 295.42C326.54 294.932 324.786 294.641 323.313 294.537C321.834 294.434 320.679 294.522 319.814 294.763C319.09 294.965 318.281 295.231 317.384 295.564L316.457 295.918C315.148 296.434 313.738 296.956 312.229 297.485L312.228 297.486C310.729 298.009 309.23 298.534 307.73 299.059H307.729C306.193 299.596 304.648 300.027 303.093 300.35H303.092C301.583 300.663 300.124 300.972 298.717 301.28L298.716 301.281C297.241 301.601 295.316 301.837 292.956 301.995C290.616 302.153 288.174 302.317 285.631 302.489C283.113 302.66 280.396 302.948 277.478 303.355C275.278 303.662 273.251 303.957 271.397 304.24L269.599 304.52C267.289 304.887 265.085 305.298 262.988 305.754C261.084 306.169 258.79 306.482 256.116 306.697L254.947 306.783C251.689 307.004 248.257 306.688 244.655 305.849C242.015 305.234 240.053 304.763 238.779 304.44L237.734 304.165C236.883 303.93 234.481 303.579 230.44 303.118L228.608 302.914C223.49 302.354 219.794 301.938 217.524 301.667C215.24 301.394 213.052 301.06 210.963 300.665V300.664C208.881 300.272 206.591 299.79 204.094 299.214C201.893 298.707 199.334 298.021 196.417 297.158L195.146 296.778C191.706 295.738 188.627 294.779 185.91 293.901C183.518 293.128 181.466 292.367 179.76 291.615L179.051 291.294C177.264 290.463 175.266 289.539 173.057 288.524C170.842 287.505 168.988 286.617 167.497 285.862C166.048 285.129 164.231 284.312 162.043 283.406C159.843 282.497 157.278 281.453 154.347 280.276C151.378 279.083 149.028 277.879 147.333 276.652C145.645 275.429 144.458 274.065 143.982 272.525C143.586 271.24 143.342 270.109 143.282 269.154L143.26 268.901C143.234 268.672 143.197 268.515 143.161 268.415C143.152 268.391 143.142 268.375 143.136 268.362C142.818 268.173 142.269 267.861 141.482 267.422V267.421C140.449 266.845 139.572 265.908 138.829 264.691V264.69C137.787 262.981 138.531 260.958 139.976 259.022C141.498 256.98 143.487 255.43 145.914 254.366L146.758 254.009C147.573 253.677 148.297 253.422 148.928 253.251C149.739 253.031 150.503 252.917 151.131 253.035H151.132C151.809 253.162 152.913 253.149 154.509 252.938C156.258 252.706 158.715 252.826 161.829 253.256C165.013 253.696 167.975 254.589 170.708 255.943L172.571 256.871C174.318 257.75 175.716 258.477 176.761 259.05C177.899 259.675 179.059 260.141 180.243 260.452L180.752 260.576L181.952 260.858C183.249 261.172 184.835 261.584 186.709 262.094C189.221 262.777 191.335 263.44 193.045 264.081H193.046C194.712 264.708 195.899 265.075 196.642 265.215C197.318 265.343 198.421 265.33 200.018 265.117H200.018C201.626 264.905 203.435 264.626 205.446 264.28C207.501 263.926 209.612 263.675 211.778 263.528C213.899 263.385 215.862 263.2 217.666 262.975L218.316 262.885C219.802 262.661 221.066 262.337 222.12 261.922C223.447 261.398 225.023 260.862 226.844 260.312C228.665 259.761 230.489 259.264 232.317 258.82C234.094 258.388 235.866 257.852 237.632 257.213C239.366 256.586 240.877 255.825 242.172 254.938L242.173 254.937C243.526 254.011 244.488 253.243 245.095 252.627V252.626C245.634 252.08 245.768 251.638 245.746 251.279C245.71 250.716 245.608 250.156 245.435 249.596L245.357 249.356C245.201 248.904 244.898 248.543 244.359 248.271H244.358C243.738 247.957 242.542 247.588 240.682 247.185C238.839 246.786 236.738 246.402 234.379 246.034C232.014 245.666 229.966 245.384 228.233 245.186C226.904 245.034 225.315 244.81 223.467 244.515L221.534 244.197C218.829 243.74 216.068 243.18 213.249 242.517C210.392 241.845 208.112 240.947 206.473 239.782C204.81 238.6 203.581 236.979 202.785 234.952C201.972 232.881 201.894 230.785 202.569 228.71L202.706 228.322C203.424 226.418 204.712 225.034 206.538 224.224C208.307 223.439 210.022 222.98 211.677 222.868V222.867C213.239 222.761 215.36 222.727 218.028 222.76ZM218.005 224.759C215.356 224.726 213.292 224.762 211.804 224.864H211.803C210.58 224.946 209.278 225.257 207.895 225.811L207.297 226.063C205.865 226.698 204.911 227.771 204.398 229.349V229.35C203.875 230.954 203.927 232.556 204.572 234.198C205.235 235.887 206.233 237.187 207.564 238.133C208.919 239.096 210.935 239.922 213.677 240.567C216.458 241.221 219.181 241.773 221.844 242.223H221.845C224.52 242.676 226.719 243 228.444 243.197C230.21 243.399 232.284 243.686 234.665 244.057C237.052 244.428 239.19 244.818 241.076 245.227C242.943 245.631 244.348 246.04 245.204 246.473L245.376 246.565C246.228 247.04 246.851 247.747 247.174 248.684H247.173C247.451 249.492 247.619 250.314 247.671 251.149L247.678 251.356C247.678 252.384 247.198 253.29 246.443 254.055L246.444 254.056C245.707 254.803 244.626 255.653 243.234 256.605L243.235 256.606C241.788 257.598 240.13 258.428 238.268 259.102C236.439 259.764 234.601 260.319 232.757 260.767C230.963 261.203 229.172 261.691 227.384 262.232C226.043 262.637 224.851 263.031 223.804 263.413L222.806 263.792C221.417 264.339 219.777 264.724 217.899 264.96H217.898C216.053 265.191 214.054 265.378 211.903 265.523L211.904 265.524C209.798 265.667 207.751 265.91 205.762 266.252C203.732 266.602 201.899 266.884 200.262 267.101L200.263 267.102C198.619 267.321 197.275 267.367 196.297 267.183C195.385 267.011 194.071 266.593 192.388 265.961V265.962C190.752 265.348 188.698 264.703 186.22 264.029C183.731 263.351 181.774 262.853 180.343 262.53V262.53C178.803 262.184 177.307 261.613 175.858 260.818V260.817C174.499 260.072 172.508 259.05 169.877 257.748V257.747C167.338 256.49 164.572 255.652 161.575 255.239C158.505 254.815 156.249 254.723 154.754 254.921C153.11 255.139 151.766 255.186 150.789 255.003H150.786C150.588 254.965 150.161 254.984 149.417 255.186C148.7 255.38 147.787 255.717 146.666 256.208H146.665C144.52 257.148 142.808 258.495 141.503 260.245C140.122 262.097 140.135 263.089 140.458 263.62H140.459C141.082 264.64 141.735 265.292 142.396 265.66H142.397C143.242 266.132 143.836 266.47 144.169 266.669L144.171 266.67C144.594 266.924 144.832 267.337 144.969 267.718C145.072 268.006 145.138 268.329 145.177 268.672L145.207 269.022L145.208 269.023C145.253 269.752 145.447 270.709 145.819 271.914C146.112 272.864 146.916 273.91 148.438 275.012C149.953 276.11 152.143 277.246 155.044 278.411C157.979 279.591 160.551 280.637 162.758 281.549C164.973 282.465 166.836 283.304 168.342 284.065H168.343C169.805 284.805 171.637 285.682 173.84 286.696C176.05 287.712 178.051 288.636 179.841 289.469L180.517 289.775C182.144 290.491 184.13 291.23 186.483 291.99C189.188 292.864 192.255 293.82 195.686 294.858C199.11 295.894 202.051 296.694 204.513 297.261C206.99 297.832 209.256 298.311 211.309 298.697H211.31C213.354 299.084 215.499 299.412 217.745 299.68C220.004 299.95 223.692 300.365 228.811 300.925C233.893 301.48 237.076 301.914 238.232 302.234C239.274 302.522 241.55 303.075 245.078 303.898C248.526 304.701 251.772 304.994 254.822 304.787L255.969 304.703C258.587 304.493 260.792 304.189 262.592 303.797L264.212 303.457C265.852 303.126 267.55 302.822 269.307 302.543H269.308C271.641 302.174 274.279 301.784 277.221 301.372L278.32 301.224C280.863 300.889 283.258 300.645 285.505 300.493C288.049 300.321 290.491 300.157 292.83 299.999C295.148 299.843 296.972 299.615 298.319 299.322C299.733 299.014 301.198 298.703 302.713 298.389C304.186 298.083 305.652 297.675 307.112 297.164L311.611 295.59L312.71 295.2C313.788 294.812 314.808 294.428 315.771 294.049C317.087 293.53 318.269 293.123 319.313 292.832C320.457 292.513 321.844 292.43 323.443 292.542L324.057 292.593C325.517 292.735 327.172 293.03 329.015 293.471H329.014C331.126 293.975 333.145 294.594 335.068 295.331L335.825 295.606C337.759 296.275 340.875 297.148 345.202 298.229C350.156 299.466 354.134 300.583 357.126 301.579L359.23 302.286C361.214 302.96 362.841 303.536 364.108 304.013H364.109C365.78 304.64 367.239 305.174 368.487 305.617L369.535 305.997C370.682 306.42 372.122 306.971 373.852 307.65C376.158 308.554 377.849 309.242 378.916 309.708L378.93 309.713C378.941 309.665 378.953 309.606 378.962 309.536C378.994 309.298 379.003 308.968 378.976 308.534V308.533C378.857 306.635 378.663 303.524 378.392 299.2C378.12 294.878 377.849 290.555 377.578 286.231C377.442 284.069 377.306 281.906 377.17 279.744C377.034 277.582 376.899 275.42 376.763 273.258C376.627 271.096 376.492 268.934 376.356 266.773L375.949 260.286C375.676 255.963 375.471 252.694 375.332 250.479C375.273 249.538 375.008 248.918 374.63 248.509C374.251 248.098 373.654 247.787 372.725 247.668H372.724C370.538 247.387 367.735 246.935 364.318 246.317V246.316C362.613 246.008 361.333 245.777 360.481 245.623C360.055 245.546 359.735 245.489 359.522 245.45C359.415 245.431 359.335 245.417 359.282 245.407C359.255 245.403 359.236 245.398 359.222 245.396C359.216 245.395 359.211 245.394 359.207 245.394C359.206 245.393 359.204 245.393 359.204 245.393H359.203C359.187 245.39 359.17 245.387 359.155 245.383L359.154 245.382C359.153 245.382 359.151 245.382 359.15 245.382L359.089 245.367C359.045 245.357 358.979 245.341 358.892 245.321C358.717 245.279 358.455 245.218 358.105 245.136C357.406 244.971 356.356 244.724 354.956 244.395C352.16 243.737 349.312 243.082 346.413 242.431V242.43C343.519 241.781 341.046 241.263 338.993 240.875V240.874C336.914 240.483 334.986 240.081 333.209 239.667C331.879 239.357 330.316 238.974 328.522 238.518L326.649 238.037C323.999 237.351 320.284 236.081 315.522 234.239C310.761 232.395 306.76 230.751 303.524 229.306V229.305C300.383 227.903 297.264 227.003 294.168 226.596C291.386 226.23 288.727 225.936 286.192 225.716L285.114 225.626C282.62 225.426 279.775 225.29 276.577 225.217L275.185 225.19C271.408 225.128 268.306 225.127 265.875 225.185C263.43 225.245 261.612 225.315 260.411 225.395L260.412 225.396C259.166 225.48 257.767 225.52 256.218 225.518C254.704 225.515 253.248 225.561 251.847 225.655C250.423 225.751 248.439 225.886 245.895 226.058C243.315 226.232 240.525 226.259 237.528 226.141C234.554 226.023 232.346 225.849 230.94 225.611V225.61C229.642 225.391 227.827 225.201 225.481 225.043C223.725 224.925 221.885 224.843 219.959 224.795L218.005 224.759Z" fill="#4353E9"/>
<path d="M259.356 18.0578C259.625 18.0609 259.887 18.1576 260.098 18.3322L292.027 44.7814C292.318 45.0224 292.485 45.3896 292.481 45.7756L291.004 184.568C291 184.952 290.825 185.314 290.53 185.548L257.85 211.544C257.635 211.715 257.371 211.807 257.1 211.804L210.347 211.268C210.071 211.265 209.803 211.162 209.59 210.98L177.427 183.428C177.145 183.186 176.983 182.823 176.988 182.443L178.952 44.4113L178.962 44.2678C179.003 43.9381 179.17 43.6369 179.428 43.4328L211.857 17.7785L211.939 17.7189C212.137 17.5879 212.368 17.519 212.604 17.5217L259.356 18.0578ZM181.362 45.0559L179.416 181.877L210.802 208.765L256.709 209.291L288.591 183.929L290.055 46.3586L258.912 20.5607L212.993 20.0334L181.362 45.0559Z" fill="#4353E9"/>
<path d="M256.612 28.7932L256.712 28.799C256.946 28.8219 257.169 28.9147 257.354 29.0676L285.682 52.5334C285.973 52.7744 286.14 53.1415 286.136 53.5275L284.824 176.661C284.82 177.046 284.645 177.408 284.351 177.643L255.358 200.704C255.143 200.875 254.879 200.966 254.608 200.963L213.129 200.489C212.853 200.486 212.585 200.385 212.372 200.202L183.838 175.758C183.555 175.516 183.393 175.153 183.399 174.773L185.14 52.3127C185.146 51.9283 185.321 51.5674 185.616 51.3342L214.388 28.5744L214.471 28.5148C214.668 28.384 214.899 28.315 215.135 28.3176L256.612 28.7932ZM187.55 52.9582L185.826 174.207L213.583 197.987L254.217 198.45L282.41 176.024L283.71 54.1105L256.169 31.2971L215.524 30.8293L187.55 52.9582Z" fill="#4353E9"/>
<path d="M460.1 0.00683594C460.446 0.0405637 460.772 0.198166 461.022 0.454102C461.307 0.746459 461.467 1.14412 461.469 1.55957L463 316.367C463.004 317.233 462.33 317.938 461.496 317.942L3.05107 320.338C2.21642 320.342 1.53687 319.645 1.53261 318.779L1.91674e-05 3.97168C-0.00200281 3.5561 0.156026 3.15667 0.438037 2.86133C0.720066 2.56598 1.10348 2.39858 1.50435 2.39648L459.951 0L460.1 0.00683594ZM3.03129 5.52148L4.54693 317.195L459.968 314.816L458.454 3.14258L3.03129 5.52148Z" fill="white"/>
</svg>
