<svg width="480" height="321" viewBox="0 0 480 321" fill="none" xmlns="http://www.w3.org/2000/svg">
<path d="M393.109 151.183C393.4 150.983 393.764 150.913 394.112 150.996C394.51 151.091 394.837 151.373 394.987 151.753L406.369 180.514C406.514 180.88 406.478 181.294 406.273 181.629L381.631 221.981C381.544 222.123 381.43 222.247 381.295 222.344L345.78 247.972C345.219 248.377 344.435 248.251 344.03 247.689C343.625 247.127 343.752 246.343 344.313 245.938L379.622 220.458L403.807 180.855L393.313 154.34L385.89 160.92C385.372 161.379 384.579 161.331 384.12 160.813C383.661 160.295 383.709 159.503 384.227 159.044L392.989 151.277L393.109 151.183Z" fill="#4353E9"/>
<path d="M384.402 159.009C385.043 158.747 385.775 159.053 386.038 159.694C386.301 160.335 385.994 161.067 385.353 161.33L384.476 161.69C384.471 161.692 384.466 161.694 384.461 161.696L352.253 174.414C352.105 174.472 351.946 174.502 351.787 174.501L276.401 174.23L248.387 195.343L241.331 227.402L247.519 238.075C247.866 238.674 247.662 239.441 247.062 239.789C246.463 240.136 245.696 239.932 245.349 239.333L238.917 228.239C238.76 227.967 238.71 227.647 238.777 227.34L246.037 194.352L246.066 194.244C246.145 193.996 246.298 193.777 246.507 193.62L275.229 171.974L275.313 171.916C275.515 171.788 275.749 171.72 275.988 171.721L351.553 171.993L383.539 159.363L384.402 159.009Z" fill="#4353E9"/>
<path d="M264.801 163.372L361.416 167.847C362.108 167.879 362.643 168.466 362.611 169.158C362.579 169.849 361.993 170.384 361.301 170.352L265.136 165.899L243.048 182.594L233.84 215.255L247.339 237.238L359.767 246.878L387.822 225.646L402.563 197.133L397.244 193.525C396.671 193.136 396.522 192.357 396.911 191.784C397.3 191.211 398.079 191.061 398.652 191.45L404.893 195.684C405.418 196.04 405.594 196.733 405.303 197.297L389.92 227.049C389.834 227.215 389.713 227.36 389.564 227.473L360.898 249.169C360.65 249.356 360.342 249.446 360.033 249.419L246.495 239.683C246.099 239.649 245.742 239.428 245.534 239.089L231.416 216.1C231.233 215.802 231.182 215.44 231.277 215.103L240.749 181.507C240.823 181.244 240.982 181.012 241.2 180.847L263.986 163.625L264.076 163.563C264.292 163.428 264.545 163.361 264.801 163.372Z" fill="#4353E9"/>
<path d="M379.93 160.511C380.622 160.539 381.16 161.123 381.132 161.815C381.104 162.506 380.52 163.045 379.828 163.017L230.965 156.969L184.987 261.214L408.844 279.527L452.782 166.853L398.371 163.996C397.68 163.96 397.148 163.369 397.185 162.678C397.221 161.986 397.811 161.455 398.503 161.491L454.646 164.44C455.048 164.461 455.416 164.674 455.635 165.012C455.853 165.35 455.895 165.773 455.749 166.148L410.841 281.31C410.639 281.826 410.123 282.149 409.57 282.104L183.026 263.569C182.622 263.536 182.259 263.31 182.052 262.961C181.844 262.612 181.818 262.185 181.981 261.814L229.016 155.176L229.105 155.007C229.343 154.635 229.763 154.41 230.214 154.429L379.93 160.511Z" fill="#4353E9"/>
<path d="M400.171 58.0572C400.638 58.0608 401.065 58.3241 401.278 58.7398L455.678 165.01C455.882 165.408 455.859 165.884 455.617 166.26C455.375 166.636 454.951 166.855 454.504 166.835L398.842 164.256C398.151 164.224 397.615 163.637 397.647 162.946C397.679 162.254 398.267 161.718 398.958 161.751L452.46 164.228L399.391 60.5581L176.758 58.8218L230.496 154.502L380.193 160.8C380.885 160.83 381.422 161.414 381.393 162.106C381.364 162.798 380.779 163.335 380.087 163.306L229.693 156.978C229.259 156.96 228.865 156.718 228.653 156.339L173.512 58.1656C173.293 57.7758 173.299 57.2986 173.526 56.9136C173.753 56.5286 174.169 56.2939 174.616 56.2974L400.171 58.0572Z" fill="#4353E9"/>
<path d="M453.615 164.082C454.251 163.808 454.988 164.101 455.263 164.736L463.175 183.07C463.303 183.367 463.312 183.702 463.199 184.005L422.285 293.889C422.09 294.412 421.572 294.744 421.016 294.702L193.579 277.58C193.227 277.553 192.902 277.379 192.684 277.101L182.775 264.4C182.349 263.854 182.446 263.067 182.992 262.641C183.538 262.215 184.326 262.312 184.752 262.857L194.32 275.12L420.263 292.13L460.672 183.602L452.96 165.731C452.685 165.095 452.979 164.356 453.615 164.082Z" fill="#4353E9"/>
<path d="M412.86 285.323C413.262 284.909 413.923 284.898 414.338 285.299C416.807 287.689 419.191 290.023 421.487 292.3C421.897 292.706 421.899 293.367 421.493 293.777C421.087 294.187 420.425 294.189 420.016 293.783C417.725 291.513 415.348 289.186 412.885 286.801C412.47 286.399 412.459 285.738 412.86 285.323Z" fill="#4353E9"/>
<path d="M407.592 49.4234C408.061 49.4261 408.49 49.6917 408.703 50.1109L461.109 153.513C461.27 153.83 461.288 154.2 461.16 154.532L456.388 166.885C456.139 167.531 455.412 167.853 454.766 167.603C454.121 167.353 453.799 166.628 454.049 165.982L458.619 154.149L406.81 51.9263L188.721 50.6646L175.815 56.978C175.193 57.2822 174.442 57.0249 174.137 56.4029C173.833 55.7807 174.091 55.0294 174.714 54.7251L187.884 48.2827L188.016 48.2271C188.153 48.1789 188.297 48.1549 188.442 48.1558L407.592 49.4234Z" fill="#4353E9"/>
<path d="M247.719 78.0586C248.376 78.068 248.934 78.0819 249.392 78.0996L249.391 78.1006C249.845 78.117 250.31 78.1391 250.783 78.169C251.266 78.1995 251.988 78.2619 252.94 78.3555H252.941C253.924 78.4533 255.339 78.6512 257.175 78.9453C259.033 79.2417 261.072 79.6453 263.291 80.1533C265.488 80.6565 266.967 81.01 267.709 81.211C268.431 81.4066 269.116 81.5963 269.762 81.7803H269.761C270.409 81.9631 271.124 82.1713 271.906 82.4043H271.907C272.306 82.5239 272.796 82.6787 273.376 82.8682L275.385 83.5401L275.386 83.541C276.923 84.0666 278.528 84.6785 280.2 85.377C281.866 86.0732 283.263 86.7052 284.387 87.2705C285.478 87.8193 286.217 88.199 286.586 88.4024L287.723 89.0381L287.725 89.0391L288.981 89.7676L290.354 90.5948L290.356 90.5957C290.828 90.8864 291.161 91.0964 291.323 91.209C291.797 91.5379 291.915 92.1889 291.586 92.6631C291.257 93.1372 290.606 93.2555 290.132 92.9268C290.025 92.8528 289.746 92.6738 289.262 92.376V92.377C288.788 92.0865 288.34 91.8161 287.919 91.5674V91.5684C287.498 91.32 287.088 91.082 286.69 90.8555V90.8545C286.292 90.6288 285.921 90.4219 285.577 90.2325C285.25 90.0517 284.546 89.689 283.448 89.1367C282.649 88.7348 281.69 88.2915 280.569 87.8057L279.395 87.3057C277.76 86.6229 276.198 86.0276 274.709 85.5186V85.5176C273.199 85.0031 272.068 84.6338 271.309 84.4063C270.534 84.1755 269.828 83.9707 269.191 83.791H269.19C268.553 83.6098 267.877 83.4222 267.162 83.2285C266.814 83.1343 266.281 83.001 265.559 82.8282L262.824 82.1905C260.641 81.6906 258.648 81.2974 256.845 81.0098H256.844C255.019 80.7174 253.653 80.5271 252.734 80.4356V80.4346C251.788 80.3416 251.096 80.283 250.651 80.2549C250.195 80.2261 249.749 80.2032 249.314 80.1875H249.311C248.875 80.1706 248.335 80.1577 247.689 80.1485C247.074 80.141 245.783 80.1825 243.783 80.2774C241.806 80.3711 239.973 80.5177 238.283 80.7158H238.282C236.568 80.9155 235.31 81.0796 234.499 81.208H234.497C233.665 81.3383 233.028 81.4423 232.585 81.5205L232.582 81.5215C232.142 81.5978 231.475 81.7248 230.576 81.9043C229.677 82.0839 228.993 82.2258 228.521 82.3301L228.52 82.3291C228.035 82.4375 227.554 82.5445 227.075 82.6475C226.511 82.7688 225.955 82.409 225.834 81.8448C225.713 81.2807 226.072 80.7249 226.636 80.6035C227.11 80.5015 227.588 80.3974 228.067 80.2901L228.07 80.2891C228.564 80.1801 229.264 80.0349 230.167 79.8545C231.07 79.6742 231.758 79.5429 232.225 79.4619C232.687 79.3803 233.338 79.2742 234.172 79.1436L234.896 79.0352C235.701 78.9214 236.75 78.7909 238.04 78.6407V78.6397C239.785 78.4352 241.666 78.2851 243.684 78.1895C245.674 78.0951 247.03 78.0502 247.717 78.0586H247.719Z" fill="#4353E9"/>
<path d="M225.852 81.3365C226.011 80.7819 226.59 80.462 227.145 80.6216C227.784 80.8057 228.328 80.957 228.776 81.0757C229.232 81.1963 229.759 81.3335 230.356 81.4878L230.359 81.4888C230.961 81.6459 231.535 81.7991 232.081 81.9497L232.082 81.9507C232.635 82.1035 233.189 82.2679 233.744 82.4449C234.292 82.6179 234.718 82.7601 235.014 82.8687L235.648 83.1079L235.66 83.1128C235.797 83.169 235.967 83.2392 236.168 83.3238L236.174 83.3267C236.383 83.4158 236.59 83.5084 236.795 83.604C236.933 83.6675 237.081 83.7361 237.172 83.7837L237.173 83.7827C237.25 83.8227 237.314 83.8555 237.363 83.8804L237.419 83.9068C237.425 83.9096 237.428 83.9114 237.429 83.9117C237.427 83.911 237.421 83.9083 237.413 83.9048C237.946 84.1268 238.199 84.7393 237.977 85.272C237.755 85.8046 237.142 86.0565 236.609 85.8345C236.559 85.8135 236.493 85.7817 236.447 85.7593L236.439 85.7544C236.378 85.724 236.303 85.6855 236.215 85.6402L236.192 85.6285C236.197 85.6308 236.2 85.6328 236.201 85.6333C236.2 85.633 236.199 85.6325 236.196 85.6314C236.186 85.6264 236.17 85.6179 236.145 85.606C236.094 85.5821 236.02 85.5482 235.923 85.5035L235.918 85.5005C235.732 85.414 235.546 85.3306 235.358 85.2505C235.166 85.1698 235.006 85.1036 234.879 85.0513L234.293 84.8306C234.044 84.7392 233.655 84.6089 233.114 84.438L233.112 84.437C232.581 84.2677 232.052 84.11 231.525 83.9644V83.9654C230.99 83.8176 230.426 83.665 229.834 83.5103V83.5113C229.234 83.3563 228.703 83.2182 228.242 83.0962C227.774 82.9723 227.215 82.816 226.566 82.6294C226.012 82.4698 225.692 81.891 225.852 81.3365Z" fill="#4353E9"/>
<path d="M235.283 72.6549C235.754 72.3213 236.406 72.4322 236.74 72.9029C237.074 73.3739 236.962 74.0263 236.491 74.3599C236.494 74.358 236.456 74.3865 236.348 74.4752C236.251 74.5544 236.118 74.665 235.948 74.8072C235.604 75.0965 235.157 75.4672 234.611 75.9215L234.612 75.9224C234.068 76.3761 233.644 76.7315 233.34 76.9898L233.339 76.9908C233.035 77.248 232.812 77.4366 232.669 77.5601L232.67 77.5611C232.533 77.6808 232.196 77.9822 231.651 78.4732C231.116 78.9557 230.62 79.4142 230.164 79.8482C229.702 80.2873 229.366 80.6087 229.155 80.816C228.939 81.0299 228.735 81.2333 228.544 81.4234L228.541 81.4254C228.35 81.6132 228.034 81.927 227.592 82.3668C227.182 82.7733 226.521 82.7711 226.114 82.3619C225.707 81.9526 225.71 81.2912 226.119 80.8844C226.562 80.4443 226.88 80.1279 227.073 79.9371C227.265 79.7466 227.47 79.5441 227.687 79.3297L227.689 79.3277C227.913 79.1083 228.259 78.7764 228.724 78.3346C229.195 77.886 229.705 77.4149 230.252 76.9215C230.792 76.4341 231.143 76.1196 231.297 75.9859L231.301 75.983C231.451 75.8531 231.68 75.6565 231.987 75.3961C232.299 75.1319 232.728 74.7722 233.274 74.317L233.275 74.316C233.821 73.862 234.265 73.492 234.605 73.2056L234.607 73.2037C234.93 72.9336 235.175 72.7313 235.283 72.6549Z" fill="#4353E9"/>
<path d="M292.866 87.2631C293.047 86.7149 293.638 86.416 294.186 86.5961C294.734 86.7763 295.033 87.3672 294.853 87.9155L294.76 88.1957L294.758 88.1948C294.732 88.2753 294.701 88.354 294.69 88.3803C294.663 88.4445 294.627 88.5267 294.583 88.6244C294.496 88.8213 294.37 89.0975 294.207 89.4516C293.877 90.1722 293.581 90.7781 293.317 91.2612C293.066 91.7198 292.847 92.1073 292.662 92.4213L292.66 92.4243C292.476 92.735 292.258 93.0922 292.005 93.4946L292.003 93.4965C291.748 93.9004 291.517 94.254 291.311 94.5561L291.312 94.5571C291.112 94.8505 290.938 95.0987 290.791 95.2993L290.789 95.3022C290.641 95.5031 290.447 95.7564 290.208 96.0571C289.965 96.3652 289.724 96.6556 289.486 96.9282L289.482 96.9321C289.251 97.1928 289.055 97.408 288.899 97.5746L288.896 97.5785C288.746 97.7367 288.615 97.871 288.506 97.9799C288.401 98.0847 288.235 98.2497 288.008 98.4711C287.595 98.8743 286.933 98.8665 286.53 98.4535C286.127 98.0407 286.135 97.3792 286.547 96.976C286.774 96.7548 286.933 96.5976 287.029 96.5024C287.12 96.4114 287.236 96.2911 287.379 96.1401C287.515 95.9959 287.692 95.8001 287.913 95.5502C288.127 95.3062 288.346 95.0431 288.569 94.7602L288.571 94.7582C288.801 94.4669 288.979 94.2363 289.106 94.0639C289.233 93.8889 289.392 93.6621 289.583 93.3813L289.584 93.3803C289.773 93.1042 289.99 92.7721 290.236 92.3823C290.481 91.9909 290.69 91.6492 290.863 91.3578C291.032 91.0697 291.239 90.7035 291.483 90.2573C291.714 89.8337 291.99 89.2768 292.308 88.5815C292.469 88.2294 292.591 87.9614 292.673 87.7758C292.714 87.6826 292.744 87.6139 292.764 87.5678C292.773 87.545 292.778 87.5321 292.78 87.5268L292.866 87.2631Z" fill="#4353E9"/>
<path d="M111.178 140.476C111.51 140.457 111.839 140.571 112.089 140.796L131.573 158.34L131.648 158.413C131.814 158.59 131.926 158.813 131.968 159.054L137.197 188.65C137.245 188.925 137.2 189.209 137.069 189.456L124.748 212.656C124.566 212.997 124.238 213.236 123.858 213.303L39.1157 228.275C38.7367 228.341 38.3478 228.231 38.061 227.974L18.3374 210.31C18.1282 210.122 17.9878 209.87 17.939 209.594L12.7104 180C12.6606 179.718 12.7095 179.426 12.8481 179.175L25.814 155.701C25.9979 155.368 26.323 155.137 26.6978 155.072L111.037 140.492L111.178 140.476ZM27.7183 157.441L15.2573 179.999L20.3325 208.731L39.2788 225.698L122.819 210.939L134.651 188.659L129.573 159.913L110.863 143.066L27.7183 157.441Z" fill="#4353E9"/>
<path d="M106.941 145.3C107.32 145.235 107.708 145.347 107.994 145.604L125.282 161.169L125.356 161.243C125.523 161.42 125.635 161.642 125.677 161.883L130.316 188.139C130.365 188.415 130.319 188.699 130.188 188.946L119.256 209.53C119.075 209.871 118.747 210.109 118.367 210.176L43.1831 223.459C42.8041 223.525 42.4152 223.414 42.1284 223.158L24.6304 207.488C24.4212 207.301 24.2808 207.048 24.2319 206.772L19.5933 180.516C19.5434 180.234 19.5923 179.942 19.731 179.691L31.2349 158.866L31.3101 158.746C31.5006 158.477 31.7906 158.293 32.1187 158.236L106.941 145.3ZM33.1382 160.605L22.1401 180.515L26.6255 205.909L43.3462 220.882L117.328 207.812L127.77 188.149L123.282 162.744L106.768 147.875L33.1382 160.605Z" fill="#4353E9"/>
<path d="M146.179 160.908C146.749 160.821 147.282 161.214 147.369 161.784L147.45 162.308L147.452 162.327C147.475 162.496 147.608 164.591 147.849 168.481C148.093 172.417 148.226 175.453 148.245 177.575L148.259 180.28C148.258 181.035 148.252 181.644 148.241 182.104C148.218 183.005 148.197 183.693 148.178 184.162C148.159 184.636 148.043 186.7 147.831 190.33C147.798 190.906 147.304 191.346 146.728 191.313C146.152 191.279 145.712 190.785 145.745 190.209C145.958 186.563 146.072 184.527 146.09 184.077C146.108 183.624 146.129 182.949 146.152 182.051C146.174 181.171 146.176 179.69 146.156 177.596V177.595C146.137 175.528 146.007 172.537 145.763 168.61C145.641 166.644 145.548 165.155 145.483 164.143C145.45 163.636 145.425 163.25 145.407 162.983L145.38 162.604L145.303 162.099C145.216 161.528 145.609 160.995 146.179 160.908Z" fill="#4353E9"/>
<path d="M160.631 172.448C163.149 172.428 165.083 172.433 166.429 172.463C167.765 172.492 169.043 172.534 170.265 172.586L170.264 172.587C171.493 172.638 173.186 172.741 175.339 172.898C177.506 173.055 179.835 173.286 182.322 173.591C184.799 173.894 186.686 174.154 187.972 174.371H187.973C189.253 174.589 190.624 174.858 192.084 175.179H192.083C193.534 175.496 194.639 175.754 195.386 175.954C196.126 176.152 196.947 176.393 197.845 176.677H197.844C198.737 176.958 199.511 177.216 200.165 177.451C200.819 177.685 201.521 177.958 202.268 178.268L203.117 178.613C203.652 178.831 203.909 179.441 203.691 179.976C203.474 180.51 202.864 180.767 202.33 180.55L201.479 180.203L201.474 180.201C200.751 179.901 200.08 179.641 199.462 179.42L199.46 179.419C198.84 179.196 198.092 178.946 197.216 178.67H197.215C196.34 178.394 195.55 178.161 194.846 177.973C194.147 177.786 193.081 177.536 191.637 177.221H191.636C190.203 176.906 188.865 176.643 187.622 176.432V176.431C186.385 176.222 184.537 175.967 182.068 175.665C179.61 175.364 177.316 175.137 175.188 174.983C173.042 174.827 171.373 174.724 170.176 174.674H170.175C168.969 174.622 167.705 174.582 166.383 174.553C165.069 174.524 163.16 174.519 160.648 174.539C158.774 174.554 156.913 174.598 155.066 174.672L153.225 174.755C151.993 174.817 151.066 174.864 150.445 174.896C150.135 174.911 149.901 174.924 149.744 174.932C149.666 174.936 149.607 174.939 149.567 174.941C149.485 174.946 149.533 174.944 149.584 174.938L149.583 174.937C149.513 174.945 149.299 174.964 149.021 174.988C148.447 175.038 147.94 174.612 147.891 174.037C147.841 173.462 148.267 172.956 148.842 172.906C149.003 172.892 149.126 172.882 149.21 172.874C149.252 172.87 149.284 172.867 149.305 172.865C149.315 172.864 149.322 172.864 149.325 172.863C149.334 172.862 149.324 172.864 149.308 172.866C149.329 172.863 149.347 172.862 149.351 172.861C149.357 172.861 149.363 172.86 149.366 172.859C149.372 172.859 149.378 172.859 149.381 172.858C149.388 172.858 149.396 172.858 149.402 172.858C149.415 172.857 149.433 172.856 149.453 172.855C149.495 172.852 149.556 172.849 149.635 172.845C149.793 172.837 150.028 172.825 150.339 172.809C150.96 172.777 151.887 172.731 153.118 172.669V172.668C155.597 172.542 158.102 172.468 160.631 172.448Z" fill="#4353E9"/>
<path d="M202.191 178.683C202.687 178.389 203.329 178.552 203.623 179.048C203.917 179.545 203.754 180.185 203.258 180.48C202.519 180.919 201.984 181.239 201.65 181.445L201.651 181.446C201.308 181.659 200.903 181.908 200.438 182.193L200.436 182.194C199.963 182.482 199.263 182.896 198.341 183.434H198.34C197.877 183.704 197.387 183.987 196.868 184.285L195.229 185.217C194.081 185.867 193.377 186.268 193.108 186.425C192.611 186.717 191.971 186.55 191.679 186.052C191.387 185.554 191.554 184.915 192.052 184.623C192.338 184.455 193.057 184.044 194.199 183.398H194.2C195.344 182.752 196.373 182.162 197.288 181.628C197.748 181.36 198.149 181.125 198.492 180.921L199.349 180.409C199.811 180.126 200.211 179.88 200.549 179.669L200.551 179.669C200.9 179.453 201.449 179.124 202.191 178.683Z" fill="#4353E9"/>
<path d="M193.066 168.522C193.507 168.15 194.167 168.207 194.538 168.649C194.595 168.716 194.938 169.11 195.586 169.851L198.08 172.676C199.103 173.83 200.915 175.905 203.514 178.897C203.892 179.332 203.845 179.992 203.409 180.37C202.974 180.748 202.314 180.702 201.936 180.267C199.337 177.275 197.531 175.208 196.517 174.063C195.496 172.911 194.662 171.967 194.015 171.229L194.014 171.228C193.375 170.498 193.011 170.08 192.939 169.994C192.567 169.553 192.624 168.893 193.066 168.522Z" fill="#4353E9"/>
<path d="M376.368 159.958C375.799 160.072 374.907 160.229 373.692 160.428C372.479 160.626 371.692 160.739 371.332 160.766C370.973 160.794 370.127 160.839 368.794 160.902C367.462 160.964 366.048 160.907 364.552 160.73C363.057 160.552 361.076 160.393 358.608 160.252C356.139 160.11 354.926 160.092 354.97 160.198C355.014 160.303 356.271 160.426 358.74 160.568C361.208 160.709 363.189 160.868 364.684 161.046C366.18 161.223 367.594 161.28 368.926 161.218C370.259 161.154 371.121 161.071 371.51 160.97L372.096 160.818L373.862 164.156C375.541 167.284 376.613 169.553 377.08 170.964C377.547 172.376 377.893 173.868 378.12 175.442C378.345 177.015 378.264 178.593 377.876 180.176C377.488 181.76 376.826 183.056 375.89 184.066C374.953 185.075 374.004 185.688 373.044 185.904C372.084 186.12 371.284 186.053 370.644 185.704C370.003 185.354 369.105 184.464 367.95 183.032C366.795 181.6 365.619 180.115 364.42 178.578C363.221 177.04 362.019 175.937 360.812 175.268C359.605 174.598 358.129 173.95 356.384 173.322C354.637 172.692 352.779 172.018 350.81 171.298C348.841 170.576 346.939 169.796 345.106 168.958C343.273 168.118 341.665 167.153 340.282 166.064C338.899 164.974 337.629 163.931 336.47 162.934C335.311 161.935 333.935 160.935 332.342 159.934C330.75 158.931 329.098 157.861 327.386 156.724C325.675 155.586 324.085 154.368 322.614 153.068C321.143 151.768 319.778 150.424 318.518 149.036C317.258 147.648 316.079 146.38 314.982 145.234C313.885 144.087 311.329 142.862 307.316 141.56C303.301 140.257 301.077 139.519 300.644 139.346C300.211 139.172 300.162 137.255 300.498 133.594C300.835 129.931 300.725 126.202 300.168 122.406C299.612 118.61 299.071 115.192 298.544 112.152C298.017 109.112 298.301 104.849 299.394 99.3636C300.487 93.8782 302.143 89.7076 304.36 86.8516C306.576 83.9969 307.772 82.4896 307.948 82.3296C308.125 82.1683 310.118 82.2477 313.926 82.5677C317.734 82.8863 321.811 83.2744 326.158 83.7317C330.505 84.1891 334.722 84.7709 338.81 85.4776C342.898 86.1843 345.742 86.7624 347.342 87.2117C348.942 87.6597 351.653 88.5262 355.476 89.8116C359.299 91.0982 361.41 91.7904 361.81 91.8877C362.211 91.9864 363.846 92.3623 366.714 93.0157C369.582 93.669 372.207 94.7024 374.59 96.1158C376.973 97.5278 379.368 99.825 381.776 103.008C384.184 106.192 385.589 108.075 385.992 108.658C386.395 109.242 388.27 110.678 391.618 112.968C394.965 115.257 396.661 116.432 396.706 116.492C396.75 116.552 397.121 118.606 397.82 122.654C398.517 126.703 398.841 129.101 398.79 129.848C398.738 130.593 399.121 132.092 399.94 134.346C400.759 136.598 402.037 139.628 403.774 143.438C405.513 147.248 407.018 149.739 408.29 150.91C409.562 152.079 411.06 153.322 412.784 154.64C414.509 155.957 415.787 157.09 416.616 158.04C417.447 158.99 417.887 160.042 417.936 161.196C417.987 162.348 417.885 163.656 417.632 165.122C417.38 166.586 417.17 168.372 417.002 170.482C416.834 172.591 416.359 174.705 415.578 176.824C414.795 178.942 412.774 178.617 409.514 175.848C406.254 173.078 404.613 171.664 404.59 171.606C404.567 171.547 404.646 171.511 404.826 171.498C405.005 171.484 405.535 171.572 406.416 171.76C407.297 171.946 407.753 172.002 407.784 171.928C407.815 171.853 407.389 171.722 406.508 171.536C405.627 171.348 405.096 171.26 404.916 171.274C404.737 171.287 404.139 171.26 403.122 171.192C402.105 171.122 401.164 170.867 400.3 170.426C399.436 169.984 398.699 169.552 398.088 169.128C397.479 168.702 396.461 167.892 395.034 166.698C393.607 165.503 393.65 164.868 395.162 164.792L397.432 164.676L398.102 164.952L397.878 164.86L397.208 164.584C394.183 164.737 391.719 164.903 389.816 165.082C387.915 165.259 386.433 165.261 385.372 165.088C384.311 164.914 382.567 164.068 380.14 162.55C377.713 161.032 377.138 160.1 378.414 159.752L380.326 159.228L382.442 158.528L382.218 158.438L380.102 159.138C377.613 159.684 376.368 159.958 376.368 159.958Z" fill="#4353E9"/>
<path d="M309.615 81.2691C310.634 81.3096 312.102 81.4105 314.01 81.5708C317.826 81.8902 321.91 82.2789 326.263 82.7368C330.63 83.1964 334.869 83.7821 338.98 84.4927C343.067 85.1991 345.957 85.7838 347.612 86.2486H347.611C349.239 86.7042 351.972 87.5785 355.795 88.8638L358.351 89.7202C360.571 90.4604 361.788 90.8535 362.047 90.9165H362.049C362.44 91.0126 364.063 91.3859 366.936 92.0406C369.899 92.7156 372.623 93.7859 375.101 95.2554H375.1C377.631 96.7559 380.119 99.1598 382.573 102.404V102.405C384.374 104.785 385.624 106.452 386.313 107.392L386.814 108.089L386.815 108.09C386.843 108.13 386.957 108.262 387.233 108.507C387.493 108.738 387.85 109.028 388.309 109.379C388.996 109.906 389.893 110.555 391.002 111.328L392.183 112.142L395.97 114.744C396.394 115.038 396.718 115.265 396.94 115.422C397.051 115.501 397.141 115.565 397.206 115.613C397.238 115.636 397.27 115.661 397.299 115.683C397.312 115.694 397.333 115.711 397.354 115.73C397.365 115.739 397.383 115.754 397.402 115.773L397.504 115.889L397.513 115.901C397.576 115.988 397.611 116.065 397.622 116.09C397.638 116.125 397.649 116.155 397.655 116.173C397.668 116.209 397.677 116.242 397.683 116.261C397.694 116.303 397.704 116.348 397.713 116.388C397.732 116.472 397.755 116.584 397.781 116.718C397.835 116.99 397.909 117.385 398.002 117.899C398.188 118.93 398.456 120.459 398.806 122.484L399.051 123.93C399.278 125.301 399.453 126.444 399.576 127.356C399.735 128.532 399.821 129.423 399.788 129.916L399.787 129.918C399.773 130.121 399.82 130.551 400.007 131.284C400.187 131.989 400.476 132.894 400.88 134.004C401.685 136.22 402.95 139.223 404.684 143.023C406.423 146.836 407.858 149.154 408.966 150.173C410.211 151.318 411.686 152.542 413.392 153.845H413.391C415.137 155.179 416.475 156.358 417.369 157.381C418.334 158.486 418.876 159.751 418.935 161.153H418.935C418.989 162.393 418.879 163.776 418.617 165.293C418.372 166.717 418.165 168.471 417.999 170.561C417.823 172.767 417.327 174.971 416.517 177.169L416.516 177.17C416.271 177.832 415.887 178.419 415.298 178.796C414.696 179.182 414.006 179.267 413.316 179.156C412.015 178.946 410.514 178.01 408.866 176.61C407.236 175.225 406.009 174.178 405.185 173.468C404.774 173.114 404.461 172.841 404.248 172.653C404.142 172.559 404.056 172.482 403.993 172.423C403.963 172.395 403.93 172.364 403.901 172.335C403.888 172.321 403.864 172.298 403.84 172.269C403.833 172.261 403.823 172.249 403.811 172.234C403.584 172.221 403.331 172.208 403.056 172.19L403.054 172.189C401.908 172.111 400.835 171.822 399.845 171.316C398.952 170.86 398.174 170.405 397.518 169.949L397.516 169.948C396.866 169.494 395.817 168.658 394.392 167.464C394.008 167.143 393.679 166.824 393.441 166.509C393.31 166.336 393.16 166.103 393.071 165.827C392.491 165.866 391.943 165.906 391.428 165.947L389.909 166.078C387.978 166.258 386.397 166.268 385.211 166.075C384.537 165.965 383.732 165.66 382.831 165.223C381.916 164.779 380.84 164.167 379.609 163.397V163.398C378.982 163.006 378.454 162.638 378.035 162.296C377.629 161.965 377.268 161.611 377.037 161.237C376.973 161.132 376.911 161.009 376.86 160.873C376.845 160.876 376.83 160.88 376.815 160.883C376.738 160.9 376.679 160.913 376.641 160.921C376.621 160.926 376.606 160.929 376.597 160.931C376.592 160.932 376.588 160.933 376.586 160.933L376.583 160.934C376.577 160.935 376.571 160.937 376.565 160.938C376.271 160.997 375.897 161.067 375.445 161.146L373.853 161.415C373.755 161.431 373.659 161.443 373.566 161.459L374.743 163.683L375.346 164.819C376.69 167.383 377.595 169.336 378.029 170.65C378.455 171.938 378.783 173.286 379.016 174.693L379.109 175.299L379.11 175.3C379.339 176.897 379.275 178.497 378.922 180.094L378.848 180.414C378.427 182.132 377.694 183.59 376.623 184.746V184.747C375.601 185.847 374.485 186.605 373.264 186.879C372.15 187.13 371.083 187.083 370.165 186.582V186.581C369.328 186.124 368.32 185.083 367.172 183.66C366.014 182.223 364.834 180.734 363.632 179.193C362.484 177.721 361.378 176.725 360.327 176.142C359.18 175.506 357.756 174.878 356.045 174.262C354.297 173.632 352.437 172.957 350.467 172.237H350.466C348.473 171.507 346.548 170.717 344.69 169.867H344.689C342.794 168.998 341.116 167.994 339.663 166.849C338.271 165.752 336.988 164.7 335.817 163.692V163.691C334.704 162.731 333.37 161.761 331.81 160.781L331.809 160.78C330.209 159.773 328.551 158.698 326.833 157.557L326.832 157.556C325.085 156.395 323.457 155.148 321.951 153.817C320.454 152.494 319.063 151.124 317.777 149.708C316.522 148.325 315.35 147.064 314.26 145.925C313.836 145.482 313.051 144.951 311.81 144.357C310.587 143.771 308.99 143.155 307.007 142.511C303.019 141.217 300.746 140.463 300.272 140.274C299.921 140.133 299.725 139.865 299.624 139.683C299.52 139.494 299.458 139.292 299.417 139.114C299.334 138.755 299.296 138.306 299.283 137.803C299.257 136.785 299.333 135.344 299.502 133.502V133.501C299.832 129.921 299.725 126.272 299.179 122.551V122.55C298.624 118.761 298.083 115.352 297.559 112.323C297 109.1 297.312 104.693 298.413 99.1685C299.522 93.6063 301.22 89.2662 303.57 86.2388C304.679 84.8106 305.534 83.7164 306.136 82.9585C306.436 82.5801 306.675 82.2821 306.852 82.0669C307.003 81.8842 307.165 81.69 307.275 81.5894V81.5904C307.443 81.4376 307.621 81.3745 307.693 81.3511C307.786 81.3211 307.874 81.3043 307.941 81.2935C308.078 81.2716 308.231 81.2602 308.384 81.2544C308.694 81.2427 309.109 81.2489 309.615 81.2691ZM308.467 83.2525C308.446 83.2777 308.422 83.306 308.396 83.3374C308.231 83.539 308 83.8265 307.702 84.2017C307.107 84.9511 306.257 86.038 305.149 87.4644V87.4654C303.065 90.1499 301.453 94.151 300.375 99.5591C299.289 105.006 299.034 109.124 299.529 111.981C300.058 115.031 300.6 118.458 301.157 122.26C301.69 125.889 301.822 129.464 301.553 132.982L301.494 133.685C301.327 135.505 301.259 136.853 301.282 137.752C301.291 138.105 301.314 138.36 301.341 138.533C302.151 138.817 304.229 139.507 307.625 140.609C309.655 141.268 311.343 141.915 312.675 142.553C313.989 143.183 315.031 143.839 315.704 144.543C316.808 145.697 317.994 146.97 319.259 148.364C320.493 149.723 321.832 151.042 323.276 152.319C324.711 153.587 326.265 154.778 327.939 155.891L329.207 156.728C330.464 157.553 331.686 158.339 332.875 159.087H332.874C334.5 160.109 335.918 161.138 337.122 162.175C338.268 163.162 339.528 164.196 340.9 165.278C342.212 166.312 343.751 167.237 345.522 168.048H345.521C347.33 168.876 349.208 169.646 351.154 170.359C353.122 171.078 354.978 171.752 356.723 172.38L357.378 172.623C358.88 173.189 360.189 173.778 361.297 174.393C362.659 175.149 363.959 176.36 365.209 177.962C366.404 179.496 367.577 180.976 368.728 182.404C369.889 183.844 370.677 184.583 371.122 184.826H371.123C371.485 185.023 372.018 185.11 372.824 184.928C373.523 184.771 374.304 184.304 375.157 183.385C375.958 182.522 376.549 181.387 376.904 179.938C377.262 178.477 377.336 177.028 377.13 175.585L377.043 175.019C376.826 173.708 376.522 172.461 376.131 171.278C375.694 169.958 374.659 167.756 372.98 164.628L372.978 164.624L371.578 161.978C371.036 162.087 370.138 162.16 368.974 162.216H368.973C367.579 162.282 366.11 162.222 364.566 162.039C363.1 161.865 361.141 161.707 358.683 161.566C357.445 161.495 356.497 161.429 355.848 161.365C355.527 161.333 355.257 161.3 355.057 161.265C354.961 161.248 354.847 161.225 354.741 161.191C354.691 161.175 354.604 161.145 354.511 161.093C354.462 161.066 354.188 160.921 354.047 160.584C353.96 160.377 353.934 160.116 354.026 159.854C354.11 159.618 354.26 159.471 354.354 159.396C354.525 159.261 354.699 159.213 354.747 159.2C354.88 159.163 355.015 159.15 355.099 159.144C355.291 159.13 355.553 159.128 355.861 159.132C356.49 159.142 357.428 159.183 358.665 159.253C361.142 159.395 363.146 159.556 364.67 159.737C366.118 159.909 367.477 159.963 368.747 159.903C370.085 159.84 370.914 159.796 371.254 159.769L371.258 159.768C371.565 159.745 372.305 159.641 373.53 159.441C374.136 159.342 374.659 159.253 375.099 159.176L376.171 158.977C376.18 158.975 376.194 158.972 376.212 158.968C376.251 158.96 376.309 158.946 376.387 158.929C376.542 158.895 376.776 158.844 377.087 158.776C377.701 158.641 378.617 158.439 379.837 158.171L381.904 157.488L381.989 157.464C382.189 157.417 382.399 157.433 382.591 157.51L382.815 157.6C383.205 157.757 383.455 158.14 383.441 158.559C383.428 158.979 383.154 159.345 382.756 159.477L380.64 160.177C380.623 160.183 380.607 160.187 380.591 160.192L379.122 160.594C379.175 160.641 379.234 160.693 379.3 160.747C379.631 161.017 380.084 161.335 380.67 161.702H380.671C381.866 162.45 382.876 163.021 383.704 163.423C384.547 163.832 385.146 164.038 385.533 164.101C386.47 164.254 387.852 164.26 389.723 164.085C391.645 163.905 394.125 163.738 397.157 163.585C397.305 163.577 397.452 163.602 397.589 163.659L397.813 163.751L398.483 164.027C398.994 164.237 399.236 164.822 399.026 165.333C398.816 165.843 398.232 166.086 397.722 165.876L397.721 165.876L397.498 165.785H397.497L397.257 165.685L395.497 165.776C395.552 165.825 395.611 165.877 395.676 165.931C397.101 167.125 398.088 167.908 398.657 168.306H398.658C399.223 168.698 399.919 169.108 400.755 169.535C401.492 169.911 402.301 170.133 403.19 170.194H403.189C403.695 170.228 404.09 170.251 404.379 170.264C404.523 170.271 404.637 170.274 404.722 170.276C404.813 170.278 404.845 170.277 404.842 170.277L405.024 170.274C405.215 170.281 405.427 170.312 405.611 170.342C405.898 170.39 406.268 170.462 406.714 170.557H406.715C407.161 170.652 407.524 170.739 407.781 170.818C407.9 170.854 408.049 170.905 408.183 170.974C408.239 171.003 408.376 171.078 408.503 171.212C408.628 171.345 408.931 171.765 408.709 172.307C408.528 172.747 408.139 172.877 408.046 172.906C407.908 172.948 407.785 172.956 407.72 172.959C407.702 172.959 407.685 172.957 407.667 172.958C408.353 173.544 409.183 174.254 410.161 175.085C411.773 176.455 412.914 177.065 413.634 177.181C413.955 177.233 414.121 177.175 414.22 177.112C414.331 177.041 414.493 176.874 414.64 176.477C415.391 174.439 415.845 172.415 416.005 170.403C416.174 168.275 416.388 166.455 416.646 164.952L416.731 164.429C416.912 163.231 416.977 162.17 416.936 161.24V161.239C416.898 160.334 416.559 159.494 415.863 158.698C415.098 157.822 413.881 156.735 412.177 155.434C410.434 154.103 408.912 152.84 407.613 151.646C406.177 150.324 404.601 147.66 402.864 143.853V143.852C401.123 140.034 399.832 136.975 399 134.687C398.585 133.544 398.272 132.572 398.069 131.779C397.873 131.012 397.754 130.32 397.792 129.778C397.809 129.523 397.759 128.841 397.595 127.623C397.435 126.441 397.183 124.843 396.835 122.824C396.486 120.801 396.218 119.278 396.033 118.255C395.941 117.743 395.87 117.36 395.819 117.103C395.817 117.093 395.814 117.083 395.812 117.074C395.803 117.067 395.794 117.06 395.784 117.053C395.571 116.902 395.254 116.681 394.831 116.388C393.985 115.803 392.727 114.937 391.054 113.793V113.793C389.374 112.645 388.051 111.701 387.093 110.967C386.614 110.601 386.216 110.278 385.906 110.003C385.614 109.744 385.343 109.477 385.169 109.225V109.226C384.975 108.946 384.532 108.34 383.835 107.406L380.978 103.611C378.765 100.685 376.602 98.5775 374.5 97.2349L374.08 96.9761C371.792 95.6191 369.265 94.6224 366.492 93.9908C363.635 93.3398 361.988 92.9609 361.573 92.8589C361.231 92.7757 359.923 92.3536 357.693 91.6099L355.157 90.7593C351.334 89.474 348.645 88.6147 347.072 88.1743H347.071C345.526 87.7405 342.729 87.1703 338.64 86.4634C334.575 85.7607 330.379 85.1812 326.054 84.7261C321.713 84.2694 317.643 83.882 313.843 83.564H313.842C311.942 83.4044 310.51 83.3059 309.536 83.2671C309.052 83.2478 308.699 83.2441 308.467 83.2525ZM404.883 172.272L404.898 172.493H404.899L404.884 172.272H404.883Z" fill="#4353E9"/>
<path d="M477 0.0078125C477.791 0.0841323 478.41 0.748285 478.414 1.55957L480.003 316.367C480.005 316.783 479.841 317.182 479.549 317.478C479.257 317.773 478.859 317.94 478.443 317.942L3.16311 320.338C2.29781 320.342 1.5933 319.645 1.58889 318.779L1.98735e-05 3.97168C-0.00207647 3.5561 0.161755 3.15667 0.454121 2.86133C0.746506 2.56598 1.144 2.39858 1.55959 2.39648L476.84 0L477 0.0078125ZM3.1426 5.52148L4.71389 317.195L476.859 314.816L475.288 3.14258L3.1426 5.52148Z" fill="white"/>
</svg>
