<svg width="315" height="84" viewBox="0 0 315 84" fill="none" xmlns="http://www.w3.org/2000/svg">
<path d="M19.8602 77.8266C18.6291 78.9539 17.2662 79.7901 15.7716 80.3352C14.2929 80.8657 12.7973 81.1028 11.2849 81.0466C9.75784 80.9743 8.28231 80.6197 6.85823 79.9826C5.4356 79.3147 4.16405 78.3615 3.04358 77.123C1.9231 75.8844 1.1145 74.522 0.617766 73.0358C0.121031 71.5496 -0.0761423 70.0391 0.0262474 68.5042C0.130074 66.9387 0.537147 65.4337 1.24747 63.9892C1.94323 62.5287 2.92267 61.2201 4.18576 60.0636C5.64072 58.7314 7.19988 57.789 8.86324 57.2365C10.5426 56.6693 12.196 56.4935 13.8234 56.7091L13.5928 61.6406C12.4089 61.4306 11.2891 61.4853 10.2335 61.8049C9.17792 62.1244 8.18645 62.7088 7.25911 63.5579C6.26782 64.4655 5.58417 65.5032 5.20818 66.671C4.81763 67.8226 4.76231 69.0056 5.0422 70.2198C5.32354 71.4032 5.94441 72.5258 6.90481 73.5874C7.86522 74.6491 8.92505 75.3844 10.0843 75.7934C11.2436 76.2024 12.4027 76.2881 13.5616 76.0504C14.7205 75.8127 15.7876 75.2474 16.7629 74.3543C17.7542 73.4467 18.4263 72.4931 18.7791 71.4936C19.1333 70.4634 19.1742 69.4261 18.9017 68.3816C18.6306 67.3064 18.0294 66.254 17.0981 65.2246L21.1202 64.6297L13.4565 71.4264L10.5534 68.2173L19.4511 60.0703L19.9531 60.6252C21.8011 62.6681 22.9904 64.726 23.5209 66.7988C24.0529 68.841 23.9915 70.8089 23.3367 72.7024C22.6978 74.5814 21.539 76.2895 19.8602 77.8266Z" fill="white"/>
<path d="M37.2346 63.1635C35.8668 64.1924 34.439 64.8319 32.9512 65.082C31.4678 65.3016 30.0477 65.1342 28.6908 64.5797C27.334 64.0253 26.183 63.1122 25.238 61.8406C24.2929 60.569 23.7458 59.2153 23.5966 57.7796C23.4517 56.3134 23.6765 54.9087 24.2708 53.5654C24.8652 52.2221 25.803 51.0686 27.0842 50.1048C28.3309 49.167 29.631 48.61 30.9846 48.4336C32.3382 48.2573 33.6394 48.4463 34.8882 49.0006C36.1542 49.5419 37.2469 50.4309 38.166 51.6677C38.3343 51.8942 38.4982 52.1511 38.6578 52.4384C38.8217 52.6953 38.992 53.0153 39.1688 53.3984L28.3061 61.6103L26.2671 58.8667L35.4416 51.9247L34.5819 54.3638C34.0209 53.6452 33.4617 53.1288 32.9044 52.8148C32.3342 52.4834 31.7506 52.352 31.1538 52.4207C30.5614 52.459 29.9709 52.6995 29.3822 53.1423C28.7589 53.6112 28.3235 54.1695 28.0761 54.8173C27.833 55.4347 27.7759 56.1023 27.9045 56.8203C28.0505 57.5252 28.4018 58.2522 28.9585 59.0012C29.5151 59.7502 30.124 60.2971 30.785 60.6417C31.4504 60.9559 32.1356 61.0787 32.8405 61.0102C33.5497 60.9112 34.242 60.6077 34.9172 60.0998C35.5405 59.6309 36.0256 59.1031 36.3724 58.5164C36.7062 57.9122 36.9017 57.2491 36.959 56.5271L40.7718 57.0809C40.6922 58.2814 40.3468 59.3966 39.7356 60.4267C39.1245 61.4567 38.2908 62.369 37.2346 63.1635Z" fill="white"/>
<path d="M47.3019 55.5138L35.3202 36.6178L39.5031 33.9332L51.4849 52.8292L47.3019 55.5138ZM38.0858 47.6521L35.8185 44.0764L46.016 37.5316L48.2833 41.1073L38.0858 47.6521Z" fill="white"/>
<path d="M67.4897 43.926L54.6964 32.5068L59.5001 30.1356L68.7254 39.6456L66.9495 40.5222L65.2063 27.3189L70.0099 24.9477L70.9251 42.2302L67.4897 43.926ZM66.7503 51.6681L66.5013 40.3438L70.9251 42.2302L71.321 49.4119L66.7503 51.6681Z" fill="white"/>
<path d="M86.0743 36.074C84.5573 36.6498 83.0559 36.8362 81.5702 36.633C80.0971 36.4017 78.7852 35.8304 77.6346 34.9188C76.4841 34.0072 75.634 32.8188 75.0845 31.3537C74.5351 29.8885 74.3968 28.4415 74.6698 27.0129C74.9427 25.5842 75.5601 24.3037 76.5219 23.1715C77.476 22.0189 78.7217 21.1509 80.259 20.5674C81.7963 19.9838 83.2976 19.7975 84.7631 20.0084C86.2286 20.2193 87.5366 20.7805 88.6872 21.692C89.8302 22.5833 90.6764 23.7615 91.2259 25.2267C91.7753 26.6918 91.9174 28.149 91.6521 29.598C91.3868 31.047 90.7771 32.3478 89.8229 33.5004C88.8611 34.6326 87.6116 35.4905 86.0743 36.074ZM84.4831 31.831C85.1506 31.5777 85.6838 31.2126 86.0826 30.7357C86.4738 30.2385 86.7017 29.6755 86.7662 29.0465C86.8434 28.3896 86.7522 27.7152 86.4927 27.0233C86.2332 26.3314 85.8665 25.7848 85.3925 25.3836C84.9109 24.962 84.3639 24.7047 83.7513 24.6117C83.1514 24.4908 82.5177 24.5569 81.8502 24.8103C81.2029 25.056 80.6837 25.4275 80.2925 25.9247C79.8936 26.4015 79.6518 26.9582 79.5671 27.5948C79.4823 28.2314 79.5697 28.8956 79.8292 29.5875C80.081 30.2591 80.4515 30.8158 80.9408 31.2578C81.4224 31.6794 81.9733 31.9469 82.5934 32.0602C83.2059 32.1531 83.8358 32.0767 84.4831 31.831Z" fill="white"/>
<path d="M103.945 30.2252C102.546 30.6015 101.228 30.6519 99.9911 30.3765C98.7696 30.0745 97.7221 29.5007 96.8485 28.6549C95.9693 27.7881 95.3539 26.6928 95.0023 25.369L92.6414 16.4806L97.4348 15.1919L99.7789 24.0173C99.9184 24.5426 100.122 24.9719 100.39 25.3052C100.678 25.6329 101.028 25.8541 101.439 25.9688C101.849 26.0834 102.305 26.0734 102.807 25.9386C103.517 25.7477 104.022 25.3755 104.323 24.8219C104.618 24.2473 104.659 23.5608 104.447 22.7623L102.103 13.9369L106.896 12.6482L109.249 21.5051C109.606 22.8499 109.618 24.1186 109.286 25.3111C108.948 26.4825 108.325 27.5056 107.416 28.3803C106.502 29.2341 105.345 29.849 103.945 30.2252Z" fill="white"/>
<path d="M114.735 27.1155L112.04 11.4933L116.928 10.6395L119.624 26.2617L114.735 27.1155ZM118.143 17.6792L115.821 16.4291C115.911 14.5369 116.349 13.0035 117.133 11.8289C117.918 10.6543 119.162 9.91817 120.867 9.62057C121.612 9.49037 122.282 9.49477 122.876 9.63378C123.489 9.74763 124.048 10.0031 124.556 10.4001L122.286 14.6045C122.032 14.406 121.735 14.2704 121.393 14.1976C121.051 14.1248 120.678 14.1238 120.273 14.1944C119.464 14.3358 118.859 14.7064 118.457 15.3063C118.074 15.881 117.969 16.672 118.143 17.6792Z" fill="white"/>
<path d="M142.141 23.6504L140.954 0.974712L146.038 0.70519L147.226 23.3809L142.141 23.6504ZM134.014 5.49177L133.78 1.0283L153.178 0L153.411 4.46346L134.014 5.49177Z" fill="white"/>
<path d="M161.522 23.8499C159.815 23.7847 158.305 23.3788 156.992 22.6321C155.702 21.8645 154.702 20.836 153.993 19.5465C153.285 18.257 152.96 16.819 153.02 15.2324C153.08 13.6457 153.501 12.247 154.282 11.0362C155.086 9.80449 156.138 8.85436 157.44 8.18581C158.742 7.51726 160.192 7.21351 161.791 7.27458C163.346 7.33399 164.705 7.72328 165.868 8.44243C167.031 9.16159 167.924 10.1317 168.549 11.3526C169.195 12.5744 169.489 13.9569 169.431 15.5001C169.42 15.7826 169.387 16.0861 169.332 16.4104C169.299 16.7139 169.231 17.0705 169.129 17.4801L155.55 16.9941L155.679 13.5709L167.152 13.9765L164.959 15.3292C164.972 14.4156 164.86 13.6604 164.623 13.0636C164.386 12.4452 164.015 11.9739 163.508 11.6498C163.023 11.3048 162.414 11.1183 161.679 11.0902C160.901 11.0605 160.214 11.2193 159.617 11.5665C159.042 11.8928 158.58 12.3757 158.231 13.0154C157.904 13.6559 157.723 14.4434 157.688 15.378C157.653 16.3126 157.784 17.1229 158.083 17.8091C158.404 18.4743 158.86 19.0032 159.451 19.3958C160.064 19.7675 160.792 19.9694 161.635 20.0016C162.413 20.0313 163.12 19.9278 163.756 19.6909C164.393 19.4323 164.96 19.0403 165.455 18.5151L168.074 21.3577C167.262 22.2408 166.296 22.8895 165.177 23.3039C164.058 23.7182 162.84 23.9002 161.522 23.8499Z" fill="white"/>
<path d="M174.129 24.2836L176.698 2.01958L181.626 2.59512L179.057 24.8592L174.129 24.2836ZM171.917 12.3327L172.403 8.11974L184.418 9.52283L183.932 13.7358L171.917 12.3327Z" fill="white"/>
<path d="M195.724 27.7393L197.433 18.8673C197.589 18.0558 197.46 17.3549 197.045 16.7645C196.656 16.1568 196.079 15.7785 195.315 15.6295C194.784 15.526 194.295 15.5524 193.846 15.7087C193.402 15.8436 193.022 16.1018 192.706 16.4833C192.395 16.8435 192.187 17.2905 192.084 17.8243L190.385 16.5292C190.62 15.3121 191.08 14.2941 191.766 13.4752C192.452 12.6564 193.299 12.0904 194.306 11.7773C195.318 11.4428 196.418 11.3914 197.606 11.6232C198.816 11.8591 199.828 12.3223 200.642 13.0127C201.46 13.6818 202.027 14.5123 202.342 15.5043C202.683 16.4791 202.74 17.5537 202.514 18.7281L200.594 28.6892L195.724 27.7393ZM185.504 25.7465L189.984 2.49336L194.855 3.44321L190.375 26.6964L185.504 25.7465Z" fill="white"/>
<path d="M211.827 32.0446C210.182 31.5804 208.808 30.8312 207.705 29.7968C206.628 28.7474 205.894 27.5126 205.504 26.0923C205.114 24.6721 205.133 23.1976 205.559 21.6688C205.985 20.1401 206.719 18.8788 207.759 17.8848C208.826 16.8758 210.07 16.1991 211.491 15.8546C212.912 15.5102 214.393 15.5553 215.933 15.99C217.432 16.413 218.663 17.1107 219.627 18.083C220.591 19.0553 221.235 20.2084 221.559 21.5423C221.904 22.8821 221.869 24.2954 221.454 25.7823C221.378 26.0545 221.276 26.3418 221.147 26.6442C221.044 26.9315 220.896 27.2624 220.701 27.6367L207.61 23.9759L208.53 20.6775L219.592 23.7656L217.145 24.5662C217.37 23.6808 217.436 22.9201 217.344 22.2842C217.258 21.6273 217.006 21.0818 216.588 20.6476C216.197 20.1983 215.647 19.8738 214.939 19.6741C214.19 19.4626 213.485 19.4556 212.823 19.653C212.189 19.8353 211.628 20.1965 211.14 20.7366C210.674 21.2826 210.315 22.0059 210.064 22.9064C209.813 23.8069 209.753 24.6258 209.884 25.3631C210.042 26.0854 210.363 26.7067 210.846 27.2272C211.356 27.7327 212.017 28.0999 212.829 28.3291C213.579 28.5405 214.29 28.6058 214.964 28.5249C215.643 28.423 216.285 28.1749 216.889 27.7806L218.776 31.1595C217.781 31.8276 216.692 32.2317 215.508 32.3719C214.324 32.512 213.097 32.4029 211.827 32.0446Z" fill="white"/>
<path d="M222.226 34.7314L227.507 19.7921L232.181 21.4647L226.901 36.404L222.226 34.7314ZM229.802 28.1966L228.39 25.96C229.392 24.3566 230.522 23.2373 231.779 22.602C233.037 21.9668 234.48 21.9407 236.109 22.5237C236.822 22.7788 237.404 23.1138 237.854 23.5287C238.331 23.9304 238.694 24.4296 238.942 25.0262L234.912 27.5664C234.788 27.2681 234.595 27.0028 234.333 26.7705C234.071 26.5383 233.746 26.3529 233.359 26.2144C232.585 25.9375 231.877 25.9611 231.235 26.2853C230.62 26.5963 230.142 27.2334 229.802 28.1966Z" fill="white"/>
<path d="M246.814 44.4785L248.488 40.872L253.365 43.1631C254.266 43.5863 255.095 43.6515 255.851 43.3586C256.608 43.0657 257.164 42.535 257.521 41.7664C257.768 41.2343 257.87 40.7061 257.827 40.1818C257.784 39.6575 257.602 39.1759 257.28 38.737C256.979 38.3073 256.524 37.9498 255.917 37.6645L251.039 35.3734L252.672 31.8555L257.168 33.9672C257.932 34.3261 258.635 34.4287 259.279 34.2751C259.932 34.1017 260.442 33.6209 260.808 32.8326C261.164 32.064 261.195 31.382 260.898 30.7867C260.611 30.1718 260.085 29.6848 259.321 29.326L254.826 27.2143L256.499 23.6077L261.877 26.1335C263.209 26.7592 264.221 27.5346 264.913 28.4597C265.624 29.3941 266.033 30.3902 266.139 31.4479C266.244 32.5057 266.064 33.5371 265.597 34.5422C265.003 35.8233 264.089 36.714 262.854 37.2144C261.62 37.7148 260.122 37.7553 258.36 37.3358L259.205 35.8242C260.793 36.9782 261.819 38.2884 262.284 39.7549C262.768 41.2305 262.663 42.7173 261.968 44.2151C261.437 45.3582 260.673 46.2594 259.675 46.9189C258.706 47.5678 257.569 47.9099 256.264 47.9451C254.979 47.9896 253.602 47.6668 252.132 46.9767L246.814 44.4785ZM243.288 42.8223L252.973 21.9515L257.528 24.0908L247.842 44.9616L243.288 42.8223Z" fill="white"/>
<path d="M262.722 52.1306L273.907 32.0333L278.349 34.5358L267.164 54.6331L262.722 52.1306ZM266.117 54.0433L268.272 50.1719L279.222 56.3405L277.067 60.2119L266.117 54.0433ZM270.791 45.6457L272.866 41.9166L282.826 47.5273L280.751 51.2564L270.791 45.6457ZM275.163 37.789L277.302 33.946L288.111 40.0349L285.972 43.8778L275.163 37.789Z" fill="white"/>
<path d="M282.235 63.3719L294.155 44.4363L298.346 47.107L286.427 66.0426L282.235 63.3719ZM285.398 51.6394L287.654 48.0563L297.873 54.5673L295.617 58.1504L285.398 51.6394Z" fill="white"/>
<path d="M296.798 73.5434C295.616 72.7018 294.763 71.6552 294.239 70.4035C293.733 69.1644 293.563 67.8441 293.727 66.4426C293.909 65.0536 294.456 63.711 295.367 62.4148C296.279 61.1186 297.355 60.1528 298.596 59.5175C299.855 58.8947 301.149 58.6169 302.479 58.6841C303.826 58.7638 305.091 59.2244 306.274 60.066C307.139 60.6815 307.797 61.4028 308.248 62.2301C308.717 63.0699 308.959 63.9486 308.976 64.8664C309.005 65.7663 308.778 66.617 308.294 67.4182L304.362 73.0116C303.772 73.7374 303.044 74.2452 302.178 74.5349C301.343 74.8195 300.453 74.8792 299.51 74.7141C298.567 74.5491 297.663 74.1589 296.798 73.5434ZM300.203 70.4518C301.068 71.0673 301.965 71.2793 302.894 71.0879C303.835 70.8787 304.618 70.3302 305.242 69.4424C305.667 68.8387 305.918 68.218 305.995 67.5805C306.091 66.9556 306.005 66.3618 305.738 65.7992C305.502 65.2314 305.102 64.7465 304.537 64.3446C303.972 63.9426 303.375 63.7178 302.747 63.6702C302.148 63.6173 301.555 63.7275 300.965 64.0008C300.394 64.2866 299.895 64.7314 299.471 65.3351C299.059 65.9211 298.814 66.5328 298.737 67.1704C298.659 67.8079 298.747 68.4168 299.001 68.9972C299.255 69.5776 299.656 70.0624 300.203 70.4518ZM300.533 75.8017L302.986 72.3125L305.805 69.6029L307.406 66.0266L309.634 62.857L313.605 65.6831L304.504 78.6278L300.533 75.8017Z" fill="white"/>
<path d="M310.173 83.3594C309.506 82.8402 309.129 82.1753 309.042 81.3648C308.955 80.5542 309.163 79.8222 309.666 79.1686C310.195 78.4806 310.854 78.0861 311.642 77.9851C312.444 77.8669 313.178 78.0674 313.845 78.5866C314.529 79.1192 314.906 79.784 314.976 80.5813C315.076 81.3746 314.862 82.1153 314.333 82.8032C313.83 83.4568 313.177 83.8427 312.376 83.9609C311.591 84.0925 310.857 83.892 310.173 83.3594Z" fill="white"/>
</svg>
