<svg width="656" height="626" viewBox="0 0 656 626" fill="none" xmlns="http://www.w3.org/2000/svg">
<path d="M25.8802 340.078C22.972 338.55 20.5116 336.582 18.4991 334.175C16.5243 331.787 15.079 329.172 14.1632 326.329C13.2671 323.448 12.9265 320.474 13.1412 317.405C13.4135 314.319 14.3138 311.322 15.8421 308.414C17.3705 305.505 19.3373 303.093 21.7426 301.176C24.1479 299.258 26.7999 297.881 29.6987 297.042C32.6551 296.186 35.7043 295.933 38.8462 296.282C42.008 296.594 45.0808 297.535 48.0645 299.103C51.5015 300.909 54.2899 303.169 56.4298 305.885C58.6075 308.62 60.0461 311.569 60.7455 314.732L51.498 317.608C51.0871 315.271 50.2314 313.231 48.9307 311.487C47.63 309.743 45.8843 308.296 43.6937 307.144C41.3521 305.914 38.978 305.341 36.5716 305.426C34.185 305.473 31.9668 306.163 29.9168 307.496C27.9245 308.811 26.2733 310.714 24.9633 313.207C23.6533 315.7 23.012 318.158 23.0393 320.583C23.0667 323.007 23.69 325.214 24.9094 327.205C26.1288 329.195 27.8904 330.796 30.1943 332.007C32.536 333.237 34.7471 333.845 36.8277 333.83C38.9659 333.796 40.906 333.177 42.648 331.972C44.4476 330.749 45.9826 328.929 47.2529 326.511L51.0607 333.573L33.3638 323.912L37.3236 316.377L58.3419 327.422L57.6572 328.726C55.1364 333.522 52.144 337.107 48.6798 339.48C45.2732 341.835 41.6036 343.039 37.671 343.093C33.7762 343.167 29.8459 342.162 25.8802 340.078ZM67.2726 356.591C63.9953 355.803 61.2303 354.436 58.9774 352.49C56.776 350.513 55.2386 348.146 54.3651 345.391C53.4916 342.636 53.4189 339.744 54.147 336.716C54.8751 333.687 56.2287 331.161 58.2077 329.135C60.2381 327.078 62.6417 325.659 65.4185 324.879C68.1952 324.098 71.1185 324.077 74.1883 324.815C77.1752 325.533 79.6549 326.81 81.6273 328.644C83.5998 330.479 84.9547 332.691 85.6922 335.282C86.4711 337.883 86.5065 340.656 85.7983 343.602C85.6687 344.141 85.4876 344.712 85.255 345.314C85.0739 345.885 84.8056 346.544 84.4501 347.293L58.3622 341.086L59.9331 334.552L81.9763 339.786L77.2111 341.537C77.5885 339.785 77.6629 338.289 77.4344 337.049C77.2159 335.768 76.6786 334.717 75.8226 333.897C75.0181 333.045 73.9106 332.45 72.5001 332.111C71.0067 331.751 69.6151 331.79 68.3255 332.226C67.0873 332.63 66.0075 333.38 65.086 334.475C64.206 335.58 63.5515 337.024 63.1227 338.808C62.6938 340.592 62.6359 342.202 62.9489 343.637C63.3135 345.041 63.9917 346.236 64.9838 347.22C66.0272 348.173 67.3579 348.844 68.9758 349.233C70.4692 349.592 71.8773 349.667 73.2001 349.459C74.5328 349.209 75.7801 348.675 76.9421 347.857L80.9125 354.341C79.0001 355.724 76.8814 356.597 74.5562 356.96C72.231 357.322 69.8032 357.199 67.2726 356.591ZM91.8175 360.416L94.814 316.55L104.583 317.218L101.587 361.084L91.8175 360.416ZM86.3466 337.205L86.9136 328.905L110.73 330.532L110.163 338.832L86.3466 337.205ZM137.605 359.979L121.25 330.453L131.738 329.221L142.699 352.872L138.821 353.328L144.196 327.758L154.684 326.527L145.105 359.098L137.605 359.979ZM131.175 373.815L138.104 352.703L145.105 359.098L141.154 372.643L131.175 373.815ZM177.002 353.987C173.88 354.691 170.895 354.642 168.047 353.841C165.23 352.988 162.822 351.519 160.821 349.434C158.82 347.348 157.482 344.807 156.806 341.81C156.131 338.813 156.254 335.964 157.176 333.263C158.098 330.563 159.653 328.244 161.841 326.307C164.019 324.329 166.69 322.984 169.853 322.271C173.016 321.558 176.002 321.607 178.808 322.417C181.615 323.228 184.019 324.676 186.02 326.762C188.012 328.806 189.345 331.326 190.021 334.323C190.696 337.32 190.578 340.19 189.665 342.932C188.752 345.675 187.207 348.035 185.029 350.013C182.841 351.949 180.165 353.274 177.002 353.987ZM175.046 345.309C176.419 344.999 177.561 344.436 178.47 343.619C179.37 342.76 179.968 341.728 180.266 340.524C180.595 339.269 180.6 337.934 180.281 336.519C179.962 335.103 179.394 333.941 178.577 333.032C177.75 332.081 176.751 331.432 175.579 331.084C174.439 330.684 173.183 330.64 171.809 330.949C170.477 331.249 169.361 331.829 168.462 332.688C167.552 333.505 166.928 334.52 166.59 335.734C166.251 336.947 166.241 338.262 166.56 339.677C166.869 341.051 167.442 342.234 168.278 343.226C169.105 344.177 170.109 344.847 171.29 345.237C172.462 345.585 173.714 345.609 175.046 345.309ZM213.046 344.645C210.307 345.464 207.71 345.639 205.255 345.17C202.828 344.649 200.728 343.584 198.956 341.976C197.172 340.327 195.895 338.215 195.126 335.639L189.958 318.347L199.34 315.543L204.471 332.713C204.776 333.735 205.203 334.565 205.749 335.203C206.337 335.829 207.04 336.243 207.857 336.444C208.674 336.645 209.573 336.599 210.554 336.306C211.944 335.89 212.92 335.131 213.481 334.028C214.03 332.885 214.072 331.536 213.608 329.983L208.477 312.813L217.859 310.009L223.008 327.24C223.79 329.857 223.887 332.343 223.3 334.701C222.701 337.017 221.53 339.06 219.787 340.827C218.032 342.554 215.785 343.827 213.046 344.645ZM234.05 337.502L224.062 308.045L233.335 304.901L243.324 334.358L234.05 337.502ZM237.836 318.175L232.929 316.459C232.533 312.765 232.921 309.659 234.096 307.144C235.27 304.628 237.473 302.822 240.706 301.726C242.12 301.246 243.428 301.051 244.629 301.139C245.857 301.173 247.026 301.498 248.136 302.112L244.984 310.953C244.429 310.645 243.807 310.473 243.119 310.436C242.431 310.399 241.703 310.511 240.935 310.771C239.399 311.292 238.331 312.195 237.731 313.48C237.157 314.711 237.192 316.276 237.836 318.175ZM285.624 319.604L270.686 277.64L280.152 274.27L295.09 316.235L285.624 319.604ZM260.087 290.04L257.147 281.78L293.263 268.924L296.203 277.184L260.087 290.04ZM322.024 307.59C318.838 308.689 315.772 309.025 312.826 308.597C309.906 308.115 307.337 306.947 305.118 305.095C302.9 303.242 301.282 300.844 300.267 297.9C299.251 294.955 299.032 292.097 299.611 289.325C300.215 286.499 301.478 284.009 303.398 281.857C305.319 279.705 307.772 278.115 310.756 277.085C313.66 276.083 316.437 275.825 319.087 276.31C321.737 276.795 324.069 277.931 326.085 279.718C328.141 281.491 329.663 283.81 330.651 286.673C330.832 287.198 330.986 287.776 331.114 288.409C331.269 288.988 331.397 289.688 331.5 290.51L306.171 299.316L303.98 292.963L325.376 285.514L322.302 289.554C321.677 287.873 320.935 286.572 320.075 285.65C319.201 284.688 318.183 284.091 317.02 283.861C315.884 283.576 314.63 283.67 313.259 284.143C311.807 284.644 310.654 285.425 309.802 286.486C308.976 287.493 308.469 288.706 308.282 290.125C308.134 291.53 308.36 293.099 308.958 294.834C309.556 296.568 310.374 297.956 311.41 298.998C312.473 299.985 313.687 300.627 315.053 300.923C316.445 301.165 317.928 301.014 319.501 300.472C320.953 299.971 322.18 299.277 323.183 298.389C324.172 297.461 324.936 296.34 325.476 295.026L332.311 298.355C331.443 300.55 330.127 302.425 328.362 303.982C326.597 305.539 324.485 306.741 322.024 307.59ZM345.43 299L332.239 257.057L341.579 254.12L354.771 296.062L345.43 299ZM331.878 279.378L329.382 271.441L352.155 264.279L354.651 272.216L331.878 279.378ZM386.938 287.11L382.407 269.97C381.993 268.403 381.165 267.276 379.925 266.589C378.714 265.849 377.367 265.676 375.882 266.069C374.85 266.341 374.003 266.808 373.339 267.469C372.664 268.089 372.209 268.871 371.973 269.816C371.727 270.719 371.74 271.687 372.012 272.718L367.887 271.889C367.266 269.538 367.216 267.344 367.737 265.309C368.258 263.273 369.28 261.547 370.803 260.129C372.315 258.67 374.226 257.636 376.536 257.025C378.887 256.404 381.081 256.353 383.116 256.875C385.141 257.354 386.856 258.335 388.263 259.817C389.7 261.246 390.718 263.096 391.318 265.364L396.405 284.608L386.938 287.11ZM367.076 292.36L355.202 247.439L364.669 244.936L376.543 289.858L367.076 292.36ZM419.229 280.86C415.912 281.458 412.831 281.319 409.985 280.444C407.174 279.52 404.815 277.972 402.906 275.801C400.998 273.63 399.768 271.012 399.216 267.947C398.664 264.881 398.886 262.023 399.883 259.373C400.914 256.673 402.543 254.407 404.771 252.575C406.999 250.743 409.667 249.547 412.774 248.988C415.798 248.443 418.581 248.614 421.125 249.5C423.669 250.386 425.8 251.866 427.518 253.941C429.277 256.009 430.426 258.533 430.962 261.515C431.061 262.06 431.125 262.656 431.154 263.301C431.218 263.896 431.238 264.608 431.213 265.436L404.833 270.252L403.642 263.638L425.928 259.56L422.27 263.08C421.911 261.324 421.377 259.924 420.669 258.881C419.953 257.796 419.039 257.05 417.925 256.644C416.846 256.188 415.592 256.089 414.164 256.346C412.653 256.618 411.394 257.213 410.389 258.131C409.418 259 408.731 260.12 408.328 261.494C407.967 262.859 407.949 264.445 408.275 266.25C408.6 268.056 409.194 269.553 410.059 270.741C410.957 271.88 412.059 272.701 413.363 273.203C414.702 273.655 416.19 273.734 417.828 273.439C419.34 273.167 420.659 272.669 421.786 271.946C422.905 271.181 423.832 270.19 424.567 268.974L430.811 273.312C429.617 275.348 428.028 277 426.046 278.267C424.063 279.535 421.791 280.399 419.229 280.86ZM440.001 276.741L437.452 245.742L447.211 244.94L449.76 275.939L440.001 276.741ZM448.36 258.909L444.015 256.055C444.526 252.374 445.656 249.456 447.405 247.3C449.155 245.144 451.73 243.926 455.132 243.646C456.62 243.524 457.937 243.651 459.081 244.028C460.264 244.359 461.319 244.957 462.246 245.823L457.045 253.635C456.581 253.202 456.02 252.885 455.361 252.682C454.702 252.479 453.969 252.411 453.161 252.478C451.545 252.61 450.29 253.227 449.396 254.328C448.541 255.383 448.196 256.91 448.36 258.909ZM492.025 275.819L492.881 268.058L503.441 269.222C505.392 269.438 506.982 269.033 508.211 268.01C509.439 266.986 510.145 265.648 510.327 263.994C510.454 262.849 510.311 261.803 509.901 260.856C509.49 259.909 508.846 259.13 507.969 258.518C507.135 257.911 506.06 257.535 504.746 257.39L494.186 256.226L495.02 248.656L504.753 249.729C506.407 249.911 507.788 249.656 508.894 248.962C510.006 248.226 510.655 247.01 510.842 245.314C511.024 243.66 510.651 242.374 509.722 241.456C508.798 240.495 507.509 239.924 505.855 239.741L496.122 238.668L496.977 230.907L508.619 232.191C511.503 232.509 513.883 233.308 515.759 234.588C517.678 235.873 519.069 237.464 519.933 239.362C520.797 241.26 521.109 243.291 520.871 245.454C520.567 248.21 519.419 250.445 517.428 252.157C515.436 253.869 512.662 254.893 509.105 255.231L509.731 251.887C513.426 253.025 516.169 254.808 517.962 257.238C519.797 259.672 520.537 262.501 520.181 265.724C519.91 268.184 519.049 270.343 517.6 272.2C516.197 274.02 514.288 275.376 511.871 276.269C509.497 277.166 506.72 277.439 503.539 277.089L492.025 275.819ZM484.391 274.977L489.344 230.065L499.204 231.153L494.252 276.064L484.391 274.977ZM526.407 280.432L539.701 237.248L549.304 240.204L536.011 283.388L526.407 280.432ZM533.748 282.691L536.308 274.373L559.98 281.66L557.419 289.978L533.748 282.691ZM539.302 264.647L541.769 256.634L563.3 263.262L560.833 271.275L539.302 264.647ZM544.499 247.765L547.041 239.507L570.407 246.7L567.865 254.958L544.499 247.765ZM568.33 294.605L587.581 255.075L596.384 259.363L577.134 298.892L568.33 294.605ZM571.976 271.039L575.619 263.558L597.081 274.011L593.439 281.491L571.976 271.039ZM598.302 312.43C595.929 310.836 594.197 308.824 593.105 306.394C592.048 303.988 591.649 301.407 591.908 298.65C592.201 295.918 593.217 293.259 594.954 290.673C596.691 288.088 598.768 286.143 601.187 284.838C603.641 283.557 606.182 282.951 608.809 283.019C611.471 283.112 613.988 283.955 616.361 285.549C618.097 286.715 619.429 288.098 620.358 289.699C621.323 291.324 621.843 293.036 621.92 294.835C622.02 296.598 621.611 298.277 620.695 299.871L613.2 311.027C612.07 312.479 610.658 313.509 608.964 314.119C607.329 314.716 605.577 314.876 603.708 314.597C601.839 314.318 600.037 313.596 598.302 312.43ZM604.874 306.205C606.609 307.371 608.389 307.744 610.213 307.325C612.061 306.87 613.579 305.757 614.769 303.986C615.578 302.782 616.044 301.553 616.167 300.299C616.325 299.069 616.128 297.908 615.576 296.818C615.082 295.715 614.269 294.784 613.136 294.022C612.003 293.261 610.815 292.848 609.573 292.785C608.389 292.709 607.223 292.954 606.073 293.518C604.959 294.105 603.997 295.001 603.188 296.206C602.403 297.374 601.949 298.586 601.826 299.84C601.703 301.093 601.906 302.283 602.434 303.41C602.963 304.536 603.776 305.467 604.874 306.205ZM605.777 316.681L610.453 309.722L615.886 304.274L618.876 297.184L623.123 290.863L631.092 296.216L613.746 322.035L605.777 316.681ZM624.692 331.495C623.421 330.422 622.733 329.087 622.628 327.492C622.523 325.896 622.994 324.478 624.04 323.239C625.14 321.935 626.472 321.217 628.036 321.085C629.627 320.92 631.058 321.374 632.329 322.448C633.633 323.549 634.322 324.883 634.394 326.451C634.526 328.015 634.041 329.448 632.941 330.753C631.895 331.992 630.576 332.693 628.986 332.858C627.428 333.05 625.996 332.596 624.692 331.495Z" fill="white"/>
</svg>
